%TF.GenerationSoftware,KiCad,Pcbnew,10.0.5*%
%TF.CreationDate,2026-08-28T22:35:09-07:00*%
%TF.ProjectId,snips_controller,736e6970-735f-4636-9f6e-74726f6c6c65,rev?*%
%TF.SameCoordinates,Original*%
%TF.FileFunction,Component,L1,Top*%
%TF.FilePolarity,Positive*%
%FSLAX46Y46*%
G04 Gerber Fmt 4.6, Leading zero omitted, Abs format (unit mm)*
G04 Created by KiCad (PCBNEW 10.0.5) date 2026-08-28 22:35:09*
%MOMM*%
%LPD*%
G01*
G04 APERTURE LIST*
%TA.AperFunction,ComponentMain*%
%ADD10C,0.300000*%
%TD*%
%TA.AperFunction,ComponentOutline,Courtyard*%
%ADD11C,0.100000*%
%TD*%
%TA.AperFunction,ComponentPin*%
%ADD12P,0.360000X4X0.000000*%
%TD*%
%TA.AperFunction,ComponentPin*%
%ADD13C,0.100000*%
%TD*%
%TA.AperFunction,ComponentOutline,Footprint*%
%ADD14C,0.100000*%
%TD*%
G04 APERTURE END LIST*
D10*
%TO.C,U_XBEE1*%
%TO.CFtp,XB324Z8UTJ*%
%TO.CVal,XBee3*%
%TO.CLbN,Xbee3*%
%TO.CMnt,TH*%
%TO.CRot,-90*%
X142000000Y-127500000D03*
D11*
X150715000Y-124905000D02*
X150715000Y-151685000D01*
X121091000Y-151685000D01*
X121091000Y-124905000D01*
X150715000Y-124905000D01*
D12*
%TO.P,U_XBEE1,1,VCC_1*%
X142000000Y-127500000D03*
D13*
%TO.P,U_XBEE1,2,DOUT/DIO13_2*%
X140000000Y-127500000D03*
%TO.P,U_XBEE1,3,DIN/~{CONFIG}/DIO14_3*%
X138000000Y-127500000D03*
%TO.P,U_XBEE1,4,SPI_MISO_4*%
X136000000Y-127500000D03*
%TO.P,U_XBEE1,5,RESET_5*%
X134000000Y-127500000D03*
%TO.P,U_XBEE1,6,RSSI_PWM/DIO10_6*%
X132000000Y-127500000D03*
%TO.P,U_XBEE1,7,PWM1/DIO11_7*%
X130000000Y-127500000D03*
%TO.P,U_XBEE1,8,[RESERVED]_1_8*%
X128000000Y-127500000D03*
%TO.P,U_XBEE1,9,DTR_9*%
X126000000Y-127500000D03*
%TO.P,U_XBEE1,10,GND_10*%
X124000000Y-127500000D03*
%TO.P,U_XBEE1,11,SPI_MOSI_11*%
X124000000Y-149500000D03*
%TO.P,U_XBEE1,12,~{CTS}/DIO7_12*%
X126000000Y-149500000D03*
%TO.P,U_XBEE1,13,ON_SLEEP_13*%
X128000000Y-149500000D03*
%TO.P,U_XBEE1,14,[RESERVED]_2_14*%
X130000000Y-149500000D03*
%TO.P,U_XBEE1,15,ASSOCIATE/DIO5_15*%
X132000000Y-149500000D03*
%TO.P,U_XBEE1,16,~{RTS}/DIO6_16*%
X134000000Y-149500000D03*
%TO.P,U_XBEE1,17,SPI_SSEL_17*%
X136000000Y-149500000D03*
%TO.P,U_XBEE1,18,SPI_CLK_18*%
X138000000Y-149500000D03*
%TO.P,U_XBEE1,19,SPI_ATTN_19*%
X140000000Y-149500000D03*
%TO.P,U_XBEE1,20,AD0_/DIO0_20*%
X142000000Y-149500000D03*
%TD*%
D10*
%TO.C,SW_MACRO2*%
%TO.CFtp,SW_Push_1TS009xxxx-xxxx-xxxx_6x6x5mm*%
%TO.CVal,6x6x5mm SMD Tactile*%
%TO.CLbN,Button_Switch_SMD*%
%TO.CMnt,SMD*%
%TO.CRot,0*%
X137500000Y-112500000D03*
D11*
X139547928Y-109255000D02*
X140745000Y-110452072D01*
X140745000Y-111255000D01*
X141745000Y-111255000D01*
X141745000Y-113745000D01*
X140745000Y-113745000D01*
X140745000Y-114547928D01*
X139547928Y-115745000D01*
X135452072Y-115745000D01*
X134255000Y-114547928D01*
X134255000Y-113745000D01*
X133255000Y-113745000D01*
X133255000Y-111255000D01*
X134255000Y-111255000D01*
X134255000Y-110452072D01*
X135452072Y-109255000D01*
X139547928Y-109255000D01*
D12*
%TO.P,SW_MACRO2,1,1_1*%
X134500000Y-112500000D03*
D13*
%TO.P,SW_MACRO2,2,2_2*%
X140500000Y-112500000D03*
%TD*%
D10*
%TO.C,SW_MACRO5*%
%TO.CFtp,SW_Push_1TS009xxxx-xxxx-xxxx_6x6x5mm*%
%TO.CVal,6x6x5mm SMD Tactile*%
%TO.CLbN,Button_Switch_SMD*%
%TO.CMnt,SMD*%
%TO.CRot,0*%
X137500000Y-121250000D03*
D11*
X139547928Y-118005000D02*
X140745000Y-119202072D01*
X140745000Y-120005000D01*
X141745000Y-120005000D01*
X141745000Y-122495000D01*
X140745000Y-122495000D01*
X140745000Y-123297928D01*
X139547928Y-124495000D01*
X135452072Y-124495000D01*
X134255000Y-123297928D01*
X134255000Y-122495000D01*
X133255000Y-122495000D01*
X133255000Y-120005000D01*
X134255000Y-120005000D01*
X134255000Y-119202072D01*
X135452072Y-118005000D01*
X139547928Y-118005000D01*
D12*
%TO.P,SW_MACRO5,1,1_1*%
X134500000Y-121250000D03*
D13*
%TO.P,SW_MACRO5,2,2_2*%
X140500000Y-121250000D03*
%TD*%
D10*
%TO.C,REF\u005Cu002A\u005Cu002A*%
%TO.CFtp,Fiducial_1mm_Mask2mm*%
%TO.CVal,Fiducial_1mm_Mask2mm*%
%TO.CLbN,Fiducial*%
%TO.CMnt,SMD*%
%TO.CRot,0*%
X124200000Y-78300000D03*
D11*
X124477598Y-77083771D02*
X124690300Y-77152883D01*
X124887248Y-77258865D01*
X125062103Y-77398308D01*
X125209253Y-77566734D01*
X125323964Y-77758728D01*
X125402548Y-77968114D01*
X125442493Y-78188230D01*
X125444998Y-78300000D01*
X125442493Y-78411769D01*
X125402548Y-78631885D01*
X125323964Y-78841271D01*
X125209253Y-79033265D01*
X125062103Y-79201691D01*
X124887248Y-79341134D01*
X124690300Y-79447116D01*
X124477598Y-79516228D01*
X124255967Y-79546249D01*
X124032545Y-79536215D01*
X123814498Y-79486447D01*
X123608843Y-79398547D01*
X123422192Y-79275339D01*
X123260539Y-79120782D01*
X123129080Y-78939845D01*
X123032041Y-78738342D01*
X122972542Y-78522750D01*
X122952494Y-78300000D01*
X122972542Y-78077249D01*
X123032041Y-77861657D01*
X123129080Y-77660154D01*
X123260539Y-77479217D01*
X123422192Y-77324660D01*
X123608843Y-77201452D01*
X123814498Y-77113552D01*
X124032545Y-77063784D01*
X124255967Y-77053750D01*
X124477598Y-77083771D01*
D13*
%TO.P,REF\u005Cu002A\u005Cu002A,*%
X124200000Y-78300000D03*
%TD*%
D10*
%TO.C,R_XBEE_RST1*%
%TO.CFtp,R_0402_1005Metric*%
%TO.CVal,10kΩ*%
%TO.CLbN,Resistor_SMD*%
%TO.CMnt,SMD*%
%TO.CRot,180*%
X137250000Y-130000000D03*
D11*
X138175000Y-129535000D02*
X138175000Y-130465000D01*
X136325000Y-130465000D01*
X136325000Y-129535000D01*
X138175000Y-129535000D01*
D12*
%TO.P,R_XBEE_RST1,1*%
X137760000Y-130000000D03*
D13*
%TO.P,R_XBEE_RST1,2*%
X136740000Y-130000000D03*
%TD*%
D10*
%TO.C,D_RGB1*%
%TO.CFtp,LED_SK6812_PLCC4_5.0x5.0mm_P3.2mm*%
%TO.CVal,SK6812MINI-E*%
%TO.CLbN,LED_SMD*%
%TO.CMnt,SMD*%
%TO.CRot,0*%
X146550000Y-156650000D03*
D11*
X149995000Y-153905000D02*
X149995000Y-159395000D01*
X143105000Y-159395000D01*
X143105000Y-153905000D01*
X149995000Y-153905000D01*
D12*
%TO.P,D_RGB1,1,VSS_1*%
X144100000Y-155050000D03*
D13*
%TO.P,D_RGB1,2,DIN_2*%
X144100000Y-158250000D03*
%TO.P,D_RGB1,3,VDD_3*%
X149000000Y-158250000D03*
%TO.P,D_RGB1,4,DOUT_4*%
X149000000Y-155050000D03*
%TD*%
D10*
%TO.C,C_XBEE_RC1*%
%TO.CFtp,C_0402_1005Metric*%
%TO.CVal,100nF*%
%TO.CLbN,Capacitor_SMD*%
%TO.CMnt,SMD*%
%TO.CRot,180*%
X134730000Y-131250000D03*
D11*
X135635000Y-130795000D02*
X135635000Y-131705000D01*
X133825000Y-131705000D01*
X133825000Y-130795000D01*
X135635000Y-130795000D01*
D12*
%TO.P,C_XBEE_RC1,1*%
X135210000Y-131250000D03*
D13*
%TO.P,C_XBEE_RC1,2*%
X134250000Y-131250000D03*
%TD*%
D10*
%TO.C,SW_MACRO6*%
%TO.CFtp,SW_Push_1TS009xxxx-xxxx-xxxx_6x6x5mm*%
%TO.CVal,6x6x5mm SMD Tactile*%
%TO.CLbN,Button_Switch_SMD*%
%TO.CMnt,SMD*%
%TO.CRot,0*%
X147750000Y-121250000D03*
D11*
X149797928Y-118005000D02*
X150995000Y-119202072D01*
X150995000Y-120005000D01*
X151995000Y-120005000D01*
X151995000Y-122495000D01*
X150995000Y-122495000D01*
X150995000Y-123297928D01*
X149797928Y-124495000D01*
X145702072Y-124495000D01*
X144505000Y-123297928D01*
X144505000Y-122495000D01*
X143505000Y-122495000D01*
X143505000Y-120005000D01*
X144505000Y-120005000D01*
X144505000Y-119202072D01*
X145702072Y-118005000D01*
X149797928Y-118005000D01*
D12*
%TO.P,SW_MACRO6,1,1_1*%
X144750000Y-121250000D03*
D13*
%TO.P,SW_MACRO6,2,2_2*%
X150750000Y-121250000D03*
%TD*%
D10*
%TO.C,C_RGB1*%
%TO.CFtp,C_0402_1005Metric*%
%TO.CVal,100nF*%
%TO.CLbN,Capacitor_SMD*%
%TO.CMnt,SMD*%
%TO.CRot,90*%
X150500000Y-152750000D03*
D11*
X150955000Y-151845000D02*
X150955000Y-153655000D01*
X150045000Y-153655000D01*
X150045000Y-151845000D01*
X150955000Y-151845000D01*
D12*
%TO.P,C_RGB1,1*%
X150500000Y-153230000D03*
D13*
%TO.P,C_RGB1,2*%
X150500000Y-152270000D03*
%TD*%
D10*
%TO.C,SW_MACRO3*%
%TO.CFtp,SW_Push_1TS009xxxx-xxxx-xxxx_6x6x5mm*%
%TO.CVal,6x6x5mm SMD Tactile*%
%TO.CLbN,Button_Switch_SMD*%
%TO.CMnt,SMD*%
%TO.CRot,0*%
X147750000Y-112500000D03*
D11*
X149797928Y-109255000D02*
X150995000Y-110452072D01*
X150995000Y-111255000D01*
X151995000Y-111255000D01*
X151995000Y-113745000D01*
X150995000Y-113745000D01*
X150995000Y-114547928D01*
X149797928Y-115745000D01*
X145702072Y-115745000D01*
X144505000Y-114547928D01*
X144505000Y-113745000D01*
X143505000Y-113745000D01*
X143505000Y-111255000D01*
X144505000Y-111255000D01*
X144505000Y-110452072D01*
X145702072Y-109255000D01*
X149797928Y-109255000D01*
D12*
%TO.P,SW_MACRO3,1,1_1*%
X144750000Y-112500000D03*
D13*
%TO.P,SW_MACRO3,2,2_2*%
X150750000Y-112500000D03*
%TD*%
D10*
%TO.C,C_XBEE_VCC1*%
%TO.CFtp,C_0402_1005Metric*%
%TO.CVal,100nF*%
%TO.CLbN,Capacitor_SMD*%
%TO.CMnt,SMD*%
%TO.CRot,-90*%
X141000000Y-129500000D03*
D11*
X141455000Y-128595000D02*
X141455000Y-130405000D01*
X140545000Y-130405000D01*
X140545000Y-128595000D01*
X141455000Y-128595000D01*
D12*
%TO.P,C_XBEE_VCC1,1*%
X141000000Y-129020000D03*
D13*
%TO.P,C_XBEE_VCC1,2*%
X141000000Y-129980000D03*
%TD*%
D10*
%TO.C,R_XBEE_RC1*%
%TO.CFtp,R_0402_1005Metric*%
%TO.CVal,100Ω*%
%TO.CLbN,Resistor_SMD*%
%TO.CMnt,SMD*%
%TO.CRot,180*%
X134750000Y-130000000D03*
D11*
X135675000Y-129535000D02*
X135675000Y-130465000D01*
X133825000Y-130465000D01*
X133825000Y-129535000D01*
X135675000Y-129535000D01*
D12*
%TO.P,R_XBEE_RC1,1*%
X135260000Y-130000000D03*
D13*
%TO.P,R_XBEE_RC1,2*%
X134240000Y-130000000D03*
%TD*%
D10*
%TO.C,R_USB_DM1*%
%TO.CFtp,R_0402_1005Metric*%
%TO.CVal,27Ω*%
%TO.CLbN,Resistor_SMD*%
%TO.CMnt,SMD*%
%TO.CRot,90*%
X127750000Y-153760000D03*
D11*
X128215000Y-152835000D02*
X128215000Y-154685000D01*
X127285000Y-154685000D01*
X127285000Y-152835000D01*
X128215000Y-152835000D01*
D12*
%TO.P,R_USB_DM1,1*%
X127750000Y-154270000D03*
D13*
%TO.P,R_USB_DM1,2*%
X127750000Y-153250000D03*
%TD*%
D10*
%TO.C,SW_TRIG_DIG1*%
%TO.CFtp,SW_Push_1P1T-MP_NO_Horizontal_Alps_SKRTLAE010*%
%TO.CVal,Alps_SKRTLAE010*%
%TO.CLbN,Button_Switch_SMD*%
%TO.CMnt,SMD*%
%TO.CRot,180*%
X124725000Y-61750000D03*
D11*
X127550000Y-59455000D02*
X127550000Y-63795000D01*
X121900000Y-63795000D01*
X121900000Y-59455000D01*
X127550000Y-59455000D01*
D12*
%TO.P,SW_TRIG_DIG1,1,1_1*%
X125950000Y-62650000D03*
X123500000Y-62650000D03*
D13*
%TO.P,SW_TRIG_DIG1,*%
X126850000Y-61750000D03*
X122600000Y-61750000D03*
%TO.P,SW_TRIG_DIG1,2,2_2*%
X124725000Y-62650000D03*
%TO.P,SW_TRIG_DIG1,MP*%
X126575000Y-60700000D03*
X122875000Y-60700000D03*
%TD*%
D10*
%TO.C,R_EN_PU1*%
%TO.CFtp,R_0402_1005Metric*%
%TO.CVal,10kΩ*%
%TO.CLbN,Resistor_SMD*%
%TO.CMnt,SMD*%
%TO.CRot,-90*%
X126000000Y-75500000D03*
D11*
X126465000Y-74575000D02*
X126465000Y-76425000D01*
X125535000Y-76425000D01*
X125535000Y-74575000D01*
X126465000Y-74575000D01*
D12*
%TO.P,R_EN_PU1,1*%
X126000000Y-74990000D03*
D13*
%TO.P,R_EN_PU1,2*%
X126000000Y-76010000D03*
%TD*%
D10*
%TO.C,U_MCU1*%
%TO.CFtp,ESP32-S3-WROOM-1*%
%TO.CVal,ESP32-S3-WROOM-1-N8*%
%TO.CLbN,Espressif*%
%TO.CMnt,SMD*%
%TO.CRot,0*%
X138000000Y-72910000D03*
D11*
X147795000Y-56865000D02*
X147795000Y-83455000D01*
X128205000Y-83455000D01*
X128205000Y-56865000D01*
X147795000Y-56865000D01*
D12*
%TO.P,U_MCU1,1,GND_1*%
X129250000Y-64650000D03*
D13*
%TO.P,U_MCU1,2,3V3_2*%
X129250000Y-65920000D03*
%TO.P,U_MCU1,3,EN_3*%
X129250000Y-67190000D03*
%TO.P,U_MCU1,4,GPIO4/TOUCH4/ADC1_CH3_4*%
X129250000Y-68460000D03*
%TO.P,U_MCU1,5,GPIO5/TOUCH5/ADC1_CH4_5*%
X129250000Y-69730000D03*
%TO.P,U_MCU1,6,GPIO6/TOUCH6/ADC1_CH5_6*%
X129250000Y-71000000D03*
%TO.P,U_MCU1,7,GPIO7/TOUCH7/ADC1_CH6_7*%
X129250000Y-72270000D03*
%TO.P,U_MCU1,8,GPIO15/U0RTS/ADC2_CH4/XTAL_32K_P_8*%
X129250000Y-73540000D03*
%TO.P,U_MCU1,9,GPIO16/U0CTS/ADC2_CH5/XTAL_32K_N_9*%
X129250000Y-74810000D03*
%TO.P,U_MCU1,10,GPIO17/U1TXD/ADC2_CH6_10*%
X129250000Y-76080000D03*
%TO.P,U_MCU1,11,GPIO18/U1RXD/ADC2_CH7/CLK_OUT3_11*%
X129250000Y-77350000D03*
%TO.P,U_MCU1,12,GPIO8/TOUCH8/ADC1_CH7/SUBSPICS1_12*%
X129250000Y-78620000D03*
%TO.P,U_MCU1,13,GPIO19/U1RTS/ADC2_CH8/CLK_OUT2/USB_D-_13*%
X129250000Y-79890000D03*
%TO.P,U_MCU1,14,GPIO20/U1CTS/ADC2_CH9/CLK_OUT1/USB_D+_14*%
X129250000Y-81160000D03*
%TO.P,U_MCU1,15,GPIO3/TOUCH3/ADC1_CH2_15*%
X131015000Y-82410000D03*
%TO.P,U_MCU1,16,GPIO46_16*%
X132285000Y-82410000D03*
%TO.P,U_MCU1,17,GPIO9/TOUCH9/ADC1_CH8/FSPIHD/SUBSPIHD_17*%
X133555000Y-82410000D03*
%TO.P,U_MCU1,18,GPIO10/TOUCH10/ADC1_CH9/FSPICS0/FSPIIO4/SUBSPICS0_18*%
X134825000Y-82410000D03*
%TO.P,U_MCU1,19,GPIO11/TOUCH11/ADC2_CH0/FSPID/FSPIIO5/SUBSPID_19*%
X136095000Y-82410000D03*
%TO.P,U_MCU1,20,GPIO12/TOUCH12/ADC2_CH1/FSPICLK/FSPIIO6/SUBSPICLK_20*%
X137365000Y-82410000D03*
%TO.P,U_MCU1,21,GPIO13/TOUCH13/ADC2_CH2/FSPIQ/FSPIIO7/SUBSPIQ_21*%
X138635000Y-82410000D03*
%TO.P,U_MCU1,22,GPIO14/TOUCH14/ADC2_CH3/FSPIWP/FSPIDQS/SUBSPIWP_22*%
X139905000Y-82410000D03*
%TO.P,U_MCU1,23,GPIO21_23*%
X141175000Y-82410000D03*
%TO.P,U_MCU1,24,GPIO47/SPICLK_P/SUBSPICLK_P_DIFF_24*%
X142445000Y-82410000D03*
%TO.P,U_MCU1,25,GPIO48/SPICLK_N/SUBSPICLK_N_DIFF_25*%
X143715000Y-82410000D03*
%TO.P,U_MCU1,26,GPIO45_26*%
X144985000Y-82410000D03*
%TO.P,U_MCU1,27,GPIO0/BOOT_27*%
X146750000Y-81160000D03*
%TO.P,U_MCU1,28,SPIIO6/GPIO35/FSPID/SUBSPID_28*%
X146750000Y-79890000D03*
%TO.P,U_MCU1,29,SPIIO7/GPIO36/FSPICLK/SUBSPICLK_29*%
X146750000Y-78620000D03*
%TO.P,U_MCU1,30,SPIDQS/GPIO37/FSPIQ/SUBSPIQ_30*%
X146750000Y-77350000D03*
%TO.P,U_MCU1,31,GPIO38/FSPIWP/SUBSPIWP_31*%
X146750000Y-76080000D03*
%TO.P,U_MCU1,32,MTCK/GPIO39/CLK_OUT3/SUBSPICS1_32*%
X146750000Y-74810000D03*
%TO.P,U_MCU1,33,MTDO/GPIO40/CLK_OUT2_33*%
X146750000Y-73540000D03*
%TO.P,U_MCU1,34,MTDI/GPIO41/CLK_OUT1_34*%
X146750000Y-72270000D03*
%TO.P,U_MCU1,35,MTMS/GPIO42_35*%
X146750000Y-71000000D03*
%TO.P,U_MCU1,36,U0RXD/GPIO44/CLK_OUT2_36*%
X146750000Y-69730000D03*
%TO.P,U_MCU1,37,U0TXD/GPIO43/CLK_OUT1_37*%
X146750000Y-68460000D03*
%TO.P,U_MCU1,38,GPIO2/TOUCH2/ADC1_CH1_38*%
X146750000Y-67190000D03*
%TO.P,U_MCU1,39,GPIO1/TOUCH1/ADC1_CH0_39*%
X146750000Y-65920000D03*
%TO.P,U_MCU1,40,GND_40*%
X146750000Y-64650000D03*
%TO.P,U_MCU1,41,GND_41*%
X135100000Y-70970000D03*
X135100000Y-72370000D03*
X135100000Y-73770000D03*
X135100000Y-73770000D03*
X136500000Y-70970000D03*
X136500000Y-70970000D03*
X136500000Y-72370000D03*
X136500000Y-73770000D03*
X137900000Y-70970000D03*
X137900000Y-72370000D03*
X137900000Y-73770000D03*
%TD*%
D10*
%TO.C,SW_THR_UP1*%
%TO.CFtp,SW_Push_1P1T-MP_NO_Horizontal_Alps_SKRTLAE010*%
%TO.CVal,Alps_SKRTLAE010*%
%TO.CLbN,Button_Switch_SMD*%
%TO.CMnt,SMD*%
%TO.CRot,-90*%
X121750000Y-90500000D03*
D11*
X123795000Y-87675000D02*
X123795000Y-93325000D01*
X119455000Y-93325000D01*
X119455000Y-87675000D01*
X123795000Y-87675000D01*
D12*
%TO.P,SW_THR_UP1,1,1_1*%
X122650000Y-89275000D03*
X122650000Y-91725000D03*
D13*
%TO.P,SW_THR_UP1,*%
X121750000Y-88375000D03*
X121750000Y-92625000D03*
%TO.P,SW_THR_UP1,2,2_2*%
X122650000Y-90500000D03*
%TO.P,SW_THR_UP1,MP*%
X120700000Y-88650000D03*
X120700000Y-92350000D03*
%TD*%
D10*
%TO.C,U_OLED1*%
%TO.CFtp,JST_SH_SM04B-SRSS-TB_1x04-1MP_P1.00mm_Horizontal*%
%TO.CVal,JST-SH_4Pin_OLED*%
%TO.CLbN,Connector_JST*%
%TO.CMnt,SMD*%
%TO.CRot,0*%
X124000000Y-71000000D03*
D11*
X126295000Y-67725000D02*
X126295000Y-68825000D01*
X127495000Y-68825000D01*
X127495000Y-71475000D01*
X127895000Y-71475000D01*
X127895000Y-74275000D01*
X125695000Y-74275000D01*
X125695000Y-74075000D01*
X122305000Y-74075000D01*
X122305000Y-74275000D01*
X120105000Y-74275000D01*
X120105000Y-71475000D01*
X120505000Y-71475000D01*
X120505000Y-68825000D01*
X121705000Y-68825000D01*
X121705000Y-67725000D01*
X126295000Y-67725000D01*
D12*
%TO.P,U_OLED1,1,VCC_1*%
X122500000Y-69000000D03*
D13*
%TO.P,U_OLED1,2,GND_2*%
X123500000Y-69000000D03*
%TO.P,U_OLED1,3,SCL_3*%
X124500000Y-69000000D03*
%TO.P,U_OLED1,4,SDA_4*%
X125500000Y-69000000D03*
%TO.P,U_OLED1,MP*%
X121200000Y-72875000D03*
X126800000Y-72875000D03*
%TD*%
D10*
%TO.C,R_CC2*%
%TO.CFtp,R_0402_1005Metric*%
%TO.CVal,5.1kΩ*%
%TO.CLbN,Resistor_SMD*%
%TO.CMnt,SMD*%
%TO.CRot,0*%
X144250000Y-152750000D03*
D11*
X145175000Y-152285000D02*
X145175000Y-153215000D01*
X143325000Y-153215000D01*
X143325000Y-152285000D01*
X145175000Y-152285000D01*
D12*
%TO.P,R_CC2,1*%
X143740000Y-152750000D03*
D13*
%TO.P,R_CC2,2*%
X144760000Y-152750000D03*
%TD*%
D10*
%TO.C,C_XBEE_VCC4*%
%TO.CFtp,C_0603_1608Metric*%
%TO.CVal,10µF*%
%TO.CLbN,Capacitor_SMD*%
%TO.CMnt,SMD*%
%TO.CRot,-90*%
X142500000Y-133775000D03*
D11*
X143225000Y-132300000D02*
X143225000Y-135250000D01*
X141775000Y-135250000D01*
X141775000Y-132300000D01*
X143225000Y-132300000D01*
D12*
%TO.P,C_XBEE_VCC4,1*%
X142500000Y-133000000D03*
D13*
%TO.P,C_XBEE_VCC4,2*%
X142500000Y-134550000D03*
%TD*%
D10*
%TO.C,C_OLED_2*%
%TO.CFtp,C_0402_1005Metric*%
%TO.CVal,100nF*%
%TO.CLbN,Capacitor_SMD*%
%TO.CMnt,SMD*%
%TO.CRot,0*%
X123000000Y-67000000D03*
D11*
X123905000Y-66545000D02*
X123905000Y-67455000D01*
X122095000Y-67455000D01*
X122095000Y-66545000D01*
X123905000Y-66545000D01*
D12*
%TO.P,C_OLED_2,1*%
X122520000Y-67000000D03*
D13*
%TO.P,C_OLED_2,2*%
X123480000Y-67000000D03*
%TD*%
D10*
%TO.C,SW_BOOT1*%
%TO.CFtp,SW_SPST_EVQP2_ShortPushTravel_H2.1mm*%
%TO.CVal,Panasonic_EVQP2*%
%TO.CLbN,Button_Switch_SMD*%
%TO.CMnt,SMD*%
%TO.CRot,90*%
X152500000Y-148100000D03*
D11*
X154495000Y-144555000D02*
X154495000Y-151645000D01*
X150505000Y-151645000D01*
X150505000Y-144555000D01*
X154495000Y-144555000D01*
D12*
%TO.P,SW_BOOT1,1,1_1*%
X151650000Y-150675000D03*
X151650000Y-145525000D03*
D13*
%TO.P,SW_BOOT1,2,2_2*%
X153350000Y-150675000D03*
X153350000Y-145525000D03*
%TD*%
D10*
%TO.C,SW_VOL_DN1*%
%TO.CFtp,SW_Push_1P1T-MP_NO_Horizontal_Alps_SKRTLAE010*%
%TO.CVal,Alps_SKRTLAE010*%
%TO.CLbN,Button_Switch_SMD*%
%TO.CMnt,SMD*%
%TO.CRot,90*%
X153200000Y-100525000D03*
D11*
X155495000Y-97700000D02*
X155495000Y-103350000D01*
X151155000Y-103350000D01*
X151155000Y-97700000D01*
X155495000Y-97700000D01*
D12*
%TO.P,SW_VOL_DN1,1,1_1*%
X152300000Y-101750000D03*
X152300000Y-99300000D03*
D13*
%TO.P,SW_VOL_DN1,*%
X153200000Y-102650000D03*
X153200000Y-98400000D03*
%TO.P,SW_VOL_DN1,2,2_2*%
X152300000Y-100525000D03*
%TO.P,SW_VOL_DN1,MP*%
X154250000Y-102375000D03*
X154250000Y-98675000D03*
%TD*%
D10*
%TO.C,SW_MACRO4*%
%TO.CFtp,SW_Push_1TS009xxxx-xxxx-xxxx_6x6x5mm*%
%TO.CVal,6x6x5mm SMD Tactile*%
%TO.CLbN,Button_Switch_SMD*%
%TO.CMnt,SMD*%
%TO.CRot,0*%
X127250000Y-121250000D03*
D11*
X129297928Y-118005000D02*
X130495000Y-119202072D01*
X130495000Y-120005000D01*
X131495000Y-120005000D01*
X131495000Y-122495000D01*
X130495000Y-122495000D01*
X130495000Y-123297928D01*
X129297928Y-124495000D01*
X125202072Y-124495000D01*
X124005000Y-123297928D01*
X124005000Y-122495000D01*
X123005000Y-122495000D01*
X123005000Y-120005000D01*
X124005000Y-120005000D01*
X124005000Y-119202072D01*
X125202072Y-118005000D01*
X129297928Y-118005000D01*
D12*
%TO.P,SW_MACRO4,1,1_1*%
X124250000Y-121250000D03*
D13*
%TO.P,SW_MACRO4,2,2_2*%
X130250000Y-121250000D03*
%TD*%
D10*
%TO.C,J_USB1*%
%TO.CFtp,USB_C_Receptacle_HRO_TYPE-C-31-M-12*%
%TO.CVal,USB-C*%
%TO.CLbN,Connector_USB*%
%TO.CMnt,SMD*%
%TO.CRot,0*%
X137500000Y-157100000D03*
D11*
X142815000Y-151835000D02*
X142815000Y-161245000D01*
X132185000Y-161245000D01*
X132185000Y-151835000D01*
X142815000Y-151835000D01*
D12*
%TO.P,J_USB1,A1,GND_A1*%
X134250000Y-153055000D03*
D13*
%TO.P,J_USB1,*%
X134610000Y-154500000D03*
X140390000Y-154500000D03*
%TO.P,J_USB1,A4,VBUS_A4*%
X135050000Y-153055000D03*
%TO.P,J_USB1,A5,CC1_A5*%
X136250000Y-153055000D03*
%TO.P,J_USB1,A6,D+_A6*%
X137250000Y-153055000D03*
%TO.P,J_USB1,A7,D-_A7*%
X137750000Y-153055000D03*
%TO.P,J_USB1,A8,SBU1_A8*%
X138750000Y-153055000D03*
%TO.P,J_USB1,A9,VBUS_A9*%
X139950000Y-153055000D03*
%TO.P,J_USB1,A12,GND_A12*%
X140750000Y-153055000D03*
%TO.P,J_USB1,B1,GND_B1*%
X140750000Y-153055000D03*
%TO.P,J_USB1,B4,VBUS_B4*%
X139950000Y-153055000D03*
%TO.P,J_USB1,B5,CC2_B5*%
X139250000Y-153055000D03*
%TO.P,J_USB1,B6,D+_B6*%
X138250000Y-153055000D03*
%TO.P,J_USB1,B7,D-_B7*%
X136750000Y-153055000D03*
%TO.P,J_USB1,B8,SBU2_B8*%
X135750000Y-153055000D03*
%TO.P,J_USB1,B9,VBUS_B9*%
X135050000Y-153055000D03*
%TO.P,J_USB1,B12,GND_B12*%
X134250000Y-153055000D03*
%TO.P,J_USB1,SH,SHIELD_SH*%
X133180000Y-153970000D03*
X133180000Y-158150000D03*
X141820000Y-153970000D03*
X141820000Y-158150000D03*
%TD*%
D10*
%TO.C,C_XBEE_VCC2*%
%TO.CFtp,C_0603_1608Metric*%
%TO.CVal,1µF*%
%TO.CLbN,Capacitor_SMD*%
%TO.CMnt,SMD*%
%TO.CRot,-90*%
X143750000Y-130000000D03*
D11*
X144475000Y-128525000D02*
X144475000Y-131475000D01*
X143025000Y-131475000D01*
X143025000Y-128525000D01*
X144475000Y-128525000D01*
D12*
%TO.P,C_XBEE_VCC2,1*%
X143750000Y-129225000D03*
D13*
%TO.P,C_XBEE_VCC2,2*%
X143750000Y-130775000D03*
%TD*%
D10*
%TO.C,J_STICK1*%
%TO.CFtp,GuliKit_HallStick*%
%TO.CVal,GuliKit_Thumbstick*%
%TO.CLbN,SnipsControllers_Custom*%
%TO.CMnt,TH*%
%TO.CRot,0*%
X137500000Y-95250000D03*
D14*
X129900000Y-85495000D02*
X129900000Y-106625000D01*
X147255000Y-106625000D01*
X147255000Y-85495000D01*
X129900000Y-85495000D01*
D12*
%TO.P,J_STICK1,1,X_LO_1*%
X140000000Y-86520000D03*
D13*
%TO.P,J_STICK1,*%
X131175000Y-90250000D03*
X131175000Y-100250000D03*
X143825000Y-90250000D03*
X143825000Y-100250000D03*
%TO.P,J_STICK1,1',Y_LO_1'*%
X146230000Y-97750000D03*
%TO.P,J_STICK1,2,X_OUT_2*%
X137500000Y-86520000D03*
%TO.P,J_STICK1,2',Y_OUT_2'*%
X146230000Y-95250000D03*
%TO.P,J_STICK1,3,X_HI_3*%
X135000000Y-86520000D03*
%TO.P,J_STICK1,3',Y_HI_3'*%
X146230000Y-92750000D03*
%TO.P,J_STICK1,a,SW_A_a*%
X134250000Y-101000000D03*
%TO.P,J_STICK1,b*%
X140750000Y-101000000D03*
%TO.P,J_STICK1,c,SW_C_c*%
X134250000Y-105500000D03*
%TO.P,J_STICK1,d*%
X140750000Y-105500000D03*
%TD*%
D10*
%TO.C,C_DBNC1*%
%TO.CFtp,C_0402_1005Metric*%
%TO.CVal,100nF*%
%TO.CLbN,Capacitor_SMD*%
%TO.CMnt,SMD*%
%TO.CRot,90*%
X126500000Y-154000000D03*
D11*
X126955000Y-153095000D02*
X126955000Y-154905000D01*
X126045000Y-154905000D01*
X126045000Y-153095000D01*
X126955000Y-153095000D01*
D12*
%TO.P,C_DBNC1,1*%
X126500000Y-154480000D03*
D13*
%TO.P,C_DBNC1,2*%
X126500000Y-153520000D03*
%TD*%
D10*
%TO.C,R_RGB1*%
%TO.CFtp,R_0402_1005Metric*%
%TO.CVal,470Ω*%
%TO.CLbN,Resistor_SMD*%
%TO.CMnt,SMD*%
%TO.CRot,90*%
X148250000Y-152750000D03*
D11*
X148715000Y-151825000D02*
X148715000Y-153675000D01*
X147785000Y-153675000D01*
X147785000Y-151825000D01*
X148715000Y-151825000D01*
D12*
%TO.P,R_RGB1,1*%
X148250000Y-153260000D03*
D13*
%TO.P,R_RGB1,2*%
X148250000Y-152240000D03*
%TD*%
D10*
%TO.C,R_CC1*%
%TO.CFtp,R_0402_1005Metric*%
%TO.CVal,5.1kΩ*%
%TO.CLbN,Resistor_SMD*%
%TO.CMnt,SMD*%
%TO.CRot,-90*%
X130250000Y-153760000D03*
D11*
X130715000Y-152835000D02*
X130715000Y-154685000D01*
X129785000Y-154685000D01*
X129785000Y-152835000D01*
X130715000Y-152835000D01*
D12*
%TO.P,R_CC1,1*%
X130250000Y-153250000D03*
D13*
%TO.P,R_CC1,2*%
X130250000Y-154270000D03*
%TD*%
D10*
%TO.C,C_3V3_2*%
%TO.CFtp,C_0402_1005Metric*%
%TO.CVal,100nF*%
%TO.CLbN,Capacitor_SMD*%
%TO.CMnt,SMD*%
%TO.CRot,90*%
X127500000Y-65070000D03*
D11*
X127955000Y-64165000D02*
X127955000Y-65975000D01*
X127045000Y-65975000D01*
X127045000Y-64165000D01*
X127955000Y-64165000D01*
D12*
%TO.P,C_3V3_2,1*%
X127500000Y-65550000D03*
D13*
%TO.P,C_3V3_2,2*%
X127500000Y-64590000D03*
%TD*%
D10*
%TO.C,REF\u005Cu002A\u005Cu002A*%
%TO.CFtp,Fiducial_1mm_Mask2mm*%
%TO.CVal,Fiducial_1mm_Mask2mm*%
%TO.CLbN,Fiducial*%
%TO.CMnt,SMD*%
%TO.CRot,0*%
X151300000Y-127300000D03*
D11*
X151577598Y-126083771D02*
X151790300Y-126152883D01*
X151987248Y-126258865D01*
X152162103Y-126398308D01*
X152309253Y-126566734D01*
X152423964Y-126758728D01*
X152502548Y-126968114D01*
X152542493Y-127188230D01*
X152544998Y-127300000D01*
X152542493Y-127411769D01*
X152502548Y-127631885D01*
X152423964Y-127841271D01*
X152309253Y-128033265D01*
X152162103Y-128201691D01*
X151987248Y-128341134D01*
X151790300Y-128447116D01*
X151577598Y-128516228D01*
X151355967Y-128546249D01*
X151132545Y-128536215D01*
X150914498Y-128486447D01*
X150708843Y-128398547D01*
X150522192Y-128275339D01*
X150360539Y-128120782D01*
X150229080Y-127939845D01*
X150132041Y-127738342D01*
X150072542Y-127522750D01*
X150052494Y-127300000D01*
X150072542Y-127077249D01*
X150132041Y-126861657D01*
X150229080Y-126660154D01*
X150360539Y-126479217D01*
X150522192Y-126324660D01*
X150708843Y-126201452D01*
X150914498Y-126113552D01*
X151132545Y-126063784D01*
X151355967Y-126053750D01*
X151577598Y-126083771D01*
D13*
%TO.P,REF\u005Cu002A\u005Cu002A,*%
X151300000Y-127300000D03*
%TD*%
D10*
%TO.C,C_3V3_1*%
%TO.CFtp,C_0603_1608Metric*%
%TO.CVal,10µF*%
%TO.CLbN,Capacitor_SMD*%
%TO.CMnt,SMD*%
%TO.CRot,90*%
X126000000Y-65500000D03*
D11*
X126725000Y-64025000D02*
X126725000Y-66975000D01*
X125275000Y-66975000D01*
X125275000Y-64025000D01*
X126725000Y-64025000D01*
D12*
%TO.P,C_3V3_1,1*%
X126000000Y-66275000D03*
D13*
%TO.P,C_3V3_1,2*%
X126000000Y-64725000D03*
%TD*%
D10*
%TO.C,R_VSYS1*%
%TO.CFtp,R_0402_1005Metric*%
%TO.CVal,200kΩ*%
%TO.CLbN,Resistor_SMD*%
%TO.CMnt,SMD*%
%TO.CRot,0*%
X122290000Y-84600000D03*
D11*
X123215000Y-84135000D02*
X123215000Y-85065000D01*
X121365000Y-85065000D01*
X121365000Y-84135000D01*
X123215000Y-84135000D01*
D12*
%TO.P,R_VSYS1,1*%
X121780000Y-84600000D03*
D13*
%TO.P,R_VSYS1,2*%
X122800000Y-84600000D03*
%TD*%
D10*
%TO.C,R_USB_DP1*%
%TO.CFtp,R_0402_1005Metric*%
%TO.CVal,27Ω*%
%TO.CLbN,Resistor_SMD*%
%TO.CMnt,SMD*%
%TO.CRot,90*%
X129000000Y-153760000D03*
D11*
X129465000Y-152835000D02*
X129465000Y-154685000D01*
X128535000Y-154685000D01*
X128535000Y-152835000D01*
X129465000Y-152835000D01*
D12*
%TO.P,R_USB_DP1,1*%
X129000000Y-154270000D03*
D13*
%TO.P,R_USB_DP1,2*%
X129000000Y-153250000D03*
%TD*%
D10*
%TO.C,SW_THR_DN1*%
%TO.CFtp,SW_Push_1P1T-MP_NO_Horizontal_Alps_SKRTLAE010*%
%TO.CVal,Alps_SKRTLAE010*%
%TO.CLbN,Button_Switch_SMD*%
%TO.CMnt,SMD*%
%TO.CRot,-90*%
X121750000Y-100525000D03*
D11*
X123795000Y-97700000D02*
X123795000Y-103350000D01*
X119455000Y-103350000D01*
X119455000Y-97700000D01*
X123795000Y-97700000D01*
D12*
%TO.P,SW_THR_DN1,1,1_1*%
X122650000Y-99300000D03*
X122650000Y-101750000D03*
D13*
%TO.P,SW_THR_DN1,*%
X121750000Y-98400000D03*
X121750000Y-102650000D03*
%TO.P,SW_THR_DN1,2,2_2*%
X122650000Y-100525000D03*
%TO.P,SW_THR_DN1,MP*%
X120700000Y-98675000D03*
X120700000Y-102375000D03*
%TD*%
D10*
%TO.C,C_XBEE_VCC3*%
%TO.CFtp,C_0402_1005Metric*%
%TO.CVal,47pF*%
%TO.CLbN,Capacitor_SMD*%
%TO.CMnt,SMD*%
%TO.CRot,-90*%
X142250000Y-129500000D03*
D11*
X142705000Y-128595000D02*
X142705000Y-130405000D01*
X141795000Y-130405000D01*
X141795000Y-128595000D01*
X142705000Y-128595000D01*
D12*
%TO.P,C_XBEE_VCC3,1*%
X142250000Y-129020000D03*
D13*
%TO.P,C_XBEE_VCC3,2*%
X142250000Y-129980000D03*
%TD*%
D10*
%TO.C,SW_VOL_UP1*%
%TO.CFtp,SW_Push_1P1T-MP_NO_Horizontal_Alps_SKRTLAE010*%
%TO.CVal,Alps_SKRTLAE010*%
%TO.CLbN,Button_Switch_SMD*%
%TO.CMnt,SMD*%
%TO.CRot,90*%
X153200000Y-90500000D03*
D11*
X155495000Y-87675000D02*
X155495000Y-93325000D01*
X151155000Y-93325000D01*
X151155000Y-87675000D01*
X155495000Y-87675000D01*
D12*
%TO.P,SW_VOL_UP1,1,1_1*%
X152300000Y-91725000D03*
X152300000Y-89275000D03*
D13*
%TO.P,SW_VOL_UP1,*%
X153200000Y-92625000D03*
X153200000Y-88375000D03*
%TO.P,SW_VOL_UP1,2,2_2*%
X152300000Y-90500000D03*
%TO.P,SW_VOL_UP1,MP*%
X154250000Y-92350000D03*
X154250000Y-88650000D03*
%TD*%
D10*
%TO.C,C_OLED_1*%
%TO.CFtp,C_0805_2012Metric*%
%TO.CVal,10µF*%
%TO.CLbN,Capacitor_SMD*%
%TO.CMnt,SMD*%
%TO.CRot,0*%
X122500000Y-65500000D03*
D11*
X124195000Y-64525000D02*
X124195000Y-66475000D01*
X120805000Y-66475000D01*
X120805000Y-64525000D01*
X124195000Y-64525000D01*
D12*
%TO.P,C_OLED_1,1*%
X121550000Y-65500000D03*
D13*
%TO.P,C_OLED_1,2*%
X123450000Y-65500000D03*
%TD*%
D10*
%TO.C,SW_MACRO1*%
%TO.CFtp,SW_Push_1TS009xxxx-xxxx-xxxx_6x6x5mm*%
%TO.CVal,6x6x5mm SMD Tactile*%
%TO.CLbN,Button_Switch_SMD*%
%TO.CMnt,SMD*%
%TO.CRot,0*%
X127250000Y-112500000D03*
D11*
X129297928Y-109255000D02*
X130495000Y-110452072D01*
X130495000Y-111255000D01*
X131495000Y-111255000D01*
X131495000Y-113745000D01*
X130495000Y-113745000D01*
X130495000Y-114547928D01*
X129297928Y-115745000D01*
X125202072Y-115745000D01*
X124005000Y-114547928D01*
X124005000Y-113745000D01*
X123005000Y-113745000D01*
X123005000Y-111255000D01*
X124005000Y-111255000D01*
X124005000Y-110452072D01*
X125202072Y-109255000D01*
X129297928Y-109255000D01*
D12*
%TO.P,SW_MACRO1,1,1_1*%
X124250000Y-112500000D03*
D13*
%TO.P,SW_MACRO1,2,2_2*%
X130250000Y-112500000D03*
%TD*%
D10*
%TO.C,R_VSYS2*%
%TO.CFtp,R_0402_1005Metric*%
%TO.CVal,100kΩ*%
%TO.CLbN,Resistor_SMD*%
%TO.CMnt,SMD*%
%TO.CRot,180*%
X122280000Y-83400000D03*
D11*
X123205000Y-82935000D02*
X123205000Y-83865000D01*
X121355000Y-83865000D01*
X121355000Y-82935000D01*
X123205000Y-82935000D01*
D12*
%TO.P,R_VSYS2,1*%
X122790000Y-83400000D03*
D13*
%TO.P,R_VSYS2,2*%
X121770000Y-83400000D03*
%TD*%
D10*
%TO.C,REF\u005Cu002A\u005Cu002A*%
%TO.CFtp,Fiducial_1mm_Mask2mm*%
%TO.CVal,Fiducial_1mm_Mask2mm*%
%TO.CLbN,Fiducial*%
%TO.CMnt,SMD*%
%TO.CRot,0*%
X147000000Y-150100000D03*
D11*
X147277598Y-148883771D02*
X147490300Y-148952883D01*
X147687248Y-149058865D01*
X147862103Y-149198308D01*
X148009253Y-149366734D01*
X148123964Y-149558728D01*
X148202548Y-149768114D01*
X148242493Y-149988230D01*
X148244998Y-150100000D01*
X148242493Y-150211769D01*
X148202548Y-150431885D01*
X148123964Y-150641271D01*
X148009253Y-150833265D01*
X147862103Y-151001691D01*
X147687248Y-151141134D01*
X147490300Y-151247116D01*
X147277598Y-151316228D01*
X147055967Y-151346249D01*
X146832545Y-151336215D01*
X146614498Y-151286447D01*
X146408843Y-151198547D01*
X146222192Y-151075339D01*
X146060539Y-150920782D01*
X145929080Y-150739845D01*
X145832041Y-150538342D01*
X145772542Y-150322750D01*
X145752494Y-150100000D01*
X145772542Y-149877249D01*
X145832041Y-149661657D01*
X145929080Y-149460154D01*
X146060539Y-149279217D01*
X146222192Y-149124660D01*
X146408843Y-149001452D01*
X146614498Y-148913552D01*
X146832545Y-148863784D01*
X147055967Y-148853750D01*
X147277598Y-148883771D01*
D13*
%TO.P,REF\u005Cu002A\u005Cu002A,*%
X147000000Y-150100000D03*
%TD*%
D10*
%TO.C,C_STICK1*%
%TO.CFtp,C_0402_1005Metric*%
%TO.CVal,100nF*%
%TO.CLbN,Capacitor_SMD*%
%TO.CMnt,SMD*%
%TO.CRot,-90*%
X148500000Y-93000000D03*
D11*
X148955000Y-92095000D02*
X148955000Y-93905000D01*
X148045000Y-93905000D01*
X148045000Y-92095000D01*
X148955000Y-92095000D01*
D12*
%TO.P,C_STICK1,1*%
X148500000Y-92520000D03*
D13*
%TO.P,C_STICK1,2*%
X148500000Y-93480000D03*
%TD*%
D10*
%TO.C,R_XBEE_ATTN_PU1*%
%TO.CFtp,R_0402_1005Metric*%
%TO.CVal,10kΩ*%
%TO.CLbN,Resistor_SMD*%
%TO.CMnt,SMD*%
%TO.CRot,-90*%
X139600000Y-147290000D03*
D11*
X140065000Y-146365000D02*
X140065000Y-148215000D01*
X139135000Y-148215000D01*
X139135000Y-146365000D01*
X140065000Y-146365000D01*
D12*
%TO.P,R_XBEE_ATTN_PU1,1*%
X139600000Y-146780000D03*
D13*
%TO.P,R_XBEE_ATTN_PU1,2*%
X139600000Y-147800000D03*
%TD*%
D10*
%TO.C,SW_PWR1*%
%TO.CFtp,SW_Push_1P1T-MP_NO_Horizontal_Alps_SKRTLAE010*%
%TO.CVal,Alps_SKRTLAE010*%
%TO.CLbN,Button_Switch_SMD*%
%TO.CMnt,SMD*%
%TO.CRot,0*%
X129000000Y-157950000D03*
D11*
X131825000Y-155905000D02*
X131825000Y-160245000D01*
X126175000Y-160245000D01*
X126175000Y-155905000D01*
X131825000Y-155905000D01*
D12*
%TO.P,SW_PWR1,1,1_1*%
X127775000Y-157050000D03*
X130225000Y-157050000D03*
D13*
%TO.P,SW_PWR1,*%
X126875000Y-157950000D03*
X131125000Y-157950000D03*
%TO.P,SW_PWR1,2,2_2*%
X129000000Y-157050000D03*
%TO.P,SW_PWR1,MP*%
X127150000Y-159000000D03*
X130850000Y-159000000D03*
%TD*%
D10*
%TO.C,C_3V3_3*%
%TO.CFtp,C_0402_1005Metric*%
%TO.CVal,39pF*%
%TO.CLbN,Capacitor_SMD*%
%TO.CMnt,SMD*%
%TO.CRot,-90*%
X127300000Y-67180000D03*
D11*
X127755000Y-66275000D02*
X127755000Y-68085000D01*
X126845000Y-68085000D01*
X126845000Y-66275000D01*
X127755000Y-66275000D01*
D12*
%TO.P,C_3V3_3,1*%
X127300000Y-66700000D03*
D13*
%TO.P,C_3V3_3,2*%
X127300000Y-67660000D03*
%TD*%
D10*
%TO.C,R_BOOT_PU1*%
%TO.CFtp,R_0402_1005Metric*%
%TO.CVal,10kΩ*%
%TO.CLbN,Resistor_SMD*%
%TO.CMnt,SMD*%
%TO.CRot,-90*%
X148500000Y-82740000D03*
D11*
X148965000Y-81815000D02*
X148965000Y-83665000D01*
X148035000Y-83665000D01*
X148035000Y-81815000D01*
X148965000Y-81815000D01*
D12*
%TO.P,R_BOOT_PU1,1*%
X148500000Y-82230000D03*
D13*
%TO.P,R_BOOT_PU1,2*%
X148500000Y-83250000D03*
%TD*%
M02*
