%TF.GenerationSoftware,KiCad,Pcbnew,10.0.5*%
%TF.CreationDate,2026-08-28T22:32:12-07:00*%
%TF.ProjectId,snips_controller,736e6970-735f-4636-9f6e-74726f6c6c65,rev?*%
%TF.SameCoordinates,Original*%
%TF.FileFunction,Paste,Bot*%
%TF.FilePolarity,Positive*%
%FSLAX46Y46*%
G04 Gerber Fmt 4.6, Leading zero omitted, Abs format (unit mm)*
G04 Created by KiCad (PCBNEW 10.0.5) date 2026-08-28 22:32:12*
%MOMM*%
%LPD*%
G01*
G04 APERTURE LIST*
G04 Aperture macros list*
%AMRoundRect*
0 Rectangle with rounded corners*
0 $1 Rounding radius*
0 $2 $3 $4 $5 $6 $7 $8 $9 X,Y pos of 4 corners*
0 Add a 4 corners polygon primitive as box body*
4,1,4,$2,$3,$4,$5,$6,$7,$8,$9,$2,$3,0*
0 Add four circle primitives for the rounded corners*
1,1,$1+$1,$2,$3*
1,1,$1+$1,$4,$5*
1,1,$1+$1,$6,$7*
1,1,$1+$1,$8,$9*
0 Add four rect primitives between the rounded corners*
20,1,$1+$1,$2,$3,$4,$5,0*
20,1,$1+$1,$4,$5,$6,$7,0*
20,1,$1+$1,$6,$7,$8,$9,0*
20,1,$1+$1,$8,$9,$2,$3,0*%
G04 Aperture macros list end*
%ADD10C,0.010000*%
%ADD11RoundRect,0.135000X-0.135000X-0.185000X0.135000X-0.185000X0.135000X0.185000X-0.135000X0.185000X0*%
%ADD12RoundRect,0.250000X-0.250000X-0.475000X0.250000X-0.475000X0.250000X0.475000X-0.250000X0.475000X0*%
%ADD13RoundRect,0.150000X-0.587500X-0.150000X0.587500X-0.150000X0.587500X0.150000X-0.587500X0.150000X0*%
%ADD14RoundRect,0.112500X-0.112500X0.187500X-0.112500X-0.187500X0.112500X-0.187500X0.112500X0.187500X0*%
%ADD15RoundRect,0.140000X-0.170000X0.140000X-0.170000X-0.140000X0.170000X-0.140000X0.170000X0.140000X0*%
%ADD16RoundRect,0.250000X0.250000X0.475000X-0.250000X0.475000X-0.250000X-0.475000X0.250000X-0.475000X0*%
%ADD17RoundRect,0.250000X-0.475000X0.250000X-0.475000X-0.250000X0.475000X-0.250000X0.475000X0.250000X0*%
%ADD18RoundRect,0.135000X0.135000X0.185000X-0.135000X0.185000X-0.135000X-0.185000X0.135000X-0.185000X0*%
%ADD19RoundRect,0.225000X-0.375000X0.225000X-0.375000X-0.225000X0.375000X-0.225000X0.375000X0.225000X0*%
%ADD20RoundRect,0.140000X0.140000X0.170000X-0.140000X0.170000X-0.140000X-0.170000X0.140000X-0.170000X0*%
%ADD21RoundRect,0.052000X0.198000X0.048000X-0.198000X0.048000X-0.198000X-0.048000X0.198000X-0.048000X0*%
%ADD22RoundRect,0.225000X0.375000X-0.225000X0.375000X0.225000X-0.375000X0.225000X-0.375000X-0.225000X0*%
%ADD23RoundRect,0.135000X0.185000X-0.135000X0.185000X0.135000X-0.185000X0.135000X-0.185000X-0.135000X0*%
%ADD24RoundRect,0.135000X-0.185000X0.135000X-0.185000X-0.135000X0.185000X-0.135000X0.185000X0.135000X0*%
%ADD25RoundRect,0.150000X0.150000X-0.512500X0.150000X0.512500X-0.150000X0.512500X-0.150000X-0.512500X0*%
%ADD26R,1.500000X3.600000*%
G04 APERTURE END LIST*
D10*
%TO.C,U_CHG1*%
X133425000Y-119640000D02*
X133425000Y-118360000D01*
X133425000Y-118357000D01*
X133425000Y-118355000D01*
X133424000Y-118352000D01*
X133424000Y-118350000D01*
X133423000Y-118347000D01*
X133423000Y-118345000D01*
X133422000Y-118342000D01*
X133421000Y-118340000D01*
X133420000Y-118337000D01*
X133418000Y-118335000D01*
X133417000Y-118333000D01*
X133415000Y-118331000D01*
X133414000Y-118329000D01*
X133412000Y-118327000D01*
X133410000Y-118325000D01*
X133408000Y-118323000D01*
X133406000Y-118321000D01*
X133404000Y-118320000D01*
X133402000Y-118318000D01*
X133400000Y-118317000D01*
X133398000Y-118315000D01*
X133395000Y-118314000D01*
X133393000Y-118313000D01*
X133390000Y-118312000D01*
X133388000Y-118312000D01*
X133385000Y-118311000D01*
X133383000Y-118311000D01*
X133380000Y-118310000D01*
X133378000Y-118310000D01*
X133375000Y-118310000D01*
X132625000Y-118310000D01*
X132622000Y-118310000D01*
X132620000Y-118310000D01*
X132617000Y-118311000D01*
X132615000Y-118311000D01*
X132612000Y-118312000D01*
X132610000Y-118312000D01*
X132607000Y-118313000D01*
X132605000Y-118314000D01*
X132602000Y-118315000D01*
X132600000Y-118317000D01*
X132598000Y-118318000D01*
X132596000Y-118320000D01*
X132594000Y-118321000D01*
X132592000Y-118323000D01*
X132590000Y-118325000D01*
X132588000Y-118327000D01*
X132586000Y-118329000D01*
X132585000Y-118331000D01*
X132583000Y-118333000D01*
X132582000Y-118335000D01*
X132580000Y-118337000D01*
X132579000Y-118340000D01*
X132578000Y-118342000D01*
X132577000Y-118345000D01*
X132577000Y-118347000D01*
X132576000Y-118350000D01*
X132576000Y-118352000D01*
X132575000Y-118355000D01*
X132575000Y-118357000D01*
X132575000Y-118360000D01*
X132575000Y-119640000D01*
X132575000Y-119643000D01*
X132575000Y-119645000D01*
X132576000Y-119648000D01*
X132576000Y-119650000D01*
X132577000Y-119653000D01*
X132577000Y-119655000D01*
X132578000Y-119658000D01*
X132579000Y-119660000D01*
X132580000Y-119663000D01*
X132582000Y-119665000D01*
X132583000Y-119667000D01*
X132585000Y-119669000D01*
X132586000Y-119671000D01*
X132588000Y-119673000D01*
X132590000Y-119675000D01*
X132592000Y-119677000D01*
X132594000Y-119679000D01*
X132596000Y-119680000D01*
X132598000Y-119682000D01*
X132600000Y-119683000D01*
X132602000Y-119685000D01*
X132605000Y-119686000D01*
X132607000Y-119687000D01*
X132610000Y-119688000D01*
X132612000Y-119688000D01*
X132615000Y-119689000D01*
X132617000Y-119689000D01*
X132620000Y-119690000D01*
X132622000Y-119690000D01*
X132625000Y-119690000D01*
X133375000Y-119690000D01*
X133378000Y-119690000D01*
X133380000Y-119690000D01*
X133383000Y-119689000D01*
X133385000Y-119689000D01*
X133388000Y-119688000D01*
X133390000Y-119688000D01*
X133393000Y-119687000D01*
X133395000Y-119686000D01*
X133398000Y-119685000D01*
X133400000Y-119683000D01*
X133402000Y-119682000D01*
X133404000Y-119680000D01*
X133406000Y-119679000D01*
X133408000Y-119677000D01*
X133410000Y-119675000D01*
X133412000Y-119673000D01*
X133414000Y-119671000D01*
X133415000Y-119669000D01*
X133417000Y-119667000D01*
X133418000Y-119665000D01*
X133420000Y-119663000D01*
X133421000Y-119660000D01*
X133422000Y-119658000D01*
X133423000Y-119655000D01*
X133423000Y-119653000D01*
X133424000Y-119650000D01*
X133424000Y-119648000D01*
X133425000Y-119645000D01*
X133425000Y-119643000D01*
X133425000Y-119640000D01*
G36*
X133383000Y-118311000D02*
G01*
X133385000Y-118311000D01*
X133388000Y-118312000D01*
X133390000Y-118312000D01*
X133393000Y-118313000D01*
X133395000Y-118314000D01*
X133398000Y-118315000D01*
X133400000Y-118317000D01*
X133402000Y-118318000D01*
X133404000Y-118320000D01*
X133406000Y-118321000D01*
X133408000Y-118323000D01*
X133410000Y-118325000D01*
X133412000Y-118327000D01*
X133414000Y-118329000D01*
X133415000Y-118331000D01*
X133417000Y-118333000D01*
X133418000Y-118335000D01*
X133420000Y-118337000D01*
X133421000Y-118340000D01*
X133422000Y-118342000D01*
X133423000Y-118345000D01*
X133423000Y-118347000D01*
X133424000Y-118350000D01*
X133424000Y-118352000D01*
X133425000Y-118355000D01*
X133425000Y-118357000D01*
X133425000Y-118360000D01*
X133425000Y-119640000D01*
X133425000Y-119643000D01*
X133425000Y-119645000D01*
X133424000Y-119648000D01*
X133424000Y-119650000D01*
X133423000Y-119653000D01*
X133423000Y-119655000D01*
X133422000Y-119658000D01*
X133421000Y-119660000D01*
X133420000Y-119663000D01*
X133418000Y-119665000D01*
X133417000Y-119667000D01*
X133415000Y-119669000D01*
X133414000Y-119671000D01*
X133412000Y-119673000D01*
X133410000Y-119675000D01*
X133408000Y-119677000D01*
X133406000Y-119679000D01*
X133404000Y-119680000D01*
X133402000Y-119682000D01*
X133400000Y-119683000D01*
X133398000Y-119685000D01*
X133395000Y-119686000D01*
X133393000Y-119687000D01*
X133390000Y-119688000D01*
X133388000Y-119688000D01*
X133385000Y-119689000D01*
X133383000Y-119689000D01*
X133380000Y-119690000D01*
X133378000Y-119690000D01*
X133375000Y-119690000D01*
X132625000Y-119690000D01*
X132622000Y-119690000D01*
X132620000Y-119690000D01*
X132617000Y-119689000D01*
X132615000Y-119689000D01*
X132612000Y-119688000D01*
X132610000Y-119688000D01*
X132607000Y-119687000D01*
X132605000Y-119686000D01*
X132602000Y-119685000D01*
X132600000Y-119683000D01*
X132598000Y-119682000D01*
X132596000Y-119680000D01*
X132594000Y-119679000D01*
X132592000Y-119677000D01*
X132590000Y-119675000D01*
X132588000Y-119673000D01*
X132586000Y-119671000D01*
X132585000Y-119669000D01*
X132583000Y-119667000D01*
X132582000Y-119665000D01*
X132580000Y-119663000D01*
X132579000Y-119660000D01*
X132578000Y-119658000D01*
X132577000Y-119655000D01*
X132577000Y-119653000D01*
X132576000Y-119650000D01*
X132576000Y-119648000D01*
X132575000Y-119645000D01*
X132575000Y-119643000D01*
X132575000Y-119640000D01*
X132575000Y-118360000D01*
X132575000Y-118357000D01*
X132575000Y-118355000D01*
X132576000Y-118352000D01*
X132576000Y-118350000D01*
X132577000Y-118347000D01*
X132577000Y-118345000D01*
X132578000Y-118342000D01*
X132579000Y-118340000D01*
X132580000Y-118337000D01*
X132582000Y-118335000D01*
X132583000Y-118333000D01*
X132585000Y-118331000D01*
X132586000Y-118329000D01*
X132588000Y-118327000D01*
X132590000Y-118325000D01*
X132592000Y-118323000D01*
X132594000Y-118321000D01*
X132596000Y-118320000D01*
X132598000Y-118318000D01*
X132600000Y-118317000D01*
X132602000Y-118315000D01*
X132605000Y-118314000D01*
X132607000Y-118313000D01*
X132610000Y-118312000D01*
X132612000Y-118312000D01*
X132615000Y-118311000D01*
X132617000Y-118311000D01*
X132620000Y-118310000D01*
X132622000Y-118310000D01*
X132625000Y-118310000D01*
X133375000Y-118310000D01*
X133378000Y-118310000D01*
X133380000Y-118310000D01*
X133383000Y-118311000D01*
G37*
%TD*%
D11*
%TO.C,R_BTN_PU1*%
X147490000Y-135000000D03*
X148510000Y-135000000D03*
%TD*%
D12*
%TO.C,C_SYS_1*%
X138000000Y-117000000D03*
X139900000Y-117000000D03*
%TD*%
D13*
%TO.C,Q_PWR1*%
X148625000Y-117950000D03*
X148625000Y-116050000D03*
X150500000Y-117000000D03*
%TD*%
D14*
%TO.C,D_VBUS_TVS1*%
X137400000Y-155150000D03*
X137400000Y-157250000D03*
%TD*%
D15*
%TO.C,C_VIN_2*%
X130000000Y-118040000D03*
X130000000Y-119000000D03*
%TD*%
D16*
%TO.C,C_VIN_1*%
X128000000Y-118000000D03*
X126100000Y-118000000D03*
%TD*%
D17*
%TO.C,C_BUCK_OUT1*%
X122025000Y-109050000D03*
X122025000Y-110950000D03*
%TD*%
D18*
%TO.C,R_PWR_SENSE1*%
X148520000Y-133000000D03*
X147500000Y-133000000D03*
%TD*%
D19*
%TO.C,D_OR1*%
X147000000Y-125850000D03*
X147000000Y-129150000D03*
%TD*%
D16*
%TO.C,C_BUCK_IN1*%
X131450000Y-105500000D03*
X129550000Y-105500000D03*
%TD*%
D20*
%TO.C,C_HALL1*%
X152000000Y-66000000D03*
X151040000Y-66000000D03*
%TD*%
D18*
%TO.C,R_GATE1*%
X148520000Y-114500000D03*
X147500000Y-114500000D03*
%TD*%
D13*
%TO.C,Q_LATCH1*%
X148500000Y-121900000D03*
X148500000Y-120000000D03*
X150375000Y-120950000D03*
%TD*%
D15*
%TO.C,C_SYS_2*%
X135500000Y-117000000D03*
X135500000Y-117960000D03*
%TD*%
D12*
%TO.C,C_BAT1*%
X136500000Y-120500000D03*
X138400000Y-120500000D03*
%TD*%
D21*
%TO.C,U_CHG1*%
X134050000Y-118200000D03*
X134050000Y-118600000D03*
X134050000Y-119000000D03*
X134050000Y-119400000D03*
X134050000Y-119800000D03*
X131950000Y-119800000D03*
X131950000Y-119400000D03*
X131950000Y-119000000D03*
X131950000Y-118600000D03*
X131950000Y-118200000D03*
%TD*%
D11*
%TO.C,R_STAT2*%
X137090000Y-122800000D03*
X138110000Y-122800000D03*
%TD*%
D22*
%TO.C,D_OR2*%
X144000000Y-121650000D03*
X144000000Y-118350000D03*
%TD*%
D23*
%TO.C,R_LATCH_G1*%
X146000000Y-123510000D03*
X146000000Y-122490000D03*
%TD*%
D24*
%TO.C,R_FB2*%
X122525000Y-114740000D03*
X122525000Y-115760000D03*
%TD*%
D18*
%TO.C,R_VSET1*%
X126020000Y-122500000D03*
X125000000Y-122500000D03*
%TD*%
%TO.C,R_STAT1*%
X128920000Y-120000000D03*
X127900000Y-120000000D03*
%TD*%
%TO.C,R_ISET1*%
X126040000Y-121000000D03*
X125020000Y-121000000D03*
%TD*%
D23*
%TO.C,R_FB1*%
X122525000Y-113760000D03*
X122525000Y-112740000D03*
%TD*%
D25*
%TO.C,U_BUCK1*%
X132425000Y-110000000D03*
X131475000Y-110000000D03*
X130525000Y-110000000D03*
X130525000Y-107725000D03*
X132425000Y-107725000D03*
%TD*%
D26*
%TO.C,L_BUCK1*%
X128050000Y-110000000D03*
X125000000Y-110000000D03*
%TD*%
D18*
%TO.C,R_TS1*%
X126020000Y-124000000D03*
X125000000Y-124000000D03*
%TD*%
M02*
