M48
; DRILL file KiCad 10.0.5 date 2026-08-28T21:24:21
; FORMAT={-:-/ absolute / metric / decimal}
; #@! TF.CreationDate,2026-08-28T21:24:21-07:00
; #@! TF.GenerationSoftware,Kicad,Pcbnew,10.0.5
; #@! TF.FileFunction,Plated,1,4,PTH
FMAT,2
METRIC
; #@! TA.AperFunction,Plated,PTH,ComponentDrill
T1C0.200
; #@! TA.AperFunction,Plated,PTH,ViaDrill
T2C0.300
; #@! TA.AperFunction,Plated,PTH,ComponentDrill
T3C0.600
; #@! TA.AperFunction,Plated,PTH,ComponentDrill
T4C0.750
; #@! TA.AperFunction,Plated,PTH,ComponentDrill
T5C0.920
; #@! TA.AperFunction,Plated,PTH,ComponentDrill
T6C1.050
; #@! TA.AperFunction,Plated,PTH,ComponentDrill
T7C1.250
; #@! TA.AperFunction,Plated,PTH,ComponentDrill
T8C1.550
%
G90
G05
T1
X133.0Y-118.5
X133.0Y-119.5
T2
X121.5Y-67.0
X121.5Y-112.0
X121.6Y-82.4
X121.8Y-85.7
X122.0Y-63.0
X122.5Y-107.5
X123.184Y-132.484
X123.5Y-115.5
X123.5Y-124.0
X123.9Y-71.1
X124.0Y-129.0
X124.088Y-90.338
X124.5Y-72.0
X124.5Y-100.5
X125.0Y-118.0
X125.0Y-154.5
X125.25Y-90.5
X125.341Y-100.425
X126.0Y-77.0
X126.0Y-153.0
X126.624Y-119.724
X126.759Y-76.747
X127.11Y-120.4
X127.5Y-71.3
X128.0Y-75.5
X128.0Y-76.5
X128.0Y-105.5
X128.0Y-140.2
X128.1Y-103.7
X128.45Y-99.88
X128.75Y-121.25
X129.0Y-103.0
X129.0Y-116.5
X129.0Y-119.0
X130.5Y-74.0
X130.5Y-76.5
X130.75Y-63.75
X130.75Y-65.0
X130.8Y-67.8
X131.5Y-69.0
X131.5Y-111.5
X133.021Y-117.7
X133.021Y-120.5
X133.3Y-94.4
X133.5Y-116.4
X133.589Y-113.975
X133.85Y-111.0
X134.7Y-119.75
X134.7Y-145.5
X135.0Y-104.0
X135.47Y-154.244
X135.5Y-88.0
X135.816Y-93.426
X135.9Y-157.2
X136.2Y-116.1
X136.241Y-80.753
X136.275Y-108.2
X136.3Y-89.4
X136.447Y-91.947
X136.55Y-146.05
X136.6Y-125.8
X137.0Y-122.096
X137.0Y-119.0
X138.5Y-80.2
X138.6Y-146.5
X139.0Y-119.124
X139.25Y-73.75
X139.342Y-122.558
X139.5Y-88.0
X139.5Y-118.5
X139.5Y-120.0
X139.557Y-154.233
X139.668Y-123.732
X140.4Y-89.7
X141.3Y-98.8
X141.5Y-115.388
X142.0Y-84.5
X142.2Y-119.5
X142.25Y-112.5
X142.5Y-72.6
X142.5Y-121.25
X143.0Y-114.5
X143.5Y-84.5
X144.0Y-87.0
X144.1Y-116.8
X144.8Y-70.1
X144.934Y-79.934
X145.0Y-77.0
X145.0Y-78.5
X145.0Y-109.5
X145.0Y-123.5
X145.25Y-65.1
X145.5Y-80.5
X145.8Y-153.3
X147.5Y-83.0
X147.5Y-96.5
X147.5Y-119.0
X147.5Y-134.0
X148.0Y-91.5
X148.5Y-90.303
X149.0Y-112.0
X149.8Y-150.8
X150.3Y-77.5
X150.5Y-90.5
X150.5Y-100.5
X150.9Y-82.83
X151.5Y-78.0
X151.5Y-85.0
X151.5Y-153.0
X152.5Y-121.25
X152.75Y-112.5
X153.175Y-82.23
X153.8Y-124.7
X154.1Y-81.1
T4
X150.16Y-63.0
X150.5Y-68.9
X151.43Y-63.0
X152.5Y-68.9
X152.7Y-63.0
T5
X124.0Y-127.5
X124.0Y-149.5
X126.0Y-127.5
X126.0Y-149.5
X128.0Y-127.5
X128.0Y-149.5
X130.0Y-127.5
X130.0Y-149.5
X132.0Y-127.5
X132.0Y-149.5
X134.0Y-127.5
X134.0Y-149.5
X136.0Y-127.5
X136.0Y-149.5
X138.0Y-127.5
X138.0Y-149.5
X140.0Y-127.5
X140.0Y-149.5
X142.0Y-127.5
X142.0Y-149.5
T6
X135.0Y-86.52
X137.5Y-86.52
X140.0Y-86.52
X146.23Y-92.75
X146.23Y-95.25
X146.23Y-97.75
T7
X134.25Y-101.0
X134.25Y-105.5
X140.75Y-101.0
X140.75Y-105.5
T8
X131.175Y-90.25
X131.175Y-100.25
X143.825Y-90.25
X143.825Y-100.25
T3
G00X133.18Y-153.42
M15
G01X133.18Y-154.52
M16
G05
G00X133.18Y-157.85
M15
G01X133.18Y-158.45
M16
G05
G00X141.82Y-153.42
M15
G01X141.82Y-154.52
M16
G05
G00X141.82Y-157.85
M15
G01X141.82Y-158.45
M16
G05
M30
