%TF.GenerationSoftware,KiCad,Pcbnew,10.0.5*%
%TF.CreationDate,2026-08-28T22:32:12-07:00*%
%TF.ProjectId,snips_controller,736e6970-735f-4636-9f6e-74726f6c6c65,rev?*%
%TF.SameCoordinates,Original*%
%TF.FileFunction,Legend,Bot*%
%TF.FilePolarity,Positive*%
%FSLAX46Y46*%
G04 Gerber Fmt 4.6, Leading zero omitted, Abs format (unit mm)*
G04 Created by KiCad (PCBNEW 10.0.5) date 2026-08-28 22:32:12*
%MOMM*%
%LPD*%
G01*
G04 APERTURE LIST*
%ADD10C,0.100000*%
%ADD11C,0.120000*%
%ADD12C,0.000000*%
%ADD13C,0.200000*%
G04 APERTURE END LIST*
D10*
X152414856Y-115856265D02*
X152462475Y-115999122D01*
X152462475Y-115999122D02*
X152462475Y-116237217D01*
X152462475Y-116237217D02*
X152414856Y-116332455D01*
X152414856Y-116332455D02*
X152367236Y-116380074D01*
X152367236Y-116380074D02*
X152271998Y-116427693D01*
X152271998Y-116427693D02*
X152176760Y-116427693D01*
X152176760Y-116427693D02*
X152081522Y-116380074D01*
X152081522Y-116380074D02*
X152033903Y-116332455D01*
X152033903Y-116332455D02*
X151986284Y-116237217D01*
X151986284Y-116237217D02*
X151938665Y-116046741D01*
X151938665Y-116046741D02*
X151891046Y-115951503D01*
X151891046Y-115951503D02*
X151843427Y-115903884D01*
X151843427Y-115903884D02*
X151748189Y-115856265D01*
X151748189Y-115856265D02*
X151652951Y-115856265D01*
X151652951Y-115856265D02*
X151557713Y-115903884D01*
X151557713Y-115903884D02*
X151510094Y-115951503D01*
X151510094Y-115951503D02*
X151462475Y-116046741D01*
X151462475Y-116046741D02*
X151462475Y-116284836D01*
X151462475Y-116284836D02*
X151510094Y-116427693D01*
X151795808Y-116856265D02*
X152462475Y-116856265D01*
X151891046Y-116856265D02*
X151843427Y-116903884D01*
X151843427Y-116903884D02*
X151795808Y-116999122D01*
X151795808Y-116999122D02*
X151795808Y-117141979D01*
X151795808Y-117141979D02*
X151843427Y-117237217D01*
X151843427Y-117237217D02*
X151938665Y-117284836D01*
X151938665Y-117284836D02*
X152462475Y-117284836D01*
X152462475Y-117761027D02*
X151795808Y-117761027D01*
X151462475Y-117761027D02*
X151510094Y-117713408D01*
X151510094Y-117713408D02*
X151557713Y-117761027D01*
X151557713Y-117761027D02*
X151510094Y-117808646D01*
X151510094Y-117808646D02*
X151462475Y-117761027D01*
X151462475Y-117761027D02*
X151557713Y-117761027D01*
X151795808Y-118237217D02*
X152795808Y-118237217D01*
X151843427Y-118237217D02*
X151795808Y-118332455D01*
X151795808Y-118332455D02*
X151795808Y-118522931D01*
X151795808Y-118522931D02*
X151843427Y-118618169D01*
X151843427Y-118618169D02*
X151891046Y-118665788D01*
X151891046Y-118665788D02*
X151986284Y-118713407D01*
X151986284Y-118713407D02*
X152271998Y-118713407D01*
X152271998Y-118713407D02*
X152367236Y-118665788D01*
X152367236Y-118665788D02*
X152414856Y-118618169D01*
X152414856Y-118618169D02*
X152462475Y-118522931D01*
X152462475Y-118522931D02*
X152462475Y-118332455D01*
X152462475Y-118332455D02*
X152414856Y-118237217D01*
X152414856Y-119094360D02*
X152462475Y-119189598D01*
X152462475Y-119189598D02*
X152462475Y-119380074D01*
X152462475Y-119380074D02*
X152414856Y-119475312D01*
X152414856Y-119475312D02*
X152319617Y-119522931D01*
X152319617Y-119522931D02*
X152271998Y-119522931D01*
X152271998Y-119522931D02*
X152176760Y-119475312D01*
X152176760Y-119475312D02*
X152129141Y-119380074D01*
X152129141Y-119380074D02*
X152129141Y-119237217D01*
X152129141Y-119237217D02*
X152081522Y-119141979D01*
X152081522Y-119141979D02*
X151986284Y-119094360D01*
X151986284Y-119094360D02*
X151938665Y-119094360D01*
X151938665Y-119094360D02*
X151843427Y-119141979D01*
X151843427Y-119141979D02*
X151795808Y-119237217D01*
X151795808Y-119237217D02*
X151795808Y-119380074D01*
X151795808Y-119380074D02*
X151843427Y-119475312D01*
X152367236Y-121284836D02*
X152414856Y-121237217D01*
X152414856Y-121237217D02*
X152462475Y-121094360D01*
X152462475Y-121094360D02*
X152462475Y-120999122D01*
X152462475Y-120999122D02*
X152414856Y-120856265D01*
X152414856Y-120856265D02*
X152319617Y-120761027D01*
X152319617Y-120761027D02*
X152224379Y-120713408D01*
X152224379Y-120713408D02*
X152033903Y-120665789D01*
X152033903Y-120665789D02*
X151891046Y-120665789D01*
X151891046Y-120665789D02*
X151700570Y-120713408D01*
X151700570Y-120713408D02*
X151605332Y-120761027D01*
X151605332Y-120761027D02*
X151510094Y-120856265D01*
X151510094Y-120856265D02*
X151462475Y-120999122D01*
X151462475Y-120999122D02*
X151462475Y-121094360D01*
X151462475Y-121094360D02*
X151510094Y-121237217D01*
X151510094Y-121237217D02*
X151557713Y-121284836D01*
X152462475Y-121856265D02*
X152414856Y-121761027D01*
X152414856Y-121761027D02*
X152367236Y-121713408D01*
X152367236Y-121713408D02*
X152271998Y-121665789D01*
X152271998Y-121665789D02*
X151986284Y-121665789D01*
X151986284Y-121665789D02*
X151891046Y-121713408D01*
X151891046Y-121713408D02*
X151843427Y-121761027D01*
X151843427Y-121761027D02*
X151795808Y-121856265D01*
X151795808Y-121856265D02*
X151795808Y-121999122D01*
X151795808Y-121999122D02*
X151843427Y-122094360D01*
X151843427Y-122094360D02*
X151891046Y-122141979D01*
X151891046Y-122141979D02*
X151986284Y-122189598D01*
X151986284Y-122189598D02*
X152271998Y-122189598D01*
X152271998Y-122189598D02*
X152367236Y-122141979D01*
X152367236Y-122141979D02*
X152414856Y-122094360D01*
X152414856Y-122094360D02*
X152462475Y-121999122D01*
X152462475Y-121999122D02*
X152462475Y-121856265D01*
X151795808Y-122618170D02*
X152462475Y-122618170D01*
X151891046Y-122618170D02*
X151843427Y-122665789D01*
X151843427Y-122665789D02*
X151795808Y-122761027D01*
X151795808Y-122761027D02*
X151795808Y-122903884D01*
X151795808Y-122903884D02*
X151843427Y-122999122D01*
X151843427Y-122999122D02*
X151938665Y-123046741D01*
X151938665Y-123046741D02*
X152462475Y-123046741D01*
X151795808Y-123380075D02*
X151795808Y-123761027D01*
X151462475Y-123522932D02*
X152319617Y-123522932D01*
X152319617Y-123522932D02*
X152414856Y-123570551D01*
X152414856Y-123570551D02*
X152462475Y-123665789D01*
X152462475Y-123665789D02*
X152462475Y-123761027D01*
X152462475Y-124094361D02*
X151795808Y-124094361D01*
X151986284Y-124094361D02*
X151891046Y-124141980D01*
X151891046Y-124141980D02*
X151843427Y-124189599D01*
X151843427Y-124189599D02*
X151795808Y-124284837D01*
X151795808Y-124284837D02*
X151795808Y-124380075D01*
X152462475Y-124856266D02*
X152414856Y-124761028D01*
X152414856Y-124761028D02*
X152367236Y-124713409D01*
X152367236Y-124713409D02*
X152271998Y-124665790D01*
X152271998Y-124665790D02*
X151986284Y-124665790D01*
X151986284Y-124665790D02*
X151891046Y-124713409D01*
X151891046Y-124713409D02*
X151843427Y-124761028D01*
X151843427Y-124761028D02*
X151795808Y-124856266D01*
X151795808Y-124856266D02*
X151795808Y-124999123D01*
X151795808Y-124999123D02*
X151843427Y-125094361D01*
X151843427Y-125094361D02*
X151891046Y-125141980D01*
X151891046Y-125141980D02*
X151986284Y-125189599D01*
X151986284Y-125189599D02*
X152271998Y-125189599D01*
X152271998Y-125189599D02*
X152367236Y-125141980D01*
X152367236Y-125141980D02*
X152414856Y-125094361D01*
X152414856Y-125094361D02*
X152462475Y-124999123D01*
X152462475Y-124999123D02*
X152462475Y-124856266D01*
X152462475Y-125761028D02*
X152414856Y-125665790D01*
X152414856Y-125665790D02*
X152319617Y-125618171D01*
X152319617Y-125618171D02*
X151462475Y-125618171D01*
X152462475Y-126284838D02*
X152414856Y-126189600D01*
X152414856Y-126189600D02*
X152319617Y-126141981D01*
X152319617Y-126141981D02*
X151462475Y-126141981D01*
X152414856Y-127046743D02*
X152462475Y-126951505D01*
X152462475Y-126951505D02*
X152462475Y-126761029D01*
X152462475Y-126761029D02*
X152414856Y-126665791D01*
X152414856Y-126665791D02*
X152319617Y-126618172D01*
X152319617Y-126618172D02*
X151938665Y-126618172D01*
X151938665Y-126618172D02*
X151843427Y-126665791D01*
X151843427Y-126665791D02*
X151795808Y-126761029D01*
X151795808Y-126761029D02*
X151795808Y-126951505D01*
X151795808Y-126951505D02*
X151843427Y-127046743D01*
X151843427Y-127046743D02*
X151938665Y-127094362D01*
X151938665Y-127094362D02*
X152033903Y-127094362D01*
X152033903Y-127094362D02*
X152129141Y-126618172D01*
X152462475Y-127522934D02*
X151795808Y-127522934D01*
X151986284Y-127522934D02*
X151891046Y-127570553D01*
X151891046Y-127570553D02*
X151843427Y-127618172D01*
X151843427Y-127618172D02*
X151795808Y-127713410D01*
X151795808Y-127713410D02*
X151795808Y-127808648D01*
X152414856Y-128094363D02*
X152462475Y-128189601D01*
X152462475Y-128189601D02*
X152462475Y-128380077D01*
X152462475Y-128380077D02*
X152414856Y-128475315D01*
X152414856Y-128475315D02*
X152319617Y-128522934D01*
X152319617Y-128522934D02*
X152271998Y-128522934D01*
X152271998Y-128522934D02*
X152176760Y-128475315D01*
X152176760Y-128475315D02*
X152129141Y-128380077D01*
X152129141Y-128380077D02*
X152129141Y-128237220D01*
X152129141Y-128237220D02*
X152081522Y-128141982D01*
X152081522Y-128141982D02*
X151986284Y-128094363D01*
X151986284Y-128094363D02*
X151938665Y-128094363D01*
X151938665Y-128094363D02*
X151843427Y-128141982D01*
X151843427Y-128141982D02*
X151795808Y-128237220D01*
X151795808Y-128237220D02*
X151795808Y-128380077D01*
X151795808Y-128380077D02*
X151843427Y-128475315D01*
X151462475Y-129570554D02*
X152462475Y-129903887D01*
X152462475Y-129903887D02*
X151462475Y-130237220D01*
X152462475Y-131094363D02*
X152462475Y-130522935D01*
X152462475Y-130808649D02*
X151462475Y-130808649D01*
X151462475Y-130808649D02*
X151605332Y-130713411D01*
X151605332Y-130713411D02*
X151700570Y-130618173D01*
X151700570Y-130618173D02*
X151748189Y-130522935D01*
X152367236Y-131522935D02*
X152414856Y-131570554D01*
X152414856Y-131570554D02*
X152462475Y-131522935D01*
X152462475Y-131522935D02*
X152414856Y-131475316D01*
X152414856Y-131475316D02*
X152367236Y-131522935D01*
X152367236Y-131522935D02*
X152462475Y-131522935D01*
X151462475Y-132189601D02*
X151462475Y-132284839D01*
X151462475Y-132284839D02*
X151510094Y-132380077D01*
X151510094Y-132380077D02*
X151557713Y-132427696D01*
X151557713Y-132427696D02*
X151652951Y-132475315D01*
X151652951Y-132475315D02*
X151843427Y-132522934D01*
X151843427Y-132522934D02*
X152081522Y-132522934D01*
X152081522Y-132522934D02*
X152271998Y-132475315D01*
X152271998Y-132475315D02*
X152367236Y-132427696D01*
X152367236Y-132427696D02*
X152414856Y-132380077D01*
X152414856Y-132380077D02*
X152462475Y-132284839D01*
X152462475Y-132284839D02*
X152462475Y-132189601D01*
X152462475Y-132189601D02*
X152414856Y-132094363D01*
X152414856Y-132094363D02*
X152367236Y-132046744D01*
X152367236Y-132046744D02*
X152271998Y-131999125D01*
X152271998Y-131999125D02*
X152081522Y-131951506D01*
X152081522Y-131951506D02*
X151843427Y-131951506D01*
X151843427Y-131951506D02*
X151652951Y-131999125D01*
X151652951Y-131999125D02*
X151557713Y-132046744D01*
X151557713Y-132046744D02*
X151510094Y-132094363D01*
X151510094Y-132094363D02*
X151462475Y-132189601D01*
X152462475Y-133713411D02*
X151462475Y-133713411D01*
X151843427Y-133713411D02*
X151795808Y-133808649D01*
X151795808Y-133808649D02*
X151795808Y-133999125D01*
X151795808Y-133999125D02*
X151843427Y-134094363D01*
X151843427Y-134094363D02*
X151891046Y-134141982D01*
X151891046Y-134141982D02*
X151986284Y-134189601D01*
X151986284Y-134189601D02*
X152271998Y-134189601D01*
X152271998Y-134189601D02*
X152367236Y-134141982D01*
X152367236Y-134141982D02*
X152414856Y-134094363D01*
X152414856Y-134094363D02*
X152462475Y-133999125D01*
X152462475Y-133999125D02*
X152462475Y-133808649D01*
X152462475Y-133808649D02*
X152414856Y-133713411D01*
X151795808Y-134522935D02*
X152462475Y-134761030D01*
X151795808Y-134999125D02*
X152462475Y-134761030D01*
X152462475Y-134761030D02*
X152700570Y-134665792D01*
X152700570Y-134665792D02*
X152748189Y-134618173D01*
X152748189Y-134618173D02*
X152795808Y-134522935D01*
X151986284Y-136761030D02*
X151938665Y-136713411D01*
X151938665Y-136713411D02*
X151891046Y-136618173D01*
X151891046Y-136618173D02*
X151891046Y-136522935D01*
X151891046Y-136522935D02*
X151938665Y-136427697D01*
X151938665Y-136427697D02*
X151986284Y-136380078D01*
X151986284Y-136380078D02*
X152081522Y-136332459D01*
X152081522Y-136332459D02*
X152176760Y-136332459D01*
X152176760Y-136332459D02*
X152271998Y-136380078D01*
X152271998Y-136380078D02*
X152319617Y-136427697D01*
X152319617Y-136427697D02*
X152367236Y-136522935D01*
X152367236Y-136522935D02*
X152367236Y-136618173D01*
X152367236Y-136618173D02*
X152319617Y-136713411D01*
X152319617Y-136713411D02*
X152271998Y-136761030D01*
X151891046Y-136761030D02*
X152271998Y-136761030D01*
X152271998Y-136761030D02*
X152319617Y-136808649D01*
X152319617Y-136808649D02*
X152319617Y-136856268D01*
X152319617Y-136856268D02*
X152271998Y-136951507D01*
X152271998Y-136951507D02*
X152176760Y-136999126D01*
X152176760Y-136999126D02*
X151938665Y-136999126D01*
X151938665Y-136999126D02*
X151795808Y-136903888D01*
X151795808Y-136903888D02*
X151700570Y-136761030D01*
X151700570Y-136761030D02*
X151652951Y-136570554D01*
X151652951Y-136570554D02*
X151700570Y-136380078D01*
X151700570Y-136380078D02*
X151795808Y-136237221D01*
X151795808Y-136237221D02*
X151938665Y-136141983D01*
X151938665Y-136141983D02*
X152129141Y-136094364D01*
X152129141Y-136094364D02*
X152319617Y-136141983D01*
X152319617Y-136141983D02*
X152462475Y-136237221D01*
X152462475Y-136237221D02*
X152557713Y-136380078D01*
X152557713Y-136380078D02*
X152605332Y-136570554D01*
X152605332Y-136570554D02*
X152557713Y-136761030D01*
X152557713Y-136761030D02*
X152462475Y-136903888D01*
X151795808Y-137284840D02*
X151795808Y-137665792D01*
X151462475Y-137427697D02*
X152319617Y-137427697D01*
X152319617Y-137427697D02*
X152414856Y-137475316D01*
X152414856Y-137475316D02*
X152462475Y-137570554D01*
X152462475Y-137570554D02*
X152462475Y-137665792D01*
X152462475Y-137999126D02*
X151462475Y-137999126D01*
X152462475Y-138427697D02*
X151938665Y-138427697D01*
X151938665Y-138427697D02*
X151843427Y-138380078D01*
X151843427Y-138380078D02*
X151795808Y-138284840D01*
X151795808Y-138284840D02*
X151795808Y-138141983D01*
X151795808Y-138141983D02*
X151843427Y-138046745D01*
X151843427Y-138046745D02*
X151891046Y-137999126D01*
X152414856Y-139284840D02*
X152462475Y-139189602D01*
X152462475Y-139189602D02*
X152462475Y-138999126D01*
X152462475Y-138999126D02*
X152414856Y-138903888D01*
X152414856Y-138903888D02*
X152319617Y-138856269D01*
X152319617Y-138856269D02*
X151938665Y-138856269D01*
X151938665Y-138856269D02*
X151843427Y-138903888D01*
X151843427Y-138903888D02*
X151795808Y-138999126D01*
X151795808Y-138999126D02*
X151795808Y-139189602D01*
X151795808Y-139189602D02*
X151843427Y-139284840D01*
X151843427Y-139284840D02*
X151938665Y-139332459D01*
X151938665Y-139332459D02*
X152033903Y-139332459D01*
X152033903Y-139332459D02*
X152129141Y-138856269D01*
X152462475Y-139761031D02*
X151462475Y-139761031D01*
X151462475Y-139761031D02*
X151462475Y-140141983D01*
X151462475Y-140141983D02*
X151510094Y-140237221D01*
X151510094Y-140237221D02*
X151557713Y-140284840D01*
X151557713Y-140284840D02*
X151652951Y-140332459D01*
X151652951Y-140332459D02*
X151795808Y-140332459D01*
X151795808Y-140332459D02*
X151891046Y-140284840D01*
X151891046Y-140284840D02*
X151938665Y-140237221D01*
X151938665Y-140237221D02*
X151986284Y-140141983D01*
X151986284Y-140141983D02*
X151986284Y-139761031D01*
X151795808Y-141189602D02*
X152462475Y-141189602D01*
X151795808Y-140761031D02*
X152319617Y-140761031D01*
X152319617Y-140761031D02*
X152414856Y-140808650D01*
X152414856Y-140808650D02*
X152462475Y-140903888D01*
X152462475Y-140903888D02*
X152462475Y-141046745D01*
X152462475Y-141046745D02*
X152414856Y-141141983D01*
X152414856Y-141141983D02*
X152367236Y-141189602D01*
X151795808Y-141665793D02*
X152462475Y-141665793D01*
X151891046Y-141665793D02*
X151843427Y-141713412D01*
X151843427Y-141713412D02*
X151795808Y-141808650D01*
X151795808Y-141808650D02*
X151795808Y-141951507D01*
X151795808Y-141951507D02*
X151843427Y-142046745D01*
X151843427Y-142046745D02*
X151938665Y-142094364D01*
X151938665Y-142094364D02*
X152462475Y-142094364D01*
X152462475Y-142999126D02*
X151462475Y-142999126D01*
X152414856Y-142999126D02*
X152462475Y-142903888D01*
X152462475Y-142903888D02*
X152462475Y-142713412D01*
X152462475Y-142713412D02*
X152414856Y-142618174D01*
X152414856Y-142618174D02*
X152367236Y-142570555D01*
X152367236Y-142570555D02*
X152271998Y-142522936D01*
X152271998Y-142522936D02*
X151986284Y-142522936D01*
X151986284Y-142522936D02*
X151891046Y-142570555D01*
X151891046Y-142570555D02*
X151843427Y-142618174D01*
X151843427Y-142618174D02*
X151795808Y-142713412D01*
X151795808Y-142713412D02*
X151795808Y-142903888D01*
X151795808Y-142903888D02*
X151843427Y-142999126D01*
X152414856Y-143856269D02*
X152462475Y-143761031D01*
X152462475Y-143761031D02*
X152462475Y-143570555D01*
X152462475Y-143570555D02*
X152414856Y-143475317D01*
X152414856Y-143475317D02*
X152319617Y-143427698D01*
X152319617Y-143427698D02*
X151938665Y-143427698D01*
X151938665Y-143427698D02*
X151843427Y-143475317D01*
X151843427Y-143475317D02*
X151795808Y-143570555D01*
X151795808Y-143570555D02*
X151795808Y-143761031D01*
X151795808Y-143761031D02*
X151843427Y-143856269D01*
X151843427Y-143856269D02*
X151938665Y-143903888D01*
X151938665Y-143903888D02*
X152033903Y-143903888D01*
X152033903Y-143903888D02*
X152129141Y-143427698D01*
X152462475Y-144332460D02*
X151795808Y-144332460D01*
X151986284Y-144332460D02*
X151891046Y-144380079D01*
X151891046Y-144380079D02*
X151843427Y-144427698D01*
X151843427Y-144427698D02*
X151795808Y-144522936D01*
X151795808Y-144522936D02*
X151795808Y-144618174D01*
X151462475Y-144856270D02*
X152462475Y-145094365D01*
X152462475Y-145094365D02*
X151748189Y-145284841D01*
X151748189Y-145284841D02*
X152462475Y-145475317D01*
X152462475Y-145475317D02*
X151462475Y-145713413D01*
X152462475Y-146237222D02*
X152414856Y-146141984D01*
X152414856Y-146141984D02*
X152367236Y-146094365D01*
X152367236Y-146094365D02*
X152271998Y-146046746D01*
X152271998Y-146046746D02*
X151986284Y-146046746D01*
X151986284Y-146046746D02*
X151891046Y-146094365D01*
X151891046Y-146094365D02*
X151843427Y-146141984D01*
X151843427Y-146141984D02*
X151795808Y-146237222D01*
X151795808Y-146237222D02*
X151795808Y-146380079D01*
X151795808Y-146380079D02*
X151843427Y-146475317D01*
X151843427Y-146475317D02*
X151891046Y-146522936D01*
X151891046Y-146522936D02*
X151986284Y-146570555D01*
X151986284Y-146570555D02*
X152271998Y-146570555D01*
X152271998Y-146570555D02*
X152367236Y-146522936D01*
X152367236Y-146522936D02*
X152414856Y-146475317D01*
X152414856Y-146475317D02*
X152462475Y-146380079D01*
X152462475Y-146380079D02*
X152462475Y-146237222D01*
X152462475Y-146999127D02*
X151795808Y-146999127D01*
X151891046Y-146999127D02*
X151843427Y-147046746D01*
X151843427Y-147046746D02*
X151795808Y-147141984D01*
X151795808Y-147141984D02*
X151795808Y-147284841D01*
X151795808Y-147284841D02*
X151843427Y-147380079D01*
X151843427Y-147380079D02*
X151938665Y-147427698D01*
X151938665Y-147427698D02*
X152462475Y-147427698D01*
X151938665Y-147427698D02*
X151843427Y-147475317D01*
X151843427Y-147475317D02*
X151795808Y-147570555D01*
X151795808Y-147570555D02*
X151795808Y-147713412D01*
X151795808Y-147713412D02*
X151843427Y-147808651D01*
X151843427Y-147808651D02*
X151938665Y-147856270D01*
X151938665Y-147856270D02*
X152462475Y-147856270D01*
X152462475Y-148761031D02*
X151938665Y-148761031D01*
X151938665Y-148761031D02*
X151843427Y-148713412D01*
X151843427Y-148713412D02*
X151795808Y-148618174D01*
X151795808Y-148618174D02*
X151795808Y-148427698D01*
X151795808Y-148427698D02*
X151843427Y-148332460D01*
X152414856Y-148761031D02*
X152462475Y-148665793D01*
X152462475Y-148665793D02*
X152462475Y-148427698D01*
X152462475Y-148427698D02*
X152414856Y-148332460D01*
X152414856Y-148332460D02*
X152319617Y-148284841D01*
X152319617Y-148284841D02*
X152224379Y-148284841D01*
X152224379Y-148284841D02*
X152129141Y-148332460D01*
X152129141Y-148332460D02*
X152081522Y-148427698D01*
X152081522Y-148427698D02*
X152081522Y-148665793D01*
X152081522Y-148665793D02*
X152033903Y-148761031D01*
X151795808Y-149237222D02*
X152462475Y-149237222D01*
X151891046Y-149237222D02*
X151843427Y-149284841D01*
X151843427Y-149284841D02*
X151795808Y-149380079D01*
X151795808Y-149380079D02*
X151795808Y-149522936D01*
X151795808Y-149522936D02*
X151843427Y-149618174D01*
X151843427Y-149618174D02*
X151938665Y-149665793D01*
X151938665Y-149665793D02*
X152462475Y-149665793D01*
X153405752Y-116332455D02*
X154215276Y-116332455D01*
X154215276Y-116332455D02*
X154310514Y-116284836D01*
X154310514Y-116284836D02*
X154358133Y-116237217D01*
X154358133Y-116237217D02*
X154405752Y-116141979D01*
X154405752Y-116141979D02*
X154405752Y-115999122D01*
X154405752Y-115999122D02*
X154358133Y-115903884D01*
X154024800Y-116332455D02*
X154072419Y-116237217D01*
X154072419Y-116237217D02*
X154072419Y-116046741D01*
X154072419Y-116046741D02*
X154024800Y-115951503D01*
X154024800Y-115951503D02*
X153977180Y-115903884D01*
X153977180Y-115903884D02*
X153881942Y-115856265D01*
X153881942Y-115856265D02*
X153596228Y-115856265D01*
X153596228Y-115856265D02*
X153500990Y-115903884D01*
X153500990Y-115903884D02*
X153453371Y-115951503D01*
X153453371Y-115951503D02*
X153405752Y-116046741D01*
X153405752Y-116046741D02*
X153405752Y-116237217D01*
X153405752Y-116237217D02*
X153453371Y-116332455D01*
X154072419Y-116808646D02*
X153405752Y-116808646D01*
X153072419Y-116808646D02*
X153120038Y-116761027D01*
X153120038Y-116761027D02*
X153167657Y-116808646D01*
X153167657Y-116808646D02*
X153120038Y-116856265D01*
X153120038Y-116856265D02*
X153072419Y-116808646D01*
X153072419Y-116808646D02*
X153167657Y-116808646D01*
X153405752Y-117141979D02*
X153405752Y-117522931D01*
X153072419Y-117284836D02*
X153929561Y-117284836D01*
X153929561Y-117284836D02*
X154024800Y-117332455D01*
X154024800Y-117332455D02*
X154072419Y-117427693D01*
X154072419Y-117427693D02*
X154072419Y-117522931D01*
X154072419Y-117856265D02*
X153072419Y-117856265D01*
X154072419Y-118284836D02*
X153548609Y-118284836D01*
X153548609Y-118284836D02*
X153453371Y-118237217D01*
X153453371Y-118237217D02*
X153405752Y-118141979D01*
X153405752Y-118141979D02*
X153405752Y-117999122D01*
X153405752Y-117999122D02*
X153453371Y-117903884D01*
X153453371Y-117903884D02*
X153500990Y-117856265D01*
X153405752Y-119189598D02*
X154072419Y-119189598D01*
X153405752Y-118761027D02*
X153929561Y-118761027D01*
X153929561Y-118761027D02*
X154024800Y-118808646D01*
X154024800Y-118808646D02*
X154072419Y-118903884D01*
X154072419Y-118903884D02*
X154072419Y-119046741D01*
X154072419Y-119046741D02*
X154024800Y-119141979D01*
X154024800Y-119141979D02*
X153977180Y-119189598D01*
X154072419Y-119665789D02*
X153072419Y-119665789D01*
X153453371Y-119665789D02*
X153405752Y-119761027D01*
X153405752Y-119761027D02*
X153405752Y-119951503D01*
X153405752Y-119951503D02*
X153453371Y-120046741D01*
X153453371Y-120046741D02*
X153500990Y-120094360D01*
X153500990Y-120094360D02*
X153596228Y-120141979D01*
X153596228Y-120141979D02*
X153881942Y-120141979D01*
X153881942Y-120141979D02*
X153977180Y-120094360D01*
X153977180Y-120094360D02*
X154024800Y-120046741D01*
X154024800Y-120046741D02*
X154072419Y-119951503D01*
X154072419Y-119951503D02*
X154072419Y-119761027D01*
X154072419Y-119761027D02*
X154024800Y-119665789D01*
X153977180Y-120570551D02*
X154024800Y-120618170D01*
X154024800Y-120618170D02*
X154072419Y-120570551D01*
X154072419Y-120570551D02*
X154024800Y-120522932D01*
X154024800Y-120522932D02*
X153977180Y-120570551D01*
X153977180Y-120570551D02*
X154072419Y-120570551D01*
X154024800Y-121475312D02*
X154072419Y-121380074D01*
X154072419Y-121380074D02*
X154072419Y-121189598D01*
X154072419Y-121189598D02*
X154024800Y-121094360D01*
X154024800Y-121094360D02*
X153977180Y-121046741D01*
X153977180Y-121046741D02*
X153881942Y-120999122D01*
X153881942Y-120999122D02*
X153596228Y-120999122D01*
X153596228Y-120999122D02*
X153500990Y-121046741D01*
X153500990Y-121046741D02*
X153453371Y-121094360D01*
X153453371Y-121094360D02*
X153405752Y-121189598D01*
X153405752Y-121189598D02*
X153405752Y-121380074D01*
X153405752Y-121380074D02*
X153453371Y-121475312D01*
X154072419Y-122046741D02*
X154024800Y-121951503D01*
X154024800Y-121951503D02*
X153977180Y-121903884D01*
X153977180Y-121903884D02*
X153881942Y-121856265D01*
X153881942Y-121856265D02*
X153596228Y-121856265D01*
X153596228Y-121856265D02*
X153500990Y-121903884D01*
X153500990Y-121903884D02*
X153453371Y-121951503D01*
X153453371Y-121951503D02*
X153405752Y-122046741D01*
X153405752Y-122046741D02*
X153405752Y-122189598D01*
X153405752Y-122189598D02*
X153453371Y-122284836D01*
X153453371Y-122284836D02*
X153500990Y-122332455D01*
X153500990Y-122332455D02*
X153596228Y-122380074D01*
X153596228Y-122380074D02*
X153881942Y-122380074D01*
X153881942Y-122380074D02*
X153977180Y-122332455D01*
X153977180Y-122332455D02*
X154024800Y-122284836D01*
X154024800Y-122284836D02*
X154072419Y-122189598D01*
X154072419Y-122189598D02*
X154072419Y-122046741D01*
X154072419Y-122808646D02*
X153405752Y-122808646D01*
X153500990Y-122808646D02*
X153453371Y-122856265D01*
X153453371Y-122856265D02*
X153405752Y-122951503D01*
X153405752Y-122951503D02*
X153405752Y-123094360D01*
X153405752Y-123094360D02*
X153453371Y-123189598D01*
X153453371Y-123189598D02*
X153548609Y-123237217D01*
X153548609Y-123237217D02*
X154072419Y-123237217D01*
X153548609Y-123237217D02*
X153453371Y-123284836D01*
X153453371Y-123284836D02*
X153405752Y-123380074D01*
X153405752Y-123380074D02*
X153405752Y-123522931D01*
X153405752Y-123522931D02*
X153453371Y-123618170D01*
X153453371Y-123618170D02*
X153548609Y-123665789D01*
X153548609Y-123665789D02*
X154072419Y-123665789D01*
X153024800Y-124856264D02*
X154310514Y-123999122D01*
X153405752Y-125046741D02*
X153405752Y-125427693D01*
X153072419Y-125189598D02*
X153929561Y-125189598D01*
X153929561Y-125189598D02*
X154024800Y-125237217D01*
X154024800Y-125237217D02*
X154072419Y-125332455D01*
X154072419Y-125332455D02*
X154072419Y-125427693D01*
X154072419Y-125761027D02*
X153072419Y-125761027D01*
X154072419Y-126189598D02*
X153548609Y-126189598D01*
X153548609Y-126189598D02*
X153453371Y-126141979D01*
X153453371Y-126141979D02*
X153405752Y-126046741D01*
X153405752Y-126046741D02*
X153405752Y-125903884D01*
X153405752Y-125903884D02*
X153453371Y-125808646D01*
X153453371Y-125808646D02*
X153500990Y-125761027D01*
X154024800Y-127046741D02*
X154072419Y-126951503D01*
X154072419Y-126951503D02*
X154072419Y-126761027D01*
X154072419Y-126761027D02*
X154024800Y-126665789D01*
X154024800Y-126665789D02*
X153929561Y-126618170D01*
X153929561Y-126618170D02*
X153548609Y-126618170D01*
X153548609Y-126618170D02*
X153453371Y-126665789D01*
X153453371Y-126665789D02*
X153405752Y-126761027D01*
X153405752Y-126761027D02*
X153405752Y-126951503D01*
X153405752Y-126951503D02*
X153453371Y-127046741D01*
X153453371Y-127046741D02*
X153548609Y-127094360D01*
X153548609Y-127094360D02*
X153643847Y-127094360D01*
X153643847Y-127094360D02*
X153739085Y-126618170D01*
X154072419Y-127522932D02*
X153072419Y-127522932D01*
X153072419Y-127522932D02*
X153072419Y-127903884D01*
X153072419Y-127903884D02*
X153120038Y-127999122D01*
X153120038Y-127999122D02*
X153167657Y-128046741D01*
X153167657Y-128046741D02*
X153262895Y-128094360D01*
X153262895Y-128094360D02*
X153405752Y-128094360D01*
X153405752Y-128094360D02*
X153500990Y-128046741D01*
X153500990Y-128046741D02*
X153548609Y-127999122D01*
X153548609Y-127999122D02*
X153596228Y-127903884D01*
X153596228Y-127903884D02*
X153596228Y-127522932D01*
X153405752Y-128951503D02*
X154072419Y-128951503D01*
X153405752Y-128522932D02*
X153929561Y-128522932D01*
X153929561Y-128522932D02*
X154024800Y-128570551D01*
X154024800Y-128570551D02*
X154072419Y-128665789D01*
X154072419Y-128665789D02*
X154072419Y-128808646D01*
X154072419Y-128808646D02*
X154024800Y-128903884D01*
X154024800Y-128903884D02*
X153977180Y-128951503D01*
X153405752Y-129427694D02*
X154072419Y-129427694D01*
X153500990Y-129427694D02*
X153453371Y-129475313D01*
X153453371Y-129475313D02*
X153405752Y-129570551D01*
X153405752Y-129570551D02*
X153405752Y-129713408D01*
X153405752Y-129713408D02*
X153453371Y-129808646D01*
X153453371Y-129808646D02*
X153548609Y-129856265D01*
X153548609Y-129856265D02*
X154072419Y-129856265D01*
X154072419Y-130761027D02*
X153072419Y-130761027D01*
X154024800Y-130761027D02*
X154072419Y-130665789D01*
X154072419Y-130665789D02*
X154072419Y-130475313D01*
X154072419Y-130475313D02*
X154024800Y-130380075D01*
X154024800Y-130380075D02*
X153977180Y-130332456D01*
X153977180Y-130332456D02*
X153881942Y-130284837D01*
X153881942Y-130284837D02*
X153596228Y-130284837D01*
X153596228Y-130284837D02*
X153500990Y-130332456D01*
X153500990Y-130332456D02*
X153453371Y-130380075D01*
X153453371Y-130380075D02*
X153405752Y-130475313D01*
X153405752Y-130475313D02*
X153405752Y-130665789D01*
X153405752Y-130665789D02*
X153453371Y-130761027D01*
X154024800Y-131618170D02*
X154072419Y-131522932D01*
X154072419Y-131522932D02*
X154072419Y-131332456D01*
X154072419Y-131332456D02*
X154024800Y-131237218D01*
X154024800Y-131237218D02*
X153929561Y-131189599D01*
X153929561Y-131189599D02*
X153548609Y-131189599D01*
X153548609Y-131189599D02*
X153453371Y-131237218D01*
X153453371Y-131237218D02*
X153405752Y-131332456D01*
X153405752Y-131332456D02*
X153405752Y-131522932D01*
X153405752Y-131522932D02*
X153453371Y-131618170D01*
X153453371Y-131618170D02*
X153548609Y-131665789D01*
X153548609Y-131665789D02*
X153643847Y-131665789D01*
X153643847Y-131665789D02*
X153739085Y-131189599D01*
X154072419Y-132094361D02*
X153405752Y-132094361D01*
X153596228Y-132094361D02*
X153500990Y-132141980D01*
X153500990Y-132141980D02*
X153453371Y-132189599D01*
X153453371Y-132189599D02*
X153405752Y-132284837D01*
X153405752Y-132284837D02*
X153405752Y-132380075D01*
X153072419Y-132618171D02*
X154072419Y-132856266D01*
X154072419Y-132856266D02*
X153358133Y-133046742D01*
X153358133Y-133046742D02*
X154072419Y-133237218D01*
X154072419Y-133237218D02*
X153072419Y-133475314D01*
X154072419Y-133999123D02*
X154024800Y-133903885D01*
X154024800Y-133903885D02*
X153977180Y-133856266D01*
X153977180Y-133856266D02*
X153881942Y-133808647D01*
X153881942Y-133808647D02*
X153596228Y-133808647D01*
X153596228Y-133808647D02*
X153500990Y-133856266D01*
X153500990Y-133856266D02*
X153453371Y-133903885D01*
X153453371Y-133903885D02*
X153405752Y-133999123D01*
X153405752Y-133999123D02*
X153405752Y-134141980D01*
X153405752Y-134141980D02*
X153453371Y-134237218D01*
X153453371Y-134237218D02*
X153500990Y-134284837D01*
X153500990Y-134284837D02*
X153596228Y-134332456D01*
X153596228Y-134332456D02*
X153881942Y-134332456D01*
X153881942Y-134332456D02*
X153977180Y-134284837D01*
X153977180Y-134284837D02*
X154024800Y-134237218D01*
X154024800Y-134237218D02*
X154072419Y-134141980D01*
X154072419Y-134141980D02*
X154072419Y-133999123D01*
X154072419Y-134761028D02*
X153405752Y-134761028D01*
X153500990Y-134761028D02*
X153453371Y-134808647D01*
X153453371Y-134808647D02*
X153405752Y-134903885D01*
X153405752Y-134903885D02*
X153405752Y-135046742D01*
X153405752Y-135046742D02*
X153453371Y-135141980D01*
X153453371Y-135141980D02*
X153548609Y-135189599D01*
X153548609Y-135189599D02*
X154072419Y-135189599D01*
X153548609Y-135189599D02*
X153453371Y-135237218D01*
X153453371Y-135237218D02*
X153405752Y-135332456D01*
X153405752Y-135332456D02*
X153405752Y-135475313D01*
X153405752Y-135475313D02*
X153453371Y-135570552D01*
X153453371Y-135570552D02*
X153548609Y-135618171D01*
X153548609Y-135618171D02*
X154072419Y-135618171D01*
X154072419Y-136522932D02*
X153548609Y-136522932D01*
X153548609Y-136522932D02*
X153453371Y-136475313D01*
X153453371Y-136475313D02*
X153405752Y-136380075D01*
X153405752Y-136380075D02*
X153405752Y-136189599D01*
X153405752Y-136189599D02*
X153453371Y-136094361D01*
X154024800Y-136522932D02*
X154072419Y-136427694D01*
X154072419Y-136427694D02*
X154072419Y-136189599D01*
X154072419Y-136189599D02*
X154024800Y-136094361D01*
X154024800Y-136094361D02*
X153929561Y-136046742D01*
X153929561Y-136046742D02*
X153834323Y-136046742D01*
X153834323Y-136046742D02*
X153739085Y-136094361D01*
X153739085Y-136094361D02*
X153691466Y-136189599D01*
X153691466Y-136189599D02*
X153691466Y-136427694D01*
X153691466Y-136427694D02*
X153643847Y-136522932D01*
X153405752Y-136999123D02*
X154072419Y-136999123D01*
X153500990Y-136999123D02*
X153453371Y-137046742D01*
X153453371Y-137046742D02*
X153405752Y-137141980D01*
X153405752Y-137141980D02*
X153405752Y-137284837D01*
X153405752Y-137284837D02*
X153453371Y-137380075D01*
X153453371Y-137380075D02*
X153548609Y-137427694D01*
X153548609Y-137427694D02*
X154072419Y-137427694D01*
X153024800Y-138618170D02*
X154310514Y-137761028D01*
X154024800Y-138903885D02*
X154072419Y-139046742D01*
X154072419Y-139046742D02*
X154072419Y-139284837D01*
X154072419Y-139284837D02*
X154024800Y-139380075D01*
X154024800Y-139380075D02*
X153977180Y-139427694D01*
X153977180Y-139427694D02*
X153881942Y-139475313D01*
X153881942Y-139475313D02*
X153786704Y-139475313D01*
X153786704Y-139475313D02*
X153691466Y-139427694D01*
X153691466Y-139427694D02*
X153643847Y-139380075D01*
X153643847Y-139380075D02*
X153596228Y-139284837D01*
X153596228Y-139284837D02*
X153548609Y-139094361D01*
X153548609Y-139094361D02*
X153500990Y-138999123D01*
X153500990Y-138999123D02*
X153453371Y-138951504D01*
X153453371Y-138951504D02*
X153358133Y-138903885D01*
X153358133Y-138903885D02*
X153262895Y-138903885D01*
X153262895Y-138903885D02*
X153167657Y-138951504D01*
X153167657Y-138951504D02*
X153120038Y-138999123D01*
X153120038Y-138999123D02*
X153072419Y-139094361D01*
X153072419Y-139094361D02*
X153072419Y-139332456D01*
X153072419Y-139332456D02*
X153120038Y-139475313D01*
X153405752Y-139903885D02*
X154072419Y-139903885D01*
X153500990Y-139903885D02*
X153453371Y-139951504D01*
X153453371Y-139951504D02*
X153405752Y-140046742D01*
X153405752Y-140046742D02*
X153405752Y-140189599D01*
X153405752Y-140189599D02*
X153453371Y-140284837D01*
X153453371Y-140284837D02*
X153548609Y-140332456D01*
X153548609Y-140332456D02*
X154072419Y-140332456D01*
X154072419Y-140808647D02*
X153405752Y-140808647D01*
X153072419Y-140808647D02*
X153120038Y-140761028D01*
X153120038Y-140761028D02*
X153167657Y-140808647D01*
X153167657Y-140808647D02*
X153120038Y-140856266D01*
X153120038Y-140856266D02*
X153072419Y-140808647D01*
X153072419Y-140808647D02*
X153167657Y-140808647D01*
X153405752Y-141284837D02*
X154405752Y-141284837D01*
X153453371Y-141284837D02*
X153405752Y-141380075D01*
X153405752Y-141380075D02*
X153405752Y-141570551D01*
X153405752Y-141570551D02*
X153453371Y-141665789D01*
X153453371Y-141665789D02*
X153500990Y-141713408D01*
X153500990Y-141713408D02*
X153596228Y-141761027D01*
X153596228Y-141761027D02*
X153881942Y-141761027D01*
X153881942Y-141761027D02*
X153977180Y-141713408D01*
X153977180Y-141713408D02*
X154024800Y-141665789D01*
X154024800Y-141665789D02*
X154072419Y-141570551D01*
X154072419Y-141570551D02*
X154072419Y-141380075D01*
X154072419Y-141380075D02*
X154024800Y-141284837D01*
X154024800Y-142141980D02*
X154072419Y-142237218D01*
X154072419Y-142237218D02*
X154072419Y-142427694D01*
X154072419Y-142427694D02*
X154024800Y-142522932D01*
X154024800Y-142522932D02*
X153929561Y-142570551D01*
X153929561Y-142570551D02*
X153881942Y-142570551D01*
X153881942Y-142570551D02*
X153786704Y-142522932D01*
X153786704Y-142522932D02*
X153739085Y-142427694D01*
X153739085Y-142427694D02*
X153739085Y-142284837D01*
X153739085Y-142284837D02*
X153691466Y-142189599D01*
X153691466Y-142189599D02*
X153596228Y-142141980D01*
X153596228Y-142141980D02*
X153548609Y-142141980D01*
X153548609Y-142141980D02*
X153453371Y-142189599D01*
X153453371Y-142189599D02*
X153405752Y-142284837D01*
X153405752Y-142284837D02*
X153405752Y-142427694D01*
X153405752Y-142427694D02*
X153453371Y-142522932D01*
X153977180Y-143570551D02*
X154024800Y-143522932D01*
X154024800Y-143522932D02*
X154072419Y-143380075D01*
X154072419Y-143380075D02*
X154072419Y-143284837D01*
X154072419Y-143284837D02*
X154024800Y-143141980D01*
X154024800Y-143141980D02*
X153929561Y-143046742D01*
X153929561Y-143046742D02*
X153834323Y-142999123D01*
X153834323Y-142999123D02*
X153643847Y-142951504D01*
X153643847Y-142951504D02*
X153500990Y-142951504D01*
X153500990Y-142951504D02*
X153310514Y-142999123D01*
X153310514Y-142999123D02*
X153215276Y-143046742D01*
X153215276Y-143046742D02*
X153120038Y-143141980D01*
X153120038Y-143141980D02*
X153072419Y-143284837D01*
X153072419Y-143284837D02*
X153072419Y-143380075D01*
X153072419Y-143380075D02*
X153120038Y-143522932D01*
X153120038Y-143522932D02*
X153167657Y-143570551D01*
X154072419Y-144141980D02*
X154024800Y-144046742D01*
X154024800Y-144046742D02*
X153977180Y-143999123D01*
X153977180Y-143999123D02*
X153881942Y-143951504D01*
X153881942Y-143951504D02*
X153596228Y-143951504D01*
X153596228Y-143951504D02*
X153500990Y-143999123D01*
X153500990Y-143999123D02*
X153453371Y-144046742D01*
X153453371Y-144046742D02*
X153405752Y-144141980D01*
X153405752Y-144141980D02*
X153405752Y-144284837D01*
X153405752Y-144284837D02*
X153453371Y-144380075D01*
X153453371Y-144380075D02*
X153500990Y-144427694D01*
X153500990Y-144427694D02*
X153596228Y-144475313D01*
X153596228Y-144475313D02*
X153881942Y-144475313D01*
X153881942Y-144475313D02*
X153977180Y-144427694D01*
X153977180Y-144427694D02*
X154024800Y-144380075D01*
X154024800Y-144380075D02*
X154072419Y-144284837D01*
X154072419Y-144284837D02*
X154072419Y-144141980D01*
X153405752Y-144903885D02*
X154072419Y-144903885D01*
X153500990Y-144903885D02*
X153453371Y-144951504D01*
X153453371Y-144951504D02*
X153405752Y-145046742D01*
X153405752Y-145046742D02*
X153405752Y-145189599D01*
X153405752Y-145189599D02*
X153453371Y-145284837D01*
X153453371Y-145284837D02*
X153548609Y-145332456D01*
X153548609Y-145332456D02*
X154072419Y-145332456D01*
X153405752Y-145665790D02*
X153405752Y-146046742D01*
X153072419Y-145808647D02*
X153929561Y-145808647D01*
X153929561Y-145808647D02*
X154024800Y-145856266D01*
X154024800Y-145856266D02*
X154072419Y-145951504D01*
X154072419Y-145951504D02*
X154072419Y-146046742D01*
X154072419Y-146380076D02*
X153405752Y-146380076D01*
X153596228Y-146380076D02*
X153500990Y-146427695D01*
X153500990Y-146427695D02*
X153453371Y-146475314D01*
X153453371Y-146475314D02*
X153405752Y-146570552D01*
X153405752Y-146570552D02*
X153405752Y-146665790D01*
X154072419Y-147141981D02*
X154024800Y-147046743D01*
X154024800Y-147046743D02*
X153977180Y-146999124D01*
X153977180Y-146999124D02*
X153881942Y-146951505D01*
X153881942Y-146951505D02*
X153596228Y-146951505D01*
X153596228Y-146951505D02*
X153500990Y-146999124D01*
X153500990Y-146999124D02*
X153453371Y-147046743D01*
X153453371Y-147046743D02*
X153405752Y-147141981D01*
X153405752Y-147141981D02*
X153405752Y-147284838D01*
X153405752Y-147284838D02*
X153453371Y-147380076D01*
X153453371Y-147380076D02*
X153500990Y-147427695D01*
X153500990Y-147427695D02*
X153596228Y-147475314D01*
X153596228Y-147475314D02*
X153881942Y-147475314D01*
X153881942Y-147475314D02*
X153977180Y-147427695D01*
X153977180Y-147427695D02*
X154024800Y-147380076D01*
X154024800Y-147380076D02*
X154072419Y-147284838D01*
X154072419Y-147284838D02*
X154072419Y-147141981D01*
X154072419Y-148046743D02*
X154024800Y-147951505D01*
X154024800Y-147951505D02*
X153929561Y-147903886D01*
X153929561Y-147903886D02*
X153072419Y-147903886D01*
X154072419Y-148570553D02*
X154024800Y-148475315D01*
X154024800Y-148475315D02*
X153929561Y-148427696D01*
X153929561Y-148427696D02*
X153072419Y-148427696D01*
X154024800Y-149332458D02*
X154072419Y-149237220D01*
X154072419Y-149237220D02*
X154072419Y-149046744D01*
X154072419Y-149046744D02*
X154024800Y-148951506D01*
X154024800Y-148951506D02*
X153929561Y-148903887D01*
X153929561Y-148903887D02*
X153548609Y-148903887D01*
X153548609Y-148903887D02*
X153453371Y-148951506D01*
X153453371Y-148951506D02*
X153405752Y-149046744D01*
X153405752Y-149046744D02*
X153405752Y-149237220D01*
X153405752Y-149237220D02*
X153453371Y-149332458D01*
X153453371Y-149332458D02*
X153548609Y-149380077D01*
X153548609Y-149380077D02*
X153643847Y-149380077D01*
X153643847Y-149380077D02*
X153739085Y-148903887D01*
X154072419Y-149808649D02*
X153405752Y-149808649D01*
X153596228Y-149808649D02*
X153500990Y-149856268D01*
X153500990Y-149856268D02*
X153453371Y-149903887D01*
X153453371Y-149903887D02*
X153405752Y-149999125D01*
X153405752Y-149999125D02*
X153405752Y-150094363D01*
X154024800Y-150380078D02*
X154072419Y-150475316D01*
X154072419Y-150475316D02*
X154072419Y-150665792D01*
X154072419Y-150665792D02*
X154024800Y-150761030D01*
X154024800Y-150761030D02*
X153929561Y-150808649D01*
X153929561Y-150808649D02*
X153881942Y-150808649D01*
X153881942Y-150808649D02*
X153786704Y-150761030D01*
X153786704Y-150761030D02*
X153739085Y-150665792D01*
X153739085Y-150665792D02*
X153739085Y-150522935D01*
X153739085Y-150522935D02*
X153691466Y-150427697D01*
X153691466Y-150427697D02*
X153596228Y-150380078D01*
X153596228Y-150380078D02*
X153548609Y-150380078D01*
X153548609Y-150380078D02*
X153453371Y-150427697D01*
X153453371Y-150427697D02*
X153405752Y-150522935D01*
X153405752Y-150522935D02*
X153405752Y-150665792D01*
X153405752Y-150665792D02*
X153453371Y-150761030D01*
%TO.C,R_BTN_PU1*%
D11*
X147846359Y-134620000D02*
X148153641Y-134620000D01*
X147846359Y-135380000D02*
X148153641Y-135380000D01*
%TO.C,C_SYS_1*%
X138688748Y-116265000D02*
X139211252Y-116265000D01*
X138688748Y-117735000D02*
X139211252Y-117735000D01*
%TO.C,Q_PWR1*%
X148802500Y-115440000D02*
X148802500Y-115490000D01*
X148802500Y-116610000D02*
X148802500Y-117390000D01*
X148802500Y-118510000D02*
X148802500Y-118560000D01*
X148802500Y-118560000D02*
X150322500Y-118560000D01*
X150322500Y-115440000D02*
X148802500Y-115440000D01*
X150322500Y-116440000D02*
X150322500Y-115440000D01*
X150322500Y-118560000D02*
X150322500Y-117560000D01*
X148262500Y-117380000D02*
X148502500Y-117050000D01*
X148022500Y-117050000D01*
X148262500Y-117380000D01*
G36*
X148262500Y-117380000D02*
G01*
X148022500Y-117050000D01*
X148502500Y-117050000D01*
X148262500Y-117380000D01*
G37*
%TO.C,D_VBUS_TVS1*%
X136550000Y-154590000D02*
X136550000Y-157250000D01*
X136550000Y-154590000D02*
X138250000Y-154590000D01*
X138250000Y-154590000D02*
X138250000Y-157250000D01*
%TO.C,BT1*%
X148440000Y-67440000D02*
X149360000Y-67440000D01*
X148440000Y-69040000D02*
X149360000Y-69040000D01*
X148440000Y-75260000D02*
X148440000Y-67440000D01*
X149360000Y-67440000D02*
X149360000Y-69040000D01*
X149360000Y-69040000D02*
X149640000Y-69040000D01*
X151000000Y-70900000D02*
X151000000Y-75260000D01*
X152000000Y-70900000D02*
X151000000Y-70900000D01*
X152000000Y-75260000D02*
X152000000Y-70900000D01*
X152800000Y-73000000D02*
X152800000Y-75260000D01*
X153300000Y-73000000D02*
X153300000Y-75260000D01*
X153360000Y-69040000D02*
X153360000Y-67825000D01*
X153360000Y-69040000D02*
X153640000Y-69040000D01*
X153640000Y-67440000D02*
X154560000Y-67440000D01*
X153640000Y-69040000D02*
X153640000Y-67440000D01*
X154560000Y-67440000D02*
X154560000Y-75260000D01*
X154560000Y-69040000D02*
X153640000Y-69040000D01*
X154560000Y-75260000D02*
X148440000Y-75260000D01*
X149200000Y-71400000D02*
X150200000Y-71400000D01*
X150200000Y-73000000D01*
X149200000Y-73000000D01*
X149200000Y-71400000D01*
X152800000Y-71400000D02*
X153800000Y-71400000D01*
X153800000Y-73000000D01*
X152800000Y-73000000D01*
X152800000Y-71400000D01*
%TO.C,C_VIN_2*%
X129640000Y-118412164D02*
X129640000Y-118627836D01*
X130360000Y-118412164D02*
X130360000Y-118627836D01*
%TO.C,C_VIN_1*%
X127311252Y-117265000D02*
X126788748Y-117265000D01*
X127311252Y-118735000D02*
X126788748Y-118735000D01*
%TO.C,C_BUCK_OUT1*%
X121290000Y-109738748D02*
X121290000Y-110261252D01*
X122760000Y-109738748D02*
X122760000Y-110261252D01*
%TO.C,R_PWR_SENSE1*%
X148163641Y-132620000D02*
X147856359Y-132620000D01*
X148163641Y-133380000D02*
X147856359Y-133380000D01*
%TO.C,D_OR1*%
X146000000Y-125140000D02*
X146000000Y-129150000D01*
X146000000Y-125140000D02*
X148000000Y-125140000D01*
X148000000Y-125140000D02*
X148000000Y-129150000D01*
D12*
%TO.C,G\u002A\u002A\u002A*%
G36*
X129146503Y-138300000D02*
G01*
X129146503Y-138444045D01*
X129002458Y-138444045D01*
X128858412Y-138444045D01*
X128858412Y-138300000D01*
X128858412Y-138155954D01*
X129002458Y-138155954D01*
X129146503Y-138155954D01*
X129146503Y-138300000D01*
G37*
G36*
X129146503Y-139164272D02*
G01*
X129146503Y-139308317D01*
X129002458Y-139308317D01*
X128858412Y-139308317D01*
X128858412Y-139164272D01*
X128858412Y-139020227D01*
X129002458Y-139020227D01*
X129146503Y-139020227D01*
X129146503Y-139164272D01*
G37*
G36*
X130010775Y-133978639D02*
G01*
X130010775Y-134410775D01*
X129578639Y-134410775D01*
X129146503Y-134410775D01*
X129146503Y-133978639D01*
X129146503Y-133546503D01*
X129578639Y-133546503D01*
X130010775Y-133546503D01*
X130010775Y-133978639D01*
G37*
G36*
X130875047Y-136859546D02*
G01*
X130875047Y-137003592D01*
X130586957Y-137003592D01*
X130298866Y-137003592D01*
X130298866Y-136859546D01*
X130298866Y-136715501D01*
X130586957Y-136715501D01*
X130875047Y-136715501D01*
X130875047Y-136859546D01*
G37*
G36*
X130586957Y-141757089D02*
G01*
X130586957Y-141901134D01*
X130442911Y-141901134D01*
X130298866Y-141901134D01*
X130298866Y-141757089D01*
X130298866Y-141613043D01*
X130442911Y-141613043D01*
X130586957Y-141613043D01*
X130586957Y-141757089D01*
G37*
G36*
X130586957Y-143485633D02*
G01*
X130586957Y-143629678D01*
X130442911Y-143629678D01*
X130298866Y-143629678D01*
X130298866Y-143485633D01*
X130298866Y-143341588D01*
X130442911Y-143341588D01*
X130586957Y-143341588D01*
X130586957Y-143485633D01*
G37*
G36*
X131739320Y-142621361D02*
G01*
X131739320Y-142765406D01*
X131595274Y-142765406D01*
X131451229Y-142765406D01*
X131451229Y-142621361D01*
X131451229Y-142477316D01*
X131595274Y-142477316D01*
X131739320Y-142477316D01*
X131739320Y-142621361D01*
G37*
G36*
X132027410Y-135419092D02*
G01*
X132027410Y-135563138D01*
X131883365Y-135563138D01*
X131739320Y-135563138D01*
X131739320Y-135419092D01*
X131739320Y-135275047D01*
X131883365Y-135275047D01*
X132027410Y-135275047D01*
X132027410Y-135419092D01*
G37*
G36*
X132315501Y-136859546D02*
G01*
X132315501Y-137003592D01*
X132171456Y-137003592D01*
X132027410Y-137003592D01*
X132027410Y-136859546D01*
X132027410Y-136715501D01*
X132171456Y-136715501D01*
X132315501Y-136715501D01*
X132315501Y-136859546D01*
G37*
G36*
X132603592Y-134266730D02*
G01*
X132603592Y-134410775D01*
X132459546Y-134410775D01*
X132315501Y-134410775D01*
X132315501Y-134266730D01*
X132315501Y-134122684D01*
X132459546Y-134122684D01*
X132603592Y-134122684D01*
X132603592Y-134266730D01*
G37*
G36*
X132603592Y-141468998D02*
G01*
X132603592Y-141613043D01*
X132459546Y-141613043D01*
X132315501Y-141613043D01*
X132315501Y-141468998D01*
X132315501Y-141324953D01*
X132459546Y-141324953D01*
X132603592Y-141324953D01*
X132603592Y-141468998D01*
G37*
G36*
X133467864Y-143485633D02*
G01*
X133467864Y-143629678D01*
X133323819Y-143629678D01*
X133179773Y-143629678D01*
X133179773Y-143485633D01*
X133179773Y-143341588D01*
X133323819Y-143341588D01*
X133467864Y-143341588D01*
X133467864Y-143485633D01*
G37*
G36*
X134044046Y-143197542D02*
G01*
X134044046Y-143629678D01*
X133900000Y-143629678D01*
X133755955Y-143629678D01*
X133755955Y-143197542D01*
X133755955Y-142765406D01*
X133900000Y-142765406D01*
X134044046Y-142765406D01*
X134044046Y-143197542D01*
G37*
G36*
X135196408Y-133114367D02*
G01*
X135196408Y-133258412D01*
X135052363Y-133258412D01*
X134908318Y-133258412D01*
X134908318Y-133114367D01*
X134908318Y-132970321D01*
X135052363Y-132970321D01*
X135196408Y-132970321D01*
X135196408Y-133114367D01*
G37*
G36*
X135196408Y-140028544D02*
G01*
X135196408Y-140172590D01*
X135052363Y-140172590D01*
X134908318Y-140172590D01*
X134908318Y-140028544D01*
X134908318Y-139884499D01*
X135052363Y-139884499D01*
X135196408Y-139884499D01*
X135196408Y-140028544D01*
G37*
G36*
X135196408Y-140892816D02*
G01*
X135196408Y-141036862D01*
X135052363Y-141036862D01*
X134908318Y-141036862D01*
X134908318Y-140892816D01*
X134908318Y-140748771D01*
X135052363Y-140748771D01*
X135196408Y-140748771D01*
X135196408Y-140892816D01*
G37*
G36*
X135196408Y-143341588D02*
G01*
X135196408Y-143629678D01*
X135052363Y-143629678D01*
X134908318Y-143629678D01*
X134908318Y-143341588D01*
X134908318Y-143053497D01*
X135052363Y-143053497D01*
X135196408Y-143053497D01*
X135196408Y-143341588D01*
G37*
G36*
X136060681Y-133114367D02*
G01*
X136060681Y-133258412D01*
X135772590Y-133258412D01*
X135484499Y-133258412D01*
X135484499Y-133114367D01*
X135484499Y-132970321D01*
X135772590Y-132970321D01*
X136060681Y-132970321D01*
X136060681Y-133114367D01*
G37*
G36*
X136060681Y-139164272D02*
G01*
X136060681Y-139308317D01*
X135916635Y-139308317D01*
X135772590Y-139308317D01*
X135772590Y-139164272D01*
X135772590Y-139020227D01*
X135916635Y-139020227D01*
X136060681Y-139020227D01*
X136060681Y-139164272D01*
G37*
G36*
X136924953Y-138300000D02*
G01*
X136924953Y-138444045D01*
X136780908Y-138444045D01*
X136636862Y-138444045D01*
X136636862Y-138300000D01*
X136636862Y-138155954D01*
X136780908Y-138155954D01*
X136924953Y-138155954D01*
X136924953Y-138300000D01*
G37*
G36*
X136924953Y-143485633D02*
G01*
X136924953Y-143629678D01*
X136780908Y-143629678D01*
X136636862Y-143629678D01*
X136636862Y-143485633D01*
X136636862Y-143341588D01*
X136780908Y-143341588D01*
X136924953Y-143341588D01*
X136924953Y-143485633D01*
G37*
G36*
X137501134Y-140028544D02*
G01*
X137501134Y-140172590D01*
X137357089Y-140172590D01*
X137213044Y-140172590D01*
X137213044Y-140028544D01*
X137213044Y-139884499D01*
X137357089Y-139884499D01*
X137501134Y-139884499D01*
X137501134Y-140028544D01*
G37*
G36*
X138653497Y-133978639D02*
G01*
X138653497Y-134410775D01*
X138221361Y-134410775D01*
X137789225Y-134410775D01*
X137789225Y-133978639D01*
X137789225Y-133546503D01*
X138221361Y-133546503D01*
X138653497Y-133546503D01*
X138653497Y-133978639D01*
G37*
G36*
X138653497Y-142621361D02*
G01*
X138653497Y-143053497D01*
X138221361Y-143053497D01*
X137789225Y-143053497D01*
X137789225Y-142621361D01*
X137789225Y-142189225D01*
X138221361Y-142189225D01*
X138653497Y-142189225D01*
X138653497Y-142621361D01*
G37*
G36*
X139229679Y-135419092D02*
G01*
X139229679Y-135563138D01*
X139085633Y-135563138D01*
X138941588Y-135563138D01*
X138941588Y-135419092D01*
X138941588Y-135275047D01*
X139085633Y-135275047D01*
X139229679Y-135275047D01*
X139229679Y-135419092D01*
G37*
G36*
X131163138Y-136427410D02*
G01*
X131163138Y-136715501D01*
X131019093Y-136715501D01*
X130875047Y-136715501D01*
X130875047Y-136571455D01*
X130875047Y-136427410D01*
X130731002Y-136427410D01*
X130586957Y-136427410D01*
X130586957Y-136283365D01*
X130586957Y-136139319D01*
X130875047Y-136139319D01*
X131163138Y-136139319D01*
X131163138Y-136427410D01*
G37*
G36*
X132603592Y-139884499D02*
G01*
X132603592Y-140172590D01*
X132315501Y-140172590D01*
X132027410Y-140172590D01*
X132027410Y-140028544D01*
X132027410Y-139884499D01*
X132171456Y-139884499D01*
X132315501Y-139884499D01*
X132315501Y-139740454D01*
X132315501Y-139596408D01*
X132459546Y-139596408D01*
X132603592Y-139596408D01*
X132603592Y-139884499D01*
G37*
G36*
X134476182Y-142765406D02*
G01*
X134620227Y-142765406D01*
X134620227Y-143053497D01*
X134620227Y-143341588D01*
X134476182Y-143341588D01*
X134332136Y-143341588D01*
X134332136Y-143053497D01*
X134332136Y-142765406D01*
X134476182Y-142765406D01*
G37*
G36*
X134332136Y-142621361D02*
G01*
X134332136Y-142765406D01*
X134188091Y-142765406D01*
X134044046Y-142765406D01*
X134044046Y-142621361D01*
X134044046Y-142477316D01*
X134188091Y-142477316D01*
X134332136Y-142477316D01*
X134332136Y-142621361D01*
G37*
G36*
X134908318Y-137291682D02*
G01*
X134908318Y-137867864D01*
X134764272Y-137867864D01*
X134620227Y-137867864D01*
X134620227Y-137723818D01*
X134620227Y-137579773D01*
X134476182Y-137579773D01*
X134332136Y-137579773D01*
X134332136Y-137435728D01*
X134332136Y-137291682D01*
X134476182Y-137291682D01*
X134620227Y-137291682D01*
X134620227Y-137003592D01*
X134620227Y-136715501D01*
X134764272Y-136715501D01*
X134908318Y-136715501D01*
X134908318Y-137291682D01*
G37*
G36*
X136636862Y-138588091D02*
G01*
X136636862Y-138732136D01*
X136780908Y-138732136D01*
X136924953Y-138732136D01*
X136924953Y-138876181D01*
X136924953Y-139020227D01*
X136492817Y-139020227D01*
X136060681Y-139020227D01*
X136060681Y-138876181D01*
X136060681Y-138732136D01*
X136204726Y-138732136D01*
X136348771Y-138732136D01*
X136348771Y-138588091D01*
X136348771Y-138444045D01*
X136492817Y-138444045D01*
X136636862Y-138444045D01*
X136636862Y-138588091D01*
G37*
G36*
X130586957Y-134986956D02*
G01*
X129578639Y-134986956D01*
X128570322Y-134986956D01*
X128570322Y-133978639D01*
X128570322Y-133258412D01*
X128858412Y-133258412D01*
X128858412Y-133978639D01*
X128858412Y-134698866D01*
X129578639Y-134698866D01*
X130298866Y-134698866D01*
X130298866Y-133978639D01*
X130298866Y-133258412D01*
X129578639Y-133258412D01*
X128858412Y-133258412D01*
X128570322Y-133258412D01*
X128570322Y-132970321D01*
X129578639Y-132970321D01*
X130586957Y-132970321D01*
X130586957Y-133978639D01*
X130586957Y-134986956D01*
G37*
G36*
X139229679Y-134986956D02*
G01*
X138221361Y-134986956D01*
X137213044Y-134986956D01*
X137213044Y-133978639D01*
X137213044Y-133258412D01*
X137501134Y-133258412D01*
X137501134Y-133978639D01*
X137501134Y-134698866D01*
X138221361Y-134698866D01*
X138941588Y-134698866D01*
X138941588Y-133978639D01*
X138941588Y-133258412D01*
X138221361Y-133258412D01*
X137501134Y-133258412D01*
X137213044Y-133258412D01*
X137213044Y-132970321D01*
X138221361Y-132970321D01*
X139229679Y-132970321D01*
X139229679Y-133978639D01*
X139229679Y-134986956D01*
G37*
G36*
X139229679Y-143629678D02*
G01*
X138221361Y-143629678D01*
X137213044Y-143629678D01*
X137213044Y-142621361D01*
X137213044Y-141901134D01*
X137501134Y-141901134D01*
X137501134Y-142621361D01*
X137501134Y-143341588D01*
X138221361Y-143341588D01*
X138941588Y-143341588D01*
X138941588Y-142621361D01*
X138941588Y-141901134D01*
X138221361Y-141901134D01*
X137501134Y-141901134D01*
X137213044Y-141901134D01*
X137213044Y-141613043D01*
X138221361Y-141613043D01*
X139229679Y-141613043D01*
X139229679Y-142621361D01*
X139229679Y-143629678D01*
G37*
G36*
X128858412Y-139452363D02*
G01*
X128858412Y-139596408D01*
X129146503Y-139596408D01*
X129434594Y-139596408D01*
X129434594Y-140028544D01*
X129434594Y-140460680D01*
X129290548Y-140460680D01*
X129146503Y-140460680D01*
X129146503Y-140172590D01*
X129146503Y-139884499D01*
X129002458Y-139884499D01*
X128858412Y-139884499D01*
X128858412Y-140028544D01*
X128858412Y-140172590D01*
X128714367Y-140172590D01*
X128570322Y-140172590D01*
X128570322Y-139740454D01*
X128570322Y-139308317D01*
X128714367Y-139308317D01*
X128858412Y-139308317D01*
X128858412Y-139452363D01*
G37*
G36*
X134044046Y-133114367D02*
G01*
X134044046Y-133258412D01*
X134188091Y-133258412D01*
X134332136Y-133258412D01*
X134332136Y-133114367D01*
X134332136Y-132970321D01*
X134476182Y-132970321D01*
X134620227Y-132970321D01*
X134620227Y-133114367D01*
X134620227Y-133258412D01*
X134476182Y-133258412D01*
X134332136Y-133258412D01*
X134332136Y-133546503D01*
X134332136Y-133834593D01*
X134188091Y-133834593D01*
X134044046Y-133834593D01*
X134044046Y-133546503D01*
X134044046Y-133258412D01*
X133755955Y-133258412D01*
X133467864Y-133258412D01*
X133467864Y-133114367D01*
X133467864Y-132970321D01*
X133755955Y-132970321D01*
X134044046Y-132970321D01*
X134044046Y-133114367D01*
G37*
G36*
X130875047Y-135563138D02*
G01*
X130875047Y-135851229D01*
X130731002Y-135851229D01*
X130586957Y-135851229D01*
X130586957Y-135707183D01*
X130586957Y-135563138D01*
X130154821Y-135563138D01*
X129722684Y-135563138D01*
X129722684Y-135851229D01*
X129722684Y-136139319D01*
X129578639Y-136139319D01*
X129434594Y-136139319D01*
X129434594Y-135851229D01*
X129434594Y-135563138D01*
X129290548Y-135563138D01*
X129146503Y-135563138D01*
X129146503Y-135851229D01*
X129146503Y-136139319D01*
X129002458Y-136139319D01*
X128858412Y-136139319D01*
X128858412Y-135995274D01*
X128858412Y-135851229D01*
X128714367Y-135851229D01*
X128570322Y-135851229D01*
X128570322Y-135707183D01*
X128570322Y-135563138D01*
X128714367Y-135563138D01*
X128858412Y-135563138D01*
X128858412Y-135419092D01*
X128858412Y-135275047D01*
X129866730Y-135275047D01*
X130875047Y-135275047D01*
X130875047Y-135563138D01*
G37*
G36*
X128858412Y-142909452D02*
G01*
X128858412Y-143341588D01*
X129146503Y-143341588D01*
X129434594Y-143341588D01*
X129434594Y-143197542D01*
X129434594Y-143053497D01*
X129290548Y-143053497D01*
X129146503Y-143053497D01*
X129146503Y-142909452D01*
X129146503Y-142765406D01*
X129578639Y-142765406D01*
X130010775Y-142765406D01*
X130010775Y-142909452D01*
X130010775Y-143053497D01*
X129866730Y-143053497D01*
X129722684Y-143053497D01*
X129722684Y-143197542D01*
X129722684Y-143341588D01*
X129578639Y-143341588D01*
X129434594Y-143341588D01*
X129434594Y-143485633D01*
X129434594Y-143629678D01*
X129002458Y-143629678D01*
X128570322Y-143629678D01*
X128570322Y-143053497D01*
X128570322Y-142477316D01*
X128714367Y-142477316D01*
X128858412Y-142477316D01*
X128858412Y-142909452D01*
G37*
G36*
X129866730Y-143341588D02*
G01*
X130010775Y-143341588D01*
X130010775Y-143485633D01*
X130010775Y-143629678D01*
X129866730Y-143629678D01*
X129722684Y-143629678D01*
X129722684Y-143485633D01*
X129722684Y-143341588D01*
X129866730Y-143341588D01*
G37*
G36*
X131595274Y-139884499D02*
G01*
X131739320Y-139884499D01*
X131739320Y-140172590D01*
X131739320Y-140460680D01*
X131883365Y-140460680D01*
X132027410Y-140460680D01*
X132027410Y-140892816D01*
X132027410Y-141324953D01*
X131883365Y-141324953D01*
X131739320Y-141324953D01*
X131739320Y-141036862D01*
X131739320Y-140748771D01*
X131307184Y-140748771D01*
X130875047Y-140748771D01*
X130875047Y-140460680D01*
X130875047Y-140172590D01*
X131019093Y-140172590D01*
X131163138Y-140172590D01*
X131163138Y-140316635D01*
X131163138Y-140460680D01*
X131307184Y-140460680D01*
X131451229Y-140460680D01*
X131451229Y-140172590D01*
X131451229Y-139884499D01*
X131595274Y-139884499D01*
G37*
G36*
X131163138Y-139452363D02*
G01*
X131163138Y-139596408D01*
X131307184Y-139596408D01*
X131451229Y-139596408D01*
X131451229Y-139740454D01*
X131451229Y-139884499D01*
X131019093Y-139884499D01*
X130586957Y-139884499D01*
X130586957Y-139740454D01*
X130586957Y-139596408D01*
X130442911Y-139596408D01*
X130298866Y-139596408D01*
X130298866Y-139452363D01*
X130298866Y-139308317D01*
X130731002Y-139308317D01*
X131163138Y-139308317D01*
X131163138Y-139452363D01*
G37*
G36*
X136924953Y-140748771D02*
G01*
X136780908Y-140748771D01*
X136636862Y-140748771D01*
X136636862Y-140892816D01*
X136636862Y-141036862D01*
X136492817Y-141036862D01*
X136348771Y-141036862D01*
X136348771Y-141180907D01*
X136348771Y-141324953D01*
X136204726Y-141324953D01*
X136060681Y-141324953D01*
X136060681Y-141180907D01*
X136060681Y-141036862D01*
X135772590Y-141036862D01*
X135484499Y-141036862D01*
X135484499Y-140460680D01*
X135484499Y-139884499D01*
X135628545Y-139884499D01*
X135772590Y-139884499D01*
X135772590Y-140172590D01*
X135772590Y-140460680D01*
X135916635Y-140460680D01*
X136060681Y-140460680D01*
X136348771Y-140460680D01*
X136348771Y-140604726D01*
X136348771Y-140748771D01*
X136492817Y-140748771D01*
X136636862Y-140748771D01*
X136636862Y-140604726D01*
X136636862Y-140460680D01*
X136492817Y-140460680D01*
X136348771Y-140460680D01*
X136060681Y-140460680D01*
X136060681Y-140172590D01*
X136060681Y-139884499D01*
X136204726Y-139884499D01*
X136348771Y-139884499D01*
X136348771Y-140028544D01*
X136348771Y-140172590D01*
X136492817Y-140172590D01*
X136636862Y-140172590D01*
X136636862Y-140316635D01*
X136636862Y-140460680D01*
X136780908Y-140460680D01*
X136924953Y-140460680D01*
X136924953Y-140316635D01*
X136924953Y-140172590D01*
X137068998Y-140172590D01*
X137213044Y-140172590D01*
X137213044Y-140316635D01*
X137213044Y-140460680D01*
X137068998Y-140460680D01*
X136924953Y-140460680D01*
X136924953Y-140604726D01*
X136924953Y-140748771D01*
G37*
G36*
X138077316Y-135419092D02*
G01*
X138077316Y-135563138D01*
X137933270Y-135563138D01*
X137789225Y-135563138D01*
X137789225Y-135707183D01*
X137789225Y-135851229D01*
X137933270Y-135851229D01*
X138077316Y-135851229D01*
X138077316Y-135707183D01*
X138077316Y-135563138D01*
X138365407Y-135563138D01*
X138653497Y-135563138D01*
X138653497Y-135707183D01*
X138653497Y-135851229D01*
X138797543Y-135851229D01*
X138941588Y-135851229D01*
X138941588Y-135995274D01*
X138941588Y-136139319D01*
X138653497Y-136139319D01*
X138365407Y-136139319D01*
X138365407Y-136283365D01*
X138365407Y-136427410D01*
X138221361Y-136427410D01*
X138077316Y-136427410D01*
X138077316Y-136283365D01*
X138077316Y-136139319D01*
X137933270Y-136139319D01*
X137789225Y-136139319D01*
X137789225Y-136283365D01*
X137789225Y-136427410D01*
X137645180Y-136427410D01*
X137501134Y-136427410D01*
X137501134Y-136283365D01*
X137501134Y-136139319D01*
X137357089Y-136139319D01*
X137213044Y-136139319D01*
X137213044Y-135995274D01*
X137213044Y-135851229D01*
X137357089Y-135851229D01*
X137501134Y-135851229D01*
X137501134Y-135707183D01*
X137501134Y-135563138D01*
X137357089Y-135563138D01*
X137213044Y-135563138D01*
X137213044Y-135419092D01*
X137213044Y-135275047D01*
X137645180Y-135275047D01*
X138077316Y-135275047D01*
X138077316Y-135419092D01*
G37*
G36*
X139085633Y-136139319D02*
G01*
X139229679Y-136139319D01*
X139229679Y-136283365D01*
X139229679Y-136427410D01*
X139085633Y-136427410D01*
X138941588Y-136427410D01*
X138941588Y-136283365D01*
X138941588Y-136139319D01*
X139085633Y-136139319D01*
G37*
G36*
X133467864Y-139884499D02*
G01*
X133755955Y-139884499D01*
X133755955Y-140028544D01*
X133755955Y-140172590D01*
X133611909Y-140172590D01*
X133467864Y-140172590D01*
X133467864Y-140460680D01*
X133467864Y-140748771D01*
X133755955Y-140748771D01*
X134044046Y-140748771D01*
X134044046Y-140604726D01*
X134044046Y-140460680D01*
X134188091Y-140460680D01*
X134332136Y-140460680D01*
X134332136Y-140316635D01*
X134332136Y-140172590D01*
X134476182Y-140172590D01*
X134620227Y-140172590D01*
X134620227Y-140460680D01*
X134620227Y-140748771D01*
X134332136Y-140748771D01*
X134044046Y-140748771D01*
X134044046Y-140892816D01*
X134044046Y-141036862D01*
X133755955Y-141036862D01*
X133467864Y-141036862D01*
X133467864Y-140892816D01*
X133467864Y-140748771D01*
X133179773Y-140748771D01*
X132891683Y-140748771D01*
X132891683Y-140892816D01*
X132891683Y-141036862D01*
X132747637Y-141036862D01*
X132603592Y-141036862D01*
X132603592Y-140892816D01*
X132603592Y-140748771D01*
X132459546Y-140748771D01*
X132315501Y-140748771D01*
X132315501Y-140604726D01*
X132315501Y-140460680D01*
X132459546Y-140460680D01*
X132603592Y-140460680D01*
X132603592Y-140604726D01*
X132603592Y-140748771D01*
X132747637Y-140748771D01*
X132891683Y-140748771D01*
X132891683Y-140604726D01*
X132891683Y-140460680D01*
X133035728Y-140460680D01*
X133179773Y-140460680D01*
X133179773Y-140172590D01*
X133179773Y-139884499D01*
X133467864Y-139884499D01*
G37*
G36*
X134332136Y-140028544D02*
G01*
X134332136Y-140172590D01*
X134188091Y-140172590D01*
X134044046Y-140172590D01*
X134044046Y-140028544D01*
X134044046Y-139884499D01*
X134188091Y-139884499D01*
X134332136Y-139884499D01*
X134332136Y-140028544D01*
G37*
G36*
X133179773Y-139740454D02*
G01*
X133179773Y-139884499D01*
X133035728Y-139884499D01*
X132891683Y-139884499D01*
X132891683Y-139740454D01*
X132891683Y-139596408D01*
X133035728Y-139596408D01*
X133179773Y-139596408D01*
X133179773Y-139740454D01*
G37*
G36*
X131163138Y-141901134D02*
G01*
X131307184Y-141901134D01*
X131451229Y-141901134D01*
X131451229Y-141757089D01*
X131451229Y-141613043D01*
X131883365Y-141613043D01*
X132315501Y-141613043D01*
X132315501Y-141757089D01*
X132315501Y-141901134D01*
X132459546Y-141901134D01*
X132603592Y-141901134D01*
X132603592Y-141757089D01*
X132603592Y-141613043D01*
X132747637Y-141613043D01*
X132891683Y-141613043D01*
X132891683Y-141468998D01*
X132891683Y-141324953D01*
X133467864Y-141324953D01*
X134044046Y-141324953D01*
X134044046Y-141180907D01*
X134044046Y-141036862D01*
X134188091Y-141036862D01*
X134332136Y-141036862D01*
X134332136Y-141180907D01*
X134332136Y-141324953D01*
X134476182Y-141324953D01*
X134620227Y-141324953D01*
X134620227Y-141180907D01*
X134620227Y-141036862D01*
X134764272Y-141036862D01*
X134908318Y-141036862D01*
X134908318Y-141180907D01*
X134908318Y-141324953D01*
X135052363Y-141324953D01*
X135196408Y-141324953D01*
X135196408Y-141180907D01*
X135196408Y-141036862D01*
X135340454Y-141036862D01*
X135484499Y-141036862D01*
X135484499Y-141180907D01*
X135484499Y-141324953D01*
X135628545Y-141324953D01*
X135772590Y-141324953D01*
X135772590Y-141468998D01*
X135772590Y-141613043D01*
X136060681Y-141613043D01*
X136348771Y-141613043D01*
X136348771Y-141468998D01*
X136348771Y-141324953D01*
X136492817Y-141324953D01*
X136636862Y-141324953D01*
X136636862Y-141468998D01*
X136636862Y-141613043D01*
X136492817Y-141613043D01*
X136348771Y-141613043D01*
X136348771Y-141757089D01*
X136348771Y-141901134D01*
X135916635Y-141901134D01*
X135484499Y-141901134D01*
X135484499Y-141757089D01*
X135484499Y-141613043D01*
X135052363Y-141613043D01*
X134620227Y-141613043D01*
X134620227Y-141757089D01*
X134620227Y-141901134D01*
X134476182Y-141901134D01*
X134332136Y-141901134D01*
X134332136Y-141757089D01*
X134332136Y-141613043D01*
X133900000Y-141613043D01*
X133467864Y-141613043D01*
X133467864Y-141757089D01*
X133467864Y-141901134D01*
X133755955Y-141901134D01*
X134044046Y-141901134D01*
X134044046Y-142045179D01*
X134044046Y-142189225D01*
X133900000Y-142189225D01*
X133755955Y-142189225D01*
X133755955Y-142333270D01*
X133755955Y-142477316D01*
X133611909Y-142477316D01*
X133467864Y-142477316D01*
X133467864Y-142765406D01*
X133467864Y-143053497D01*
X133179773Y-143053497D01*
X132891683Y-143053497D01*
X132891683Y-143341588D01*
X132891683Y-143629678D01*
X132747637Y-143629678D01*
X132603592Y-143629678D01*
X132603592Y-143485633D01*
X132603592Y-143341588D01*
X132315501Y-143341588D01*
X132027410Y-143341588D01*
X132027410Y-143197542D01*
X132027410Y-143053497D01*
X131883365Y-143053497D01*
X131739320Y-143053497D01*
X131739320Y-143341588D01*
X131739320Y-143629678D01*
X131595274Y-143629678D01*
X131451229Y-143629678D01*
X131451229Y-143485633D01*
X131451229Y-143341588D01*
X131307184Y-143341588D01*
X131163138Y-143341588D01*
X131163138Y-143485633D01*
X131163138Y-143629678D01*
X131019093Y-143629678D01*
X130875047Y-143629678D01*
X130875047Y-143053497D01*
X130875047Y-142477316D01*
X130731002Y-142477316D01*
X130586957Y-142477316D01*
X130586957Y-142621361D01*
X130586957Y-142765406D01*
X130442911Y-142765406D01*
X130298866Y-142765406D01*
X130298866Y-142621361D01*
X130298866Y-142477316D01*
X129866730Y-142477316D01*
X129434594Y-142477316D01*
X129434594Y-142333270D01*
X129434594Y-142189225D01*
X129146503Y-142189225D01*
X128858412Y-142189225D01*
X128858412Y-142045179D01*
X128858412Y-141901134D01*
X128714367Y-141901134D01*
X128570322Y-141901134D01*
X128570322Y-141757089D01*
X128570322Y-141613043D01*
X128714367Y-141613043D01*
X128858412Y-141613043D01*
X129146503Y-141613043D01*
X129146503Y-141757089D01*
X129146503Y-141901134D01*
X129290548Y-141901134D01*
X129434594Y-141901134D01*
X129434594Y-142045179D01*
X129434594Y-142189225D01*
X129578639Y-142189225D01*
X129722684Y-142189225D01*
X130010775Y-142189225D01*
X130442911Y-142189225D01*
X130875047Y-142189225D01*
X131163138Y-142189225D01*
X131163138Y-142621361D01*
X131163138Y-143053497D01*
X131451229Y-143053497D01*
X131739320Y-143053497D01*
X131739320Y-142909452D01*
X131739320Y-142765406D01*
X131883365Y-142765406D01*
X132027410Y-142765406D01*
X132027410Y-142621361D01*
X132315501Y-142621361D01*
X132315501Y-143053497D01*
X132603592Y-143053497D01*
X132891683Y-143053497D01*
X132891683Y-142909452D01*
X132891683Y-142765406D01*
X133035728Y-142765406D01*
X133179773Y-142765406D01*
X133179773Y-142477316D01*
X133179773Y-142189225D01*
X133035728Y-142189225D01*
X132891683Y-142189225D01*
X132891683Y-142045179D01*
X132891683Y-141901134D01*
X132747637Y-141901134D01*
X132603592Y-141901134D01*
X132603592Y-142045179D01*
X132603592Y-142189225D01*
X132459546Y-142189225D01*
X132315501Y-142189225D01*
X132315501Y-142477316D01*
X132315501Y-142621361D01*
X132027410Y-142621361D01*
X132027410Y-142477316D01*
X132027410Y-142189225D01*
X131595274Y-142189225D01*
X131163138Y-142189225D01*
X130875047Y-142189225D01*
X130875047Y-141757089D01*
X130875047Y-141324953D01*
X130442911Y-141324953D01*
X130010775Y-141324953D01*
X130010775Y-141757089D01*
X130010775Y-141901134D01*
X130010775Y-142189225D01*
X129722684Y-142189225D01*
X129722684Y-142045179D01*
X129722684Y-141901134D01*
X129578639Y-141901134D01*
X129434594Y-141901134D01*
X129434594Y-141757089D01*
X129434594Y-141613043D01*
X129290548Y-141613043D01*
X129146503Y-141613043D01*
X128858412Y-141613043D01*
X128858412Y-141468998D01*
X129434594Y-141468998D01*
X129434594Y-141613043D01*
X129578639Y-141613043D01*
X129722684Y-141613043D01*
X129722684Y-141468998D01*
X129722684Y-141324953D01*
X129578639Y-141324953D01*
X129434594Y-141324953D01*
X129434594Y-141468998D01*
X128858412Y-141468998D01*
X128858412Y-141180907D01*
X129146503Y-141180907D01*
X129146503Y-141324953D01*
X129290548Y-141324953D01*
X129434594Y-141324953D01*
X129434594Y-141180907D01*
X129434594Y-141036862D01*
X129290548Y-141036862D01*
X129146503Y-141036862D01*
X129146503Y-141180907D01*
X128858412Y-141180907D01*
X128858412Y-140748771D01*
X128714367Y-140748771D01*
X128570322Y-140748771D01*
X128570322Y-140604726D01*
X128570322Y-140460680D01*
X128858412Y-140460680D01*
X129146503Y-140460680D01*
X129146503Y-140604726D01*
X129146503Y-140748771D01*
X129290548Y-140748771D01*
X129434594Y-140748771D01*
X129434594Y-140892816D01*
X129434594Y-141036862D01*
X129578639Y-141036862D01*
X129722684Y-141036862D01*
X129722684Y-140172590D01*
X129722684Y-139308317D01*
X129578639Y-139308317D01*
X129434594Y-139308317D01*
X129434594Y-139164272D01*
X129434594Y-139020227D01*
X129290548Y-139020227D01*
X129146503Y-139020227D01*
X129146503Y-138876181D01*
X129146503Y-138732136D01*
X129290548Y-138732136D01*
X129434594Y-138732136D01*
X129434594Y-138876181D01*
X129434594Y-139020227D01*
X129578639Y-139020227D01*
X129722684Y-139020227D01*
X129722684Y-138876181D01*
X131739320Y-138876181D01*
X131739320Y-139020227D01*
X131883365Y-139020227D01*
X132027410Y-139020227D01*
X132315501Y-139020227D01*
X132459546Y-139020227D01*
X132603592Y-139020227D01*
X132603592Y-138876181D01*
X132603592Y-138732136D01*
X132459546Y-138732136D01*
X132315501Y-138732136D01*
X132315501Y-138876181D01*
X132315501Y-139020227D01*
X132027410Y-139020227D01*
X132027410Y-138876181D01*
X132027410Y-138732136D01*
X131883365Y-138732136D01*
X131739320Y-138732136D01*
X131739320Y-138876181D01*
X129722684Y-138876181D01*
X129722684Y-138732136D01*
X129722684Y-138444045D01*
X129866730Y-138444045D01*
X130010775Y-138444045D01*
X130298866Y-138444045D01*
X130298866Y-138588091D01*
X130298866Y-138732136D01*
X130442911Y-138732136D01*
X130586957Y-138732136D01*
X130586957Y-138588091D01*
X130586957Y-138444045D01*
X130731002Y-138444045D01*
X130875047Y-138444045D01*
X130875047Y-138588091D01*
X130875047Y-138732136D01*
X131163138Y-138732136D01*
X131451229Y-138732136D01*
X131451229Y-138588091D01*
X131451229Y-138444045D01*
X131595274Y-138444045D01*
X131739320Y-138444045D01*
X131739320Y-138300000D01*
X131739320Y-138155954D01*
X131595274Y-138155954D01*
X131451229Y-138155954D01*
X131451229Y-138300000D01*
X131451229Y-138444045D01*
X131163138Y-138444045D01*
X130875047Y-138444045D01*
X130875047Y-138155954D01*
X130875047Y-137867864D01*
X131019093Y-137867864D01*
X131163138Y-137867864D01*
X131163138Y-137723818D01*
X131163138Y-137579773D01*
X130875047Y-137579773D01*
X130586957Y-137579773D01*
X130586957Y-138011909D01*
X130586957Y-138444045D01*
X130442911Y-138444045D01*
X130298866Y-138444045D01*
X130010775Y-138444045D01*
X130010775Y-138300000D01*
X130010775Y-138155954D01*
X129722684Y-138155954D01*
X129434594Y-138155954D01*
X129434594Y-138011909D01*
X129434594Y-137867864D01*
X130010775Y-137867864D01*
X130010775Y-138155954D01*
X130154821Y-138155954D01*
X130298866Y-138155954D01*
X130298866Y-137867864D01*
X130298866Y-137579773D01*
X130154821Y-137579773D01*
X130010775Y-137579773D01*
X130010775Y-137867864D01*
X129434594Y-137867864D01*
X129290548Y-137867864D01*
X129146503Y-137867864D01*
X129146503Y-137723818D01*
X129146503Y-137579773D01*
X129578639Y-137579773D01*
X130010775Y-137579773D01*
X130010775Y-137435728D01*
X130010775Y-137291682D01*
X130442911Y-137291682D01*
X130875047Y-137291682D01*
X130875047Y-137147637D01*
X130875047Y-137003592D01*
X131451229Y-137003592D01*
X132027410Y-137003592D01*
X132027410Y-137147637D01*
X132027410Y-137291682D01*
X131883365Y-137291682D01*
X131739320Y-137291682D01*
X131739320Y-137435728D01*
X131739320Y-137579773D01*
X131595274Y-137579773D01*
X131451229Y-137579773D01*
X131451229Y-137723818D01*
X131451229Y-137867864D01*
X131739320Y-137867864D01*
X132027410Y-137867864D01*
X132027410Y-138011909D01*
X132027410Y-138155954D01*
X132171456Y-138155954D01*
X132315501Y-138155954D01*
X132315501Y-138011909D01*
X132315501Y-137867864D01*
X132171456Y-137867864D01*
X132027410Y-137867864D01*
X132027410Y-137723818D01*
X132027410Y-137579773D01*
X132315501Y-137579773D01*
X132603592Y-137579773D01*
X132603592Y-137291682D01*
X132603592Y-137003592D01*
X132891683Y-137003592D01*
X133179773Y-137003592D01*
X133179773Y-137147637D01*
X133179773Y-137291682D01*
X133323819Y-137291682D01*
X133467864Y-137291682D01*
X133467864Y-137435728D01*
X133467864Y-137579773D01*
X133611909Y-137579773D01*
X133755955Y-137579773D01*
X133755955Y-137147637D01*
X133755955Y-136715501D01*
X134044046Y-136715501D01*
X134332136Y-136715501D01*
X134332136Y-136859546D01*
X134332136Y-137003592D01*
X134188091Y-137003592D01*
X134044046Y-137003592D01*
X134044046Y-137291682D01*
X134044046Y-137579773D01*
X133900000Y-137579773D01*
X133755955Y-137579773D01*
X133755955Y-137723818D01*
X133755955Y-137867864D01*
X133611909Y-137867864D01*
X133467864Y-137867864D01*
X133467864Y-137723818D01*
X133467864Y-137579773D01*
X133323819Y-137579773D01*
X133179773Y-137579773D01*
X133179773Y-137723818D01*
X133179773Y-137867864D01*
X133035728Y-137867864D01*
X132891683Y-137867864D01*
X132891683Y-138300000D01*
X132891683Y-138732136D01*
X133035728Y-138732136D01*
X133179773Y-138732136D01*
X133179773Y-139020227D01*
X133179773Y-139308317D01*
X133035728Y-139308317D01*
X132891683Y-139308317D01*
X132891683Y-139164272D01*
X132891683Y-139020227D01*
X132747637Y-139020227D01*
X132603592Y-139020227D01*
X132603592Y-139164272D01*
X132603592Y-139308317D01*
X132459546Y-139308317D01*
X132315501Y-139308317D01*
X132315501Y-139452363D01*
X132315501Y-139596408D01*
X132171456Y-139596408D01*
X132027410Y-139596408D01*
X132027410Y-139740454D01*
X132027410Y-139884499D01*
X131883365Y-139884499D01*
X131739320Y-139884499D01*
X131739320Y-139740454D01*
X131739320Y-139596408D01*
X131595274Y-139596408D01*
X131451229Y-139596408D01*
X131451229Y-139452363D01*
X131451229Y-139308317D01*
X131307184Y-139308317D01*
X131163138Y-139308317D01*
X131163138Y-139164272D01*
X131163138Y-139020227D01*
X130586957Y-139020227D01*
X130010775Y-139020227D01*
X130010775Y-139452363D01*
X130010775Y-139884499D01*
X130154821Y-139884499D01*
X130298866Y-139884499D01*
X130298866Y-140028544D01*
X130298866Y-140172590D01*
X130154821Y-140172590D01*
X130010775Y-140172590D01*
X130010775Y-140316635D01*
X130010775Y-140460680D01*
X130298866Y-140460680D01*
X130586957Y-140460680D01*
X130586957Y-140604726D01*
X130586957Y-140748771D01*
X130298866Y-140748771D01*
X130010775Y-140748771D01*
X130010775Y-140892816D01*
X130010775Y-141036862D01*
X130298866Y-141036862D01*
X130586957Y-141036862D01*
X130586957Y-140892816D01*
X130586957Y-140748771D01*
X130731002Y-140748771D01*
X130875047Y-140748771D01*
X130875047Y-140892816D01*
X130875047Y-141036862D01*
X131163138Y-141036862D01*
X131451229Y-141036862D01*
X131451229Y-141324953D01*
X131451229Y-141613043D01*
X131307184Y-141613043D01*
X131163138Y-141613043D01*
X131163138Y-141757089D01*
X131163138Y-141901134D01*
G37*
G36*
X134764272Y-141901134D02*
G01*
X134908318Y-141901134D01*
X134908318Y-142045179D01*
X134908318Y-142189225D01*
X135052363Y-142189225D01*
X135196408Y-142189225D01*
X135196408Y-142333270D01*
X135196408Y-142477316D01*
X135340454Y-142477316D01*
X135484499Y-142477316D01*
X135484499Y-142333270D01*
X135484499Y-142189225D01*
X135628545Y-142189225D01*
X135772590Y-142189225D01*
X135772590Y-142621361D01*
X135772590Y-143053497D01*
X136060681Y-143053497D01*
X136348771Y-143053497D01*
X136348771Y-142909452D01*
X136348771Y-142765406D01*
X136492817Y-142765406D01*
X136636862Y-142765406D01*
X136636862Y-142909452D01*
X136636862Y-143053497D01*
X136492817Y-143053497D01*
X136348771Y-143053497D01*
X136348771Y-143341588D01*
X136348771Y-143629678D01*
X136204726Y-143629678D01*
X136060681Y-143629678D01*
X136060681Y-143485633D01*
X136060681Y-143341588D01*
X135772590Y-143341588D01*
X135484499Y-143341588D01*
X135484499Y-143197542D01*
X135484499Y-143053497D01*
X135340454Y-143053497D01*
X135196408Y-143053497D01*
X135196408Y-142909452D01*
X135196408Y-142765406D01*
X135052363Y-142765406D01*
X134908318Y-142765406D01*
X134908318Y-142621361D01*
X134908318Y-142477316D01*
X134620227Y-142477316D01*
X134332136Y-142477316D01*
X134332136Y-142333270D01*
X134332136Y-142189225D01*
X134476182Y-142189225D01*
X134620227Y-142189225D01*
X134620227Y-142045179D01*
X134620227Y-141901134D01*
X134764272Y-141901134D01*
G37*
G36*
X136348771Y-142477316D02*
G01*
X136348771Y-142765406D01*
X136204726Y-142765406D01*
X136060681Y-142765406D01*
X136060681Y-142477316D01*
X136060681Y-142189225D01*
X136204726Y-142189225D01*
X136348771Y-142189225D01*
X136348771Y-142477316D01*
G37*
G36*
X136636862Y-141901134D02*
G01*
X136924953Y-141901134D01*
X136924953Y-142189225D01*
X136924953Y-142477316D01*
X136780908Y-142477316D01*
X136636862Y-142477316D01*
X136636862Y-142333270D01*
X136636862Y-142189225D01*
X136492817Y-142189225D01*
X136348771Y-142189225D01*
X136348771Y-142045179D01*
X136348771Y-141901134D01*
X136636862Y-141901134D01*
G37*
G36*
X136924953Y-135275047D02*
G01*
X136780908Y-135275047D01*
X136636862Y-135275047D01*
X136636862Y-135419092D01*
X136636862Y-135563138D01*
X136492817Y-135563138D01*
X136348771Y-135563138D01*
X136348771Y-135419092D01*
X136348771Y-135275047D01*
X136204726Y-135275047D01*
X136060681Y-135275047D01*
X136060681Y-135419092D01*
X136060681Y-135707183D01*
X136060681Y-136139319D01*
X136204726Y-136139319D01*
X136348771Y-136139319D01*
X136348771Y-135995274D01*
X136348771Y-135851229D01*
X136492817Y-135851229D01*
X136636862Y-135851229D01*
X136636862Y-135995274D01*
X136636862Y-136139319D01*
X136492817Y-136139319D01*
X136348771Y-136139319D01*
X136348771Y-136283365D01*
X136348771Y-136427410D01*
X136492817Y-136427410D01*
X136636862Y-136427410D01*
X136636862Y-136571455D01*
X136636862Y-136715501D01*
X136492817Y-136715501D01*
X136348771Y-136715501D01*
X136348771Y-137003592D01*
X136348771Y-137291682D01*
X136636862Y-137291682D01*
X136924953Y-137291682D01*
X136924953Y-137435728D01*
X136924953Y-137579773D01*
X137213044Y-137579773D01*
X137501134Y-137579773D01*
X137501134Y-137435728D01*
X137501134Y-137291682D01*
X137213044Y-137291682D01*
X136924953Y-137291682D01*
X136924953Y-137147637D01*
X136924953Y-137003592D01*
X137213044Y-137003592D01*
X137501134Y-137003592D01*
X137501134Y-136859546D01*
X137501134Y-136715501D01*
X137357089Y-136715501D01*
X137213044Y-136715501D01*
X137213044Y-136571455D01*
X137213044Y-136427410D01*
X137357089Y-136427410D01*
X137501134Y-136427410D01*
X137501134Y-136571455D01*
X137501134Y-136715501D01*
X137645180Y-136715501D01*
X137789225Y-136715501D01*
X137789225Y-136571455D01*
X137789225Y-136427410D01*
X137933270Y-136427410D01*
X138077316Y-136427410D01*
X138077316Y-136571455D01*
X138077316Y-136715501D01*
X138653497Y-136715501D01*
X139229679Y-136715501D01*
X139229679Y-137003592D01*
X139229679Y-137291682D01*
X138941588Y-137291682D01*
X138653497Y-137291682D01*
X138653497Y-137147637D01*
X138653497Y-137003592D01*
X138221361Y-137003592D01*
X137789225Y-137003592D01*
X137789225Y-137147637D01*
X137789225Y-137291682D01*
X137933270Y-137291682D01*
X138077316Y-137291682D01*
X138077316Y-137435728D01*
X138077316Y-137579773D01*
X137933270Y-137579773D01*
X137789225Y-137579773D01*
X137789225Y-137723818D01*
X137789225Y-137867864D01*
X137933270Y-137867864D01*
X138077316Y-137867864D01*
X138077316Y-137723818D01*
X138077316Y-137579773D01*
X138221361Y-137579773D01*
X138365407Y-137579773D01*
X138365407Y-137723818D01*
X138365407Y-137867864D01*
X138509452Y-137867864D01*
X138653497Y-137867864D01*
X138653497Y-137723818D01*
X138653497Y-137579773D01*
X138797543Y-137579773D01*
X138941588Y-137579773D01*
X138941588Y-137723818D01*
X138941588Y-137867864D01*
X138797543Y-137867864D01*
X138653497Y-137867864D01*
X138653497Y-138011909D01*
X138653497Y-138155954D01*
X138797543Y-138155954D01*
X138941588Y-138155954D01*
X138941588Y-138011909D01*
X138941588Y-137867864D01*
X139085633Y-137867864D01*
X139229679Y-137867864D01*
X139229679Y-138011909D01*
X139229679Y-138155954D01*
X139229679Y-138300000D01*
X139229679Y-138444045D01*
X138941588Y-138444045D01*
X138653497Y-138444045D01*
X138653497Y-138588091D01*
X138653497Y-138732136D01*
X138509452Y-138732136D01*
X138365407Y-138732136D01*
X138365407Y-138876181D01*
X138365407Y-139020227D01*
X138221361Y-139020227D01*
X138077316Y-139020227D01*
X138077316Y-139164272D01*
X138077316Y-139308317D01*
X138221361Y-139308317D01*
X138365407Y-139308317D01*
X138365407Y-139164272D01*
X138365407Y-139020227D01*
X138653497Y-139020227D01*
X138941588Y-139020227D01*
X138941588Y-139164272D01*
X138941588Y-139308317D01*
X138653497Y-139308317D01*
X138365407Y-139308317D01*
X138365407Y-139452363D01*
X138365407Y-139596408D01*
X138653497Y-139596408D01*
X138941588Y-139596408D01*
X138941588Y-139884499D01*
X138941588Y-140172590D01*
X138797543Y-140172590D01*
X138653497Y-140172590D01*
X138653497Y-140028544D01*
X138653497Y-139884499D01*
X138509452Y-139884499D01*
X138365407Y-139884499D01*
X138365407Y-140172590D01*
X138365407Y-140460680D01*
X138509452Y-140460680D01*
X138653497Y-140460680D01*
X138653497Y-140604726D01*
X138653497Y-140748771D01*
X138797543Y-140748771D01*
X138941588Y-140748771D01*
X138941588Y-140460680D01*
X138941588Y-140172590D01*
X139085633Y-140172590D01*
X139229679Y-140172590D01*
X139229679Y-140748771D01*
X139229679Y-141324953D01*
X138797543Y-141324953D01*
X138365407Y-141324953D01*
X138365407Y-141180907D01*
X138365407Y-141036862D01*
X138221361Y-141036862D01*
X138077316Y-141036862D01*
X138077316Y-140892816D01*
X138077316Y-140748771D01*
X137933270Y-140748771D01*
X137789225Y-140748771D01*
X137789225Y-141036862D01*
X137789225Y-141324953D01*
X137213044Y-141324953D01*
X136636862Y-141324953D01*
X136636862Y-141180907D01*
X136636862Y-141036862D01*
X137068998Y-141036862D01*
X137501134Y-141036862D01*
X137501134Y-140892816D01*
X137501134Y-140748771D01*
X137357089Y-140748771D01*
X137213044Y-140748771D01*
X137213044Y-140604726D01*
X137213044Y-140460680D01*
X137357089Y-140460680D01*
X137501134Y-140460680D01*
X137501134Y-140316635D01*
X137501134Y-140172590D01*
X137789225Y-140172590D01*
X138077316Y-140172590D01*
X138077316Y-140028544D01*
X138077316Y-139884499D01*
X137933270Y-139884499D01*
X137789225Y-139884499D01*
X137789225Y-139740454D01*
X137789225Y-139596408D01*
X137501134Y-139596408D01*
X137213044Y-139596408D01*
X137213044Y-139740454D01*
X137213044Y-139884499D01*
X137068998Y-139884499D01*
X136924953Y-139884499D01*
X136924953Y-140028544D01*
X136924953Y-140172590D01*
X136780908Y-140172590D01*
X136636862Y-140172590D01*
X136636862Y-140028544D01*
X136636862Y-139884499D01*
X136492817Y-139884499D01*
X136348771Y-139884499D01*
X136348771Y-139740454D01*
X136348771Y-139596408D01*
X136204726Y-139596408D01*
X136060681Y-139596408D01*
X136060681Y-139452363D01*
X136060681Y-139308317D01*
X136492817Y-139308317D01*
X136924953Y-139308317D01*
X136924953Y-139164272D01*
X136924953Y-139020227D01*
X137068998Y-139020227D01*
X137213044Y-139020227D01*
X137213044Y-139164272D01*
X137213044Y-139308317D01*
X137357089Y-139308317D01*
X137501134Y-139308317D01*
X137501134Y-139164272D01*
X137501134Y-139020227D01*
X137357089Y-139020227D01*
X137213044Y-139020227D01*
X137213044Y-138876181D01*
X137213044Y-138732136D01*
X137357089Y-138732136D01*
X137501134Y-138732136D01*
X137501134Y-138588091D01*
X137501134Y-138444045D01*
X137789225Y-138444045D01*
X137789225Y-138588091D01*
X137789225Y-138732136D01*
X137933270Y-138732136D01*
X138077316Y-138732136D01*
X138077316Y-138588091D01*
X138077316Y-138444045D01*
X137933270Y-138444045D01*
X137789225Y-138444045D01*
X137501134Y-138444045D01*
X137357089Y-138444045D01*
X137213044Y-138444045D01*
X137213044Y-138300000D01*
X137213044Y-138155954D01*
X137501134Y-138155954D01*
X137789225Y-138155954D01*
X138077316Y-138155954D01*
X138077316Y-138300000D01*
X138077316Y-138444045D01*
X138365407Y-138444045D01*
X138653497Y-138444045D01*
X138653497Y-138300000D01*
X138653497Y-138155954D01*
X138365407Y-138155954D01*
X138077316Y-138155954D01*
X137789225Y-138155954D01*
X137789225Y-138011909D01*
X137789225Y-137867864D01*
X137501134Y-137867864D01*
X137213044Y-137867864D01*
X137213044Y-138011909D01*
X137213044Y-138155954D01*
X137068998Y-138155954D01*
X136924953Y-138155954D01*
X136924953Y-138011909D01*
X136924953Y-137867864D01*
X136780908Y-137867864D01*
X136636862Y-137867864D01*
X136636862Y-138011909D01*
X136636862Y-138155954D01*
X136492817Y-138155954D01*
X136348771Y-138155954D01*
X136348771Y-138011909D01*
X136348771Y-137867864D01*
X136060681Y-137867864D01*
X135772590Y-137867864D01*
X135772590Y-138011909D01*
X135772590Y-138155954D01*
X135628545Y-138155954D01*
X135484499Y-138155954D01*
X135484499Y-138011909D01*
X135484499Y-137867864D01*
X135340454Y-137867864D01*
X135196408Y-137867864D01*
X135196408Y-137579773D01*
X135196408Y-137291682D01*
X135340454Y-137291682D01*
X135484499Y-137291682D01*
X135484499Y-137435728D01*
X135484499Y-137579773D01*
X135628545Y-137579773D01*
X135772590Y-137579773D01*
X135772590Y-137435728D01*
X135772590Y-137291682D01*
X135916635Y-137291682D01*
X136060681Y-137291682D01*
X136060681Y-137435728D01*
X136060681Y-137579773D01*
X136204726Y-137579773D01*
X136348771Y-137579773D01*
X136348771Y-137435728D01*
X136348771Y-137291682D01*
X136204726Y-137291682D01*
X136060681Y-137291682D01*
X136060681Y-137147637D01*
X136060681Y-137003592D01*
X135772590Y-137003592D01*
X135484499Y-137003592D01*
X135484499Y-136859546D01*
X135484499Y-136715501D01*
X135340454Y-136715501D01*
X135196408Y-136715501D01*
X135196408Y-136427410D01*
X135484499Y-136427410D01*
X135484499Y-136571455D01*
X135484499Y-136715501D01*
X135628545Y-136715501D01*
X135772590Y-136715501D01*
X135772590Y-136571455D01*
X135772590Y-136427410D01*
X135628545Y-136427410D01*
X135484499Y-136427410D01*
X135196408Y-136427410D01*
X135196408Y-136139319D01*
X135772590Y-136139319D01*
X135772590Y-136283365D01*
X135772590Y-136427410D01*
X135916635Y-136427410D01*
X136060681Y-136427410D01*
X136060681Y-136283365D01*
X136060681Y-136139319D01*
X135916635Y-136139319D01*
X135772590Y-136139319D01*
X135196408Y-136139319D01*
X135052363Y-136139319D01*
X134908318Y-136139319D01*
X134908318Y-135995274D01*
X134908318Y-135851229D01*
X134764272Y-135851229D01*
X134620227Y-135851229D01*
X134620227Y-135419092D01*
X134620227Y-135275047D01*
X134908318Y-135275047D01*
X134908318Y-135419092D01*
X134908318Y-135563138D01*
X135340454Y-135563138D01*
X135772590Y-135563138D01*
X135772590Y-135419092D01*
X135772590Y-135275047D01*
X135340454Y-135275047D01*
X134908318Y-135275047D01*
X134620227Y-135275047D01*
X134620227Y-134986956D01*
X134476182Y-134986956D01*
X134332136Y-134986956D01*
X134332136Y-134842911D01*
X134332136Y-134698866D01*
X134476182Y-134698866D01*
X134620227Y-134698866D01*
X134620227Y-134842911D01*
X134620227Y-134986956D01*
X134764272Y-134986956D01*
X134908318Y-134986956D01*
X134908318Y-134698866D01*
X135196408Y-134698866D01*
X135196408Y-134842911D01*
X135196408Y-134986956D01*
X135340454Y-134986956D01*
X135484499Y-134986956D01*
X135772590Y-134986956D01*
X135916635Y-134986956D01*
X136060681Y-134986956D01*
X136348771Y-134986956D01*
X136492817Y-134986956D01*
X136636862Y-134986956D01*
X136636862Y-134698866D01*
X136636862Y-134410775D01*
X136492817Y-134410775D01*
X136348771Y-134410775D01*
X136348771Y-134698866D01*
X136348771Y-134842911D01*
X136348771Y-134986956D01*
X136060681Y-134986956D01*
X136060681Y-134842911D01*
X136060681Y-134698866D01*
X135916635Y-134698866D01*
X135772590Y-134698866D01*
X135772590Y-134842911D01*
X135772590Y-134986956D01*
X135484499Y-134986956D01*
X135484499Y-134842911D01*
X135484499Y-134698866D01*
X135340454Y-134698866D01*
X135196408Y-134698866D01*
X134908318Y-134698866D01*
X134908318Y-134410775D01*
X134620227Y-134410775D01*
X134332136Y-134410775D01*
X134332136Y-134266730D01*
X134332136Y-134122684D01*
X134620227Y-134122684D01*
X134908318Y-134122684D01*
X134908318Y-133978639D01*
X134908318Y-133834593D01*
X135052363Y-133834593D01*
X135196408Y-133834593D01*
X135196408Y-134122684D01*
X135196408Y-134410775D01*
X135340454Y-134410775D01*
X135484499Y-134410775D01*
X135484499Y-134122684D01*
X135484499Y-133834593D01*
X135628545Y-133834593D01*
X135772590Y-133834593D01*
X135772590Y-133978639D01*
X135772590Y-134122684D01*
X136060681Y-134122684D01*
X136348771Y-134122684D01*
X136348771Y-133978639D01*
X136348771Y-133834593D01*
X136492817Y-133834593D01*
X136636862Y-133834593D01*
X136636862Y-133690548D01*
X136636862Y-133546503D01*
X136492817Y-133546503D01*
X136348771Y-133546503D01*
X136348771Y-133402457D01*
X136348771Y-133258412D01*
X136636862Y-133258412D01*
X136924953Y-133258412D01*
X136924953Y-134266730D01*
X136924953Y-134698866D01*
X136924953Y-135275047D01*
G37*
G36*
X135772590Y-139020227D02*
G01*
X135628545Y-139020227D01*
X135484499Y-139020227D01*
X135484499Y-139164272D01*
X135484499Y-139308317D01*
X135628545Y-139308317D01*
X135772590Y-139308317D01*
X135772590Y-139452363D01*
X135772590Y-139596408D01*
X135628545Y-139596408D01*
X135484499Y-139596408D01*
X135484499Y-139740454D01*
X135484499Y-139884499D01*
X135340454Y-139884499D01*
X135196408Y-139884499D01*
X135196408Y-139596408D01*
X135196408Y-139308317D01*
X135052363Y-139308317D01*
X134908318Y-139308317D01*
X134908318Y-139452363D01*
X134908318Y-139596408D01*
X134764272Y-139596408D01*
X134620227Y-139596408D01*
X134620227Y-139452363D01*
X134620227Y-139308317D01*
X134476182Y-139308317D01*
X134332136Y-139308317D01*
X134332136Y-139452363D01*
X134332136Y-139596408D01*
X133755955Y-139596408D01*
X133179773Y-139596408D01*
X133179773Y-139452363D01*
X133179773Y-139308317D01*
X133323819Y-139308317D01*
X133467864Y-139308317D01*
X133467864Y-139164272D01*
X133467864Y-139020227D01*
X133611909Y-139020227D01*
X133755955Y-139020227D01*
X133755955Y-138876181D01*
X133755955Y-138732136D01*
X134332136Y-138732136D01*
X134332136Y-138876181D01*
X134332136Y-139020227D01*
X134620227Y-139020227D01*
X134908318Y-139020227D01*
X134908318Y-138876181D01*
X134908318Y-138732136D01*
X134620227Y-138732136D01*
X134332136Y-138732136D01*
X133755955Y-138732136D01*
X133611909Y-138732136D01*
X133467864Y-138732136D01*
X133467864Y-138588091D01*
X133467864Y-138444045D01*
X133323819Y-138444045D01*
X133179773Y-138444045D01*
X133179773Y-138300000D01*
X133179773Y-138155954D01*
X133467864Y-138155954D01*
X133755955Y-138155954D01*
X133755955Y-138011909D01*
X133755955Y-137867864D01*
X133900000Y-137867864D01*
X134044046Y-137867864D01*
X134044046Y-138011909D01*
X134044046Y-138155954D01*
X134188091Y-138155954D01*
X134332136Y-138155954D01*
X134332136Y-138011909D01*
X134332136Y-137867864D01*
X134476182Y-137867864D01*
X134620227Y-137867864D01*
X134620227Y-138011909D01*
X134620227Y-138155954D01*
X134476182Y-138155954D01*
X134332136Y-138155954D01*
X134332136Y-138300000D01*
X134332136Y-138444045D01*
X134620227Y-138444045D01*
X134908318Y-138444045D01*
X134908318Y-138300000D01*
X134908318Y-138155954D01*
X135052363Y-138155954D01*
X135196408Y-138155954D01*
X135196408Y-138300000D01*
X135196408Y-138444045D01*
X135052363Y-138444045D01*
X134908318Y-138444045D01*
X134908318Y-138588091D01*
X134908318Y-138732136D01*
X135340454Y-138732136D01*
X135772590Y-138732136D01*
X135772590Y-138444045D01*
X135772590Y-138155954D01*
X135916635Y-138155954D01*
X136060681Y-138155954D01*
X136060681Y-138444045D01*
X136060681Y-138732136D01*
X135916635Y-138732136D01*
X135772590Y-138732136D01*
X135772590Y-138876181D01*
X135772590Y-139020227D01*
G37*
G36*
X129146503Y-136427410D02*
G01*
X129434594Y-136427410D01*
X129434594Y-136571455D01*
X129434594Y-136715501D01*
X129290548Y-136715501D01*
X129146503Y-136715501D01*
X129146503Y-136859546D01*
X129146503Y-137003592D01*
X129290548Y-137003592D01*
X129434594Y-137003592D01*
X129434594Y-137147637D01*
X129434594Y-137291682D01*
X129290548Y-137291682D01*
X129146503Y-137291682D01*
X129146503Y-137435728D01*
X129146503Y-137579773D01*
X128858412Y-137579773D01*
X128570322Y-137579773D01*
X128570322Y-137435728D01*
X128570322Y-137291682D01*
X128714367Y-137291682D01*
X128858412Y-137291682D01*
X128858412Y-136859546D01*
X128858412Y-136427410D01*
X129146503Y-136427410D01*
G37*
G36*
X133755955Y-136139319D02*
G01*
X133611909Y-136139319D01*
X133467864Y-136139319D01*
X133467864Y-136283365D01*
X133467864Y-136427410D01*
X133611909Y-136427410D01*
X133755955Y-136427410D01*
X133755955Y-136571455D01*
X133755955Y-136715501D01*
X133611909Y-136715501D01*
X133467864Y-136715501D01*
X133467864Y-136859546D01*
X133467864Y-137003592D01*
X133323819Y-137003592D01*
X133179773Y-137003592D01*
X133179773Y-136571455D01*
X133179773Y-136139319D01*
X133035728Y-136139319D01*
X132891683Y-136139319D01*
X132891683Y-136283365D01*
X132891683Y-136427410D01*
X132747637Y-136427410D01*
X132603592Y-136427410D01*
X132603592Y-136571455D01*
X132603592Y-136715501D01*
X132459546Y-136715501D01*
X132315501Y-136715501D01*
X132315501Y-136427410D01*
X132315501Y-136139319D01*
X132171456Y-136139319D01*
X132027410Y-136139319D01*
X132027410Y-135851229D01*
X132027410Y-135563138D01*
X132171456Y-135563138D01*
X132315501Y-135563138D01*
X132315501Y-135707183D01*
X132315501Y-135851229D01*
X132459546Y-135851229D01*
X132603592Y-135851229D01*
X133179773Y-135851229D01*
X133179773Y-135995274D01*
X133179773Y-136139319D01*
X133323819Y-136139319D01*
X133467864Y-136139319D01*
X133467864Y-135995274D01*
X133467864Y-135851229D01*
X133323819Y-135851229D01*
X133179773Y-135851229D01*
X132603592Y-135851229D01*
X132603592Y-135707183D01*
X132603592Y-135563138D01*
X132459546Y-135563138D01*
X132315501Y-135563138D01*
X132315501Y-135419092D01*
X132315501Y-135275047D01*
X132171456Y-135275047D01*
X132027410Y-135275047D01*
X132027410Y-134986956D01*
X132027410Y-134698866D01*
X132171456Y-134698866D01*
X132315501Y-134698866D01*
X132315501Y-134842911D01*
X132315501Y-134986956D01*
X132459546Y-134986956D01*
X132603592Y-134986956D01*
X132603592Y-134842911D01*
X132603592Y-134698866D01*
X132747637Y-134698866D01*
X132891683Y-134698866D01*
X132891683Y-134842911D01*
X132891683Y-134986956D01*
X132747637Y-134986956D01*
X132603592Y-134986956D01*
X132603592Y-135131002D01*
X132603592Y-135275047D01*
X132747637Y-135275047D01*
X132891683Y-135275047D01*
X132891683Y-135419092D01*
X132891683Y-135563138D01*
X133467864Y-135563138D01*
X134044046Y-135563138D01*
X134044046Y-135419092D01*
X134044046Y-135275047D01*
X134188091Y-135275047D01*
X134332136Y-135275047D01*
X134332136Y-135419092D01*
X134332136Y-135563138D01*
X134188091Y-135563138D01*
X134044046Y-135563138D01*
X134044046Y-135707183D01*
X134044046Y-135851229D01*
X133900000Y-135851229D01*
X133755955Y-135851229D01*
X133755955Y-135995274D01*
X133755955Y-136139319D01*
G37*
G36*
X137213044Y-136283365D02*
G01*
X137213044Y-136427410D01*
X137068998Y-136427410D01*
X136924953Y-136427410D01*
X136924953Y-136283365D01*
X136924953Y-136139319D01*
X137068998Y-136139319D01*
X137213044Y-136139319D01*
X137213044Y-136283365D01*
G37*
G36*
X128858412Y-136283365D02*
G01*
X128858412Y-136427410D01*
X128714367Y-136427410D01*
X128570322Y-136427410D01*
X128570322Y-136283365D01*
X128570322Y-136139319D01*
X128714367Y-136139319D01*
X128858412Y-136139319D01*
X128858412Y-136283365D01*
G37*
G36*
X134476182Y-136139319D02*
G01*
X134620227Y-136139319D01*
X134620227Y-136283365D01*
X134620227Y-136427410D01*
X134476182Y-136427410D01*
X134332136Y-136427410D01*
X134332136Y-136283365D01*
X134332136Y-136139319D01*
X134476182Y-136139319D01*
G37*
G36*
X134188091Y-135851229D02*
G01*
X134332136Y-135851229D01*
X134332136Y-135995274D01*
X134332136Y-136139319D01*
X134188091Y-136139319D01*
X134044046Y-136139319D01*
X134044046Y-135995274D01*
X134044046Y-135851229D01*
X134188091Y-135851229D01*
G37*
G36*
X132027410Y-133114367D02*
G01*
X132027410Y-133258412D01*
X132459546Y-133258412D01*
X132891683Y-133258412D01*
X132891683Y-133114367D01*
X132891683Y-132970321D01*
X133035728Y-132970321D01*
X133179773Y-132970321D01*
X133179773Y-133402457D01*
X133179773Y-133834593D01*
X133323819Y-133834593D01*
X133467864Y-133834593D01*
X133467864Y-133978639D01*
X133467864Y-134122684D01*
X133323819Y-134122684D01*
X133179773Y-134122684D01*
X133179773Y-134266730D01*
X133179773Y-134410775D01*
X133611909Y-134410775D01*
X134044046Y-134410775D01*
X134044046Y-134698866D01*
X134044046Y-134986956D01*
X133900000Y-134986956D01*
X133755955Y-134986956D01*
X133755955Y-134842911D01*
X133755955Y-134698866D01*
X133611909Y-134698866D01*
X133467864Y-134698866D01*
X133467864Y-134986956D01*
X133467864Y-135275047D01*
X133323819Y-135275047D01*
X133179773Y-135275047D01*
X133179773Y-134986956D01*
X133179773Y-134698866D01*
X133035728Y-134698866D01*
X132891683Y-134698866D01*
X132891683Y-134410775D01*
X132891683Y-134122684D01*
X132747637Y-134122684D01*
X132603592Y-134122684D01*
X132603592Y-133834593D01*
X132603592Y-133546503D01*
X132459546Y-133546503D01*
X132315501Y-133546503D01*
X132315501Y-133834593D01*
X132315501Y-134122684D01*
X132171456Y-134122684D01*
X132027410Y-134122684D01*
X132027410Y-133978639D01*
X132027410Y-133834593D01*
X131883365Y-133834593D01*
X131739320Y-133834593D01*
X131739320Y-133978639D01*
X131739320Y-134122684D01*
X131883365Y-134122684D01*
X132027410Y-134122684D01*
X132027410Y-134410775D01*
X132027410Y-134698866D01*
X131883365Y-134698866D01*
X131739320Y-134698866D01*
X131739320Y-134842911D01*
X131739320Y-134986956D01*
X131595274Y-134986956D01*
X131451229Y-134986956D01*
X131451229Y-134842911D01*
X131451229Y-134698866D01*
X131307184Y-134698866D01*
X131163138Y-134698866D01*
X131163138Y-134842911D01*
X131163138Y-134986956D01*
X131307184Y-134986956D01*
X131451229Y-134986956D01*
X131451229Y-135419092D01*
X131451229Y-135851229D01*
X131307184Y-135851229D01*
X131163138Y-135851229D01*
X131163138Y-135563138D01*
X131163138Y-135275047D01*
X131019093Y-135275047D01*
X130875047Y-135275047D01*
X130875047Y-134698866D01*
X130875047Y-134122684D01*
X131019093Y-134122684D01*
X131163138Y-134122684D01*
X131163138Y-133978639D01*
X131163138Y-133834593D01*
X131019093Y-133834593D01*
X130875047Y-133834593D01*
X130875047Y-133690548D01*
X130875047Y-133546503D01*
X131163138Y-133546503D01*
X131451229Y-133546503D01*
X131451229Y-133690548D01*
X131451229Y-133834593D01*
X131595274Y-133834593D01*
X131739320Y-133834593D01*
X131739320Y-133690548D01*
X131739320Y-133546503D01*
X131883365Y-133546503D01*
X132027410Y-133546503D01*
X132027410Y-133402457D01*
X132027410Y-133258412D01*
X131451229Y-133258412D01*
X130875047Y-133258412D01*
X130875047Y-133114367D01*
X130875047Y-132970321D01*
X131451229Y-132970321D01*
X132027410Y-132970321D01*
X132027410Y-133114367D01*
G37*
G36*
X136780908Y-135563138D02*
G01*
X136924953Y-135563138D01*
X136924953Y-135707183D01*
X136924953Y-135851229D01*
X136780908Y-135851229D01*
X136636862Y-135851229D01*
X136636862Y-135707183D01*
X136636862Y-135563138D01*
X136780908Y-135563138D01*
G37*
%TO.C,C_BUCK_IN1*%
D11*
X130761252Y-104765000D02*
X130238748Y-104765000D01*
X130761252Y-106235000D02*
X130238748Y-106235000D01*
%TO.C,C_HALL1*%
X151627836Y-65640000D02*
X151412164Y-65640000D01*
X151627836Y-66360000D02*
X151412164Y-66360000D01*
%TO.C,R_GATE1*%
X148163641Y-114120000D02*
X147856359Y-114120000D01*
X148163641Y-114880000D02*
X147856359Y-114880000D01*
%TO.C,Q_LATCH1*%
X148677500Y-119390000D02*
X148677500Y-119440000D01*
X148677500Y-120560000D02*
X148677500Y-121340000D01*
X148677500Y-122460000D02*
X148677500Y-122510000D01*
X148677500Y-122510000D02*
X150197500Y-122510000D01*
X150197500Y-119390000D02*
X148677500Y-119390000D01*
X150197500Y-120390000D02*
X150197500Y-119390000D01*
X150197500Y-122510000D02*
X150197500Y-121510000D01*
X148137500Y-121330000D02*
X148377500Y-121000000D01*
X147897500Y-121000000D01*
X148137500Y-121330000D01*
G36*
X148137500Y-121330000D02*
G01*
X147897500Y-121000000D01*
X148377500Y-121000000D01*
X148137500Y-121330000D01*
G37*
%TO.C,C_SYS_2*%
X135140000Y-117372164D02*
X135140000Y-117587836D01*
X135860000Y-117372164D02*
X135860000Y-117587836D01*
D12*
%TO.C,G\u002A\u002A\u002A*%
G36*
X147805834Y-142768203D02*
G01*
X147770744Y-142815612D01*
X147706216Y-142895143D01*
X147619129Y-142998420D01*
X147516363Y-143117066D01*
X147328776Y-143331027D01*
X147302669Y-143360805D01*
X147272211Y-143395545D01*
X147246104Y-143425322D01*
X147222526Y-143452215D01*
X147462615Y-143812426D01*
X147482463Y-143842204D01*
X147502310Y-143871981D01*
X147518849Y-143896795D01*
X147542004Y-143931535D01*
X147712156Y-144186817D01*
X148201785Y-144921420D01*
X149110380Y-145153892D01*
X150018975Y-145386364D01*
X150001812Y-145611822D01*
X149996249Y-145697912D01*
X149988698Y-145835689D01*
X149979842Y-146012382D01*
X149970190Y-146217500D01*
X149960250Y-146440551D01*
X149950529Y-146671043D01*
X149949221Y-146702875D01*
X149940132Y-146916851D01*
X149931452Y-147109517D01*
X149923561Y-147273234D01*
X149916840Y-147400360D01*
X149911672Y-147483257D01*
X149908437Y-147514285D01*
X149900092Y-147513258D01*
X149844275Y-147501106D01*
X149742789Y-147477223D01*
X149603555Y-147443592D01*
X149434496Y-147402198D01*
X149243533Y-147355025D01*
X149038588Y-147304057D01*
X148827582Y-147251278D01*
X148618439Y-147198672D01*
X148419079Y-147148224D01*
X148237425Y-147101917D01*
X148081398Y-147061737D01*
X147958920Y-147029666D01*
X147877913Y-147007689D01*
X147846299Y-146997791D01*
X147845598Y-146990993D01*
X147846035Y-146936129D01*
X147848973Y-146832299D01*
X147854147Y-146686733D01*
X147861289Y-146506658D01*
X147870133Y-146299302D01*
X147880412Y-146071894D01*
X147923092Y-145152403D01*
X147740093Y-144928241D01*
X147727227Y-144912480D01*
X147633209Y-144797240D01*
X147517374Y-144655183D01*
X147393211Y-144502854D01*
X147274210Y-144356799D01*
X147183526Y-144247094D01*
X147082080Y-144131052D01*
X147003690Y-144052081D01*
X146941608Y-144003559D01*
X146889083Y-143978863D01*
X146807802Y-143964642D01*
X146736063Y-143989342D01*
X146678104Y-144066581D01*
X146670506Y-144092042D01*
X146656182Y-144171134D01*
X146649592Y-144216816D01*
X146638858Y-144291221D01*
X146619583Y-144442295D01*
X146599405Y-144614350D01*
X146579374Y-144797377D01*
X146560539Y-144981368D01*
X146543948Y-145156315D01*
X146530650Y-145312212D01*
X146521694Y-145439051D01*
X146518129Y-145526823D01*
X146521004Y-145565520D01*
X146523183Y-145568889D01*
X146552788Y-145611074D01*
X146611833Y-145693525D01*
X146695728Y-145809884D01*
X146799880Y-145953793D01*
X146919698Y-146118894D01*
X147050589Y-146298827D01*
X147081763Y-146341644D01*
X147210549Y-146518764D01*
X147327237Y-146679618D01*
X147427228Y-146817837D01*
X147505919Y-146927052D01*
X147558709Y-147000894D01*
X147574137Y-147023114D01*
X147580998Y-147032995D01*
X147577889Y-147044975D01*
X147542247Y-147098282D01*
X147470615Y-147189429D01*
X147366023Y-147314814D01*
X147231503Y-147470836D01*
X147070085Y-147653892D01*
X146884800Y-147860380D01*
X146167810Y-148653362D01*
X146114765Y-148585297D01*
X146057532Y-148510263D01*
X145973630Y-148397606D01*
X145871659Y-148258890D01*
X145756455Y-148100856D01*
X145632851Y-147930246D01*
X145505683Y-147753803D01*
X145379785Y-147578268D01*
X145259991Y-147410384D01*
X145151137Y-147256892D01*
X145058057Y-147124534D01*
X144985585Y-147020053D01*
X144947113Y-146962901D01*
X145209613Y-146962901D01*
X145223272Y-146983040D01*
X145268566Y-147047244D01*
X145340072Y-147147481D01*
X145432761Y-147276726D01*
X145541601Y-147427953D01*
X145661564Y-147594138D01*
X145748403Y-147713952D01*
X145864109Y-147872589D01*
X145966773Y-148012193D01*
X146050967Y-148125433D01*
X146111262Y-148204976D01*
X146142232Y-148243489D01*
X146153691Y-148254099D01*
X146172000Y-148260954D01*
X146196893Y-148254141D01*
X146233105Y-148229274D01*
X146285370Y-148181966D01*
X146358419Y-148107830D01*
X146456988Y-148002479D01*
X146585808Y-147861527D01*
X146749614Y-147680586D01*
X146876605Y-147538820D01*
X147020434Y-147374610D01*
X147137302Y-147236694D01*
X147223714Y-147129312D01*
X147276178Y-147056705D01*
X147291202Y-147023114D01*
X147284885Y-147011071D01*
X147248337Y-146954671D01*
X147185259Y-146863507D01*
X147101216Y-146745140D01*
X147001775Y-146607130D01*
X146892501Y-146457040D01*
X146778958Y-146302430D01*
X146666713Y-146150862D01*
X146561331Y-146009896D01*
X146468377Y-145887094D01*
X146393416Y-145790017D01*
X146342015Y-145726226D01*
X146319738Y-145703282D01*
X146299349Y-145716473D01*
X146244255Y-145768153D01*
X146162270Y-145852465D01*
X146059514Y-145962466D01*
X145942106Y-146091213D01*
X145816164Y-146231763D01*
X145687807Y-146377173D01*
X145563154Y-146520501D01*
X145448324Y-146654803D01*
X145349436Y-146773137D01*
X145272609Y-146868560D01*
X145223962Y-146934129D01*
X145209613Y-146962901D01*
X144947113Y-146962901D01*
X144938557Y-146950191D01*
X144921806Y-146921689D01*
X144924981Y-146915105D01*
X144958984Y-146870258D01*
X145026324Y-146789342D01*
X145122116Y-146677996D01*
X145241481Y-146541857D01*
X145379537Y-146386561D01*
X145531401Y-146217745D01*
X146140996Y-145543933D01*
X146149279Y-144661059D01*
X146152648Y-144302062D01*
X146355598Y-144302062D01*
X146357580Y-144441210D01*
X146366003Y-144795076D01*
X146401029Y-144452637D01*
X146407974Y-144379645D01*
X146417809Y-144216816D01*
X146413989Y-144110842D01*
X146396547Y-144062104D01*
X146365520Y-144070979D01*
X146359880Y-144104625D01*
X146356453Y-144185775D01*
X146355598Y-144302062D01*
X146152648Y-144302062D01*
X146156125Y-143931535D01*
X146678665Y-143931535D01*
X146693553Y-143946424D01*
X146708442Y-143931535D01*
X146693553Y-143916647D01*
X146678665Y-143931535D01*
X146156125Y-143931535D01*
X146156367Y-143905752D01*
X146564823Y-143905752D01*
X146589333Y-143916647D01*
X146605097Y-143914498D01*
X146609184Y-143896795D01*
X146604820Y-143893232D01*
X146569481Y-143896795D01*
X146564823Y-143905752D01*
X146156367Y-143905752D01*
X146156684Y-143871981D01*
X146470224Y-143871981D01*
X146485112Y-143886870D01*
X146500001Y-143871981D01*
X146485112Y-143857092D01*
X146470224Y-143871981D01*
X146156684Y-143871981D01*
X146156963Y-143842204D01*
X146351115Y-143842204D01*
X146366003Y-143857092D01*
X146380892Y-143842204D01*
X146366003Y-143827315D01*
X146351115Y-143842204D01*
X146156963Y-143842204D01*
X146157242Y-143812426D01*
X146232006Y-143812426D01*
X146246894Y-143827315D01*
X146261783Y-143812426D01*
X146246894Y-143797538D01*
X146232006Y-143812426D01*
X146157242Y-143812426D01*
X146157563Y-143778184D01*
X145718348Y-143664555D01*
X145620651Y-143639189D01*
X145480774Y-143601760D01*
X145385510Y-143573193D01*
X145326356Y-143549774D01*
X145294805Y-143527785D01*
X145282354Y-143503511D01*
X145280497Y-143473235D01*
X145280498Y-143473206D01*
X145284697Y-143425322D01*
X147095546Y-143425322D01*
X147110435Y-143440211D01*
X147125323Y-143425322D01*
X147110435Y-143410433D01*
X147095546Y-143425322D01*
X145284697Y-143425322D01*
X145284838Y-143423711D01*
X145288086Y-143395545D01*
X146976437Y-143395545D01*
X146991326Y-143410433D01*
X147006214Y-143395545D01*
X146991326Y-143380656D01*
X146976437Y-143395545D01*
X145288086Y-143395545D01*
X145291060Y-143369761D01*
X146832818Y-143369761D01*
X146857328Y-143380656D01*
X146873092Y-143378507D01*
X146877180Y-143360805D01*
X146872815Y-143357241D01*
X146837477Y-143360805D01*
X146832818Y-143369761D01*
X145291060Y-143369761D01*
X145294494Y-143339984D01*
X146713709Y-143339984D01*
X146738219Y-143350879D01*
X146753983Y-143348730D01*
X146758071Y-143331027D01*
X146753706Y-143327464D01*
X146718368Y-143331027D01*
X146713709Y-143339984D01*
X145294494Y-143339984D01*
X145296359Y-143323816D01*
X145313974Y-143182087D01*
X145336595Y-143007090D01*
X145363133Y-142807392D01*
X145392500Y-142591559D01*
X145503138Y-141787573D01*
X144439773Y-139763692D01*
X144409394Y-139705864D01*
X144204787Y-139315948D01*
X144026686Y-138975623D01*
X143873777Y-138682277D01*
X143744747Y-138433301D01*
X143638283Y-138226082D01*
X143553070Y-138058011D01*
X143487797Y-137926475D01*
X143441150Y-137828865D01*
X143411815Y-137762569D01*
X143398479Y-137724977D01*
X143399830Y-137713477D01*
X143414552Y-137725459D01*
X143418529Y-137731112D01*
X143450174Y-137777976D01*
X143511211Y-137869070D01*
X143599157Y-138000671D01*
X143711532Y-138169058D01*
X143845853Y-138370507D01*
X143999640Y-138601296D01*
X144170412Y-138857704D01*
X144355685Y-139136008D01*
X144552980Y-139432486D01*
X144759815Y-139743416D01*
X146093692Y-141748965D01*
X145994723Y-142408480D01*
X145980857Y-142500441D01*
X145952643Y-142684819D01*
X145927463Y-142845763D01*
X145906734Y-142974402D01*
X145891876Y-143061868D01*
X145884305Y-143099289D01*
X145904544Y-143117288D01*
X145974299Y-143145074D01*
X146084954Y-143178928D01*
X146227566Y-143215815D01*
X146582277Y-143301046D01*
X146766277Y-143104349D01*
X146798125Y-143070127D01*
X146887432Y-142972402D01*
X146963149Y-142887155D01*
X147011565Y-142829738D01*
X147020031Y-142818957D01*
X147054230Y-142768560D01*
X147052004Y-142733510D01*
X147013775Y-142686580D01*
X147010735Y-142683225D01*
X146967850Y-142636084D01*
X146893010Y-142553953D01*
X146793407Y-142444720D01*
X146676235Y-142316276D01*
X146548686Y-142176508D01*
X146142674Y-141731680D01*
X146142751Y-141638687D01*
X146353316Y-141638687D01*
X146828652Y-142154837D01*
X146853007Y-142181284D01*
X147011825Y-142354640D01*
X147133277Y-142491813D01*
X147219946Y-142599562D01*
X147274414Y-142684646D01*
X147299264Y-142753824D01*
X147297080Y-142813857D01*
X147270442Y-142871502D01*
X147221936Y-142933520D01*
X147154142Y-143006669D01*
X147096994Y-143068731D01*
X147048109Y-143130163D01*
X147034853Y-143165616D01*
X147052357Y-143183550D01*
X147078048Y-143192336D01*
X147123423Y-143201993D01*
X147127522Y-143200734D01*
X147164714Y-143170436D01*
X147225873Y-143108884D01*
X147300177Y-143028334D01*
X147376805Y-142941045D01*
X147444937Y-142859275D01*
X147493752Y-142795282D01*
X147512428Y-142761324D01*
X147500232Y-142741146D01*
X147453425Y-142680868D01*
X147376517Y-142587571D01*
X147274827Y-142467594D01*
X147153679Y-142327275D01*
X147018393Y-142172950D01*
X146913740Y-142054065D01*
X146783948Y-141905566D01*
X146670112Y-141774134D01*
X146578133Y-141666629D01*
X146513914Y-141589915D01*
X146483355Y-141550853D01*
X146481396Y-141547513D01*
X146462318Y-141488961D01*
X146440801Y-141386174D01*
X146419341Y-141252662D01*
X146400432Y-141101933D01*
X146358512Y-140715592D01*
X146355914Y-141177139D01*
X146353316Y-141638687D01*
X146142751Y-141638687D01*
X146144689Y-139303003D01*
X146144796Y-139198783D01*
X146145582Y-138809105D01*
X146146922Y-138445885D01*
X146148773Y-138112799D01*
X146151093Y-137813526D01*
X146153839Y-137551742D01*
X146156967Y-137331126D01*
X146160435Y-137155354D01*
X146164198Y-137028104D01*
X146168215Y-136953054D01*
X146172442Y-136933880D01*
X146172503Y-136934025D01*
X146179716Y-136973479D01*
X146192353Y-137067367D01*
X146209884Y-137210934D01*
X146231781Y-137399426D01*
X146257516Y-137628089D01*
X146286560Y-137892167D01*
X146318383Y-138186907D01*
X146352458Y-138507553D01*
X146388257Y-138849353D01*
X146425249Y-139207550D01*
X146652318Y-141421665D01*
X147231259Y-142079219D01*
X147274741Y-142128669D01*
X147417986Y-142292513D01*
X147546148Y-142440521D01*
X147654338Y-142566951D01*
X147737670Y-142666060D01*
X147791253Y-142732106D01*
X147810200Y-142759346D01*
X147809225Y-142761324D01*
X147805834Y-142768203D01*
G37*
%TO.C,C_BAT1*%
D11*
X137188748Y-119765000D02*
X137711252Y-119765000D01*
X137188748Y-121235000D02*
X137711252Y-121235000D01*
%TO.C,U_CHG1*%
D13*
X135050000Y-118200000D02*
G75*
G02*
X134850000Y-118200000I-100000J0D01*
G01*
X134850000Y-118200000D02*
G75*
G02*
X135050000Y-118200000I100000J0D01*
G01*
%TO.C,R_STAT2*%
D11*
X137446359Y-122420000D02*
X137753641Y-122420000D01*
X137446359Y-123180000D02*
X137753641Y-123180000D01*
%TO.C,U_HALL1*%
X153230000Y-64850000D02*
X149630000Y-64850000D01*
X149591522Y-64838478D02*
G75*
G02*
X151430000Y-60399999I1838478J1838478D01*
G01*
X151430000Y-60400000D02*
G75*
G02*
X153268478Y-64838478I0J-2600000D01*
G01*
%TO.C,D_OR2*%
X143000000Y-122360000D02*
X143000000Y-118350000D01*
X145000000Y-122360000D02*
X143000000Y-122360000D01*
X145000000Y-122360000D02*
X145000000Y-118350000D01*
D12*
%TO.C,G\u002A\u002A\u002A*%
G36*
X147149257Y-154123111D02*
G01*
X147313301Y-154153744D01*
X147458505Y-154225310D01*
X147590051Y-154340104D01*
X147607636Y-154359605D01*
X147710454Y-154499175D01*
X147779560Y-154650209D01*
X147818254Y-154822124D01*
X147829836Y-155024338D01*
X147828770Y-155085353D01*
X147820542Y-155203836D01*
X147802220Y-155319772D01*
X147771420Y-155441818D01*
X147725761Y-155578633D01*
X147662861Y-155738876D01*
X147580337Y-155931205D01*
X147527803Y-156051253D01*
X147470821Y-156183414D01*
X147420584Y-156301941D01*
X147381133Y-156397283D01*
X147356513Y-156459890D01*
X147335055Y-156515158D01*
X147306910Y-156579497D01*
X147286702Y-156616180D01*
X147278690Y-156624811D01*
X147229322Y-156643568D01*
X147168291Y-156630347D01*
X147104801Y-156592035D01*
X147048055Y-156535516D01*
X147007258Y-156467678D01*
X146991614Y-156395407D01*
X146994893Y-156374206D01*
X147016422Y-156304626D01*
X147057851Y-156194303D01*
X147118952Y-156043810D01*
X147199497Y-155853719D01*
X147299256Y-155624604D01*
X147316906Y-155584306D01*
X147383891Y-155426124D01*
X147432920Y-155297842D01*
X147466562Y-155190203D01*
X147487387Y-155093950D01*
X147497968Y-154999827D01*
X147500874Y-154898577D01*
X147498544Y-154798941D01*
X147483550Y-154667509D01*
X147452132Y-154573427D01*
X147401366Y-154512053D01*
X147328328Y-154478746D01*
X147230093Y-154468867D01*
X147118925Y-154485032D01*
X146987029Y-154540592D01*
X146860572Y-154629361D01*
X146747139Y-154744707D01*
X146654316Y-154880001D01*
X146589689Y-155028612D01*
X146580401Y-155050231D01*
X146537450Y-155088515D01*
X146477423Y-155095166D01*
X146410037Y-155072727D01*
X146345012Y-155023740D01*
X146292065Y-154950748D01*
X146280790Y-154928414D01*
X146263379Y-154880451D01*
X146265322Y-154834584D01*
X146285855Y-154768396D01*
X146343128Y-154635073D01*
X146437765Y-154489899D01*
X146568222Y-154352270D01*
X146696213Y-154247478D01*
X146822751Y-154174387D01*
X146952607Y-154134052D01*
X147097049Y-154121556D01*
X147149257Y-154123111D01*
G37*
G36*
X146559219Y-155450093D02*
G01*
X146635642Y-155518261D01*
X146660391Y-155549033D01*
X146677590Y-155579019D01*
X146687145Y-155616284D01*
X146690376Y-155670569D01*
X146688601Y-155751617D01*
X146683139Y-155869171D01*
X146671792Y-156025290D01*
X146617352Y-156373640D01*
X146522337Y-156705334D01*
X146385001Y-157027164D01*
X146346762Y-157101417D01*
X146286740Y-157205869D01*
X146221221Y-157302241D01*
X146144072Y-157397932D01*
X146049155Y-157500340D01*
X145930337Y-157616864D01*
X145781480Y-157754902D01*
X145755246Y-157778911D01*
X145586259Y-157939334D01*
X145452846Y-158077850D01*
X145352309Y-158197634D01*
X145281953Y-158301863D01*
X145239080Y-158393712D01*
X145211523Y-158473288D01*
X145356410Y-158518039D01*
X145443730Y-158542260D01*
X145623484Y-158577961D01*
X145807276Y-158598353D01*
X145983385Y-158602870D01*
X146140091Y-158590945D01*
X146265675Y-158562011D01*
X146336350Y-158552312D01*
X146422233Y-158572761D01*
X146498812Y-158620220D01*
X146553783Y-158686648D01*
X146574841Y-158764006D01*
X146574496Y-158773770D01*
X146556824Y-158823831D01*
X146507280Y-158865751D01*
X146418770Y-158905986D01*
X146362962Y-158920863D01*
X146287449Y-158929001D01*
X146183487Y-158930877D01*
X146042298Y-158926979D01*
X145943270Y-158921608D01*
X145688808Y-158893922D01*
X145464475Y-158848349D01*
X145272449Y-158786118D01*
X145114905Y-158708454D01*
X144994020Y-158616585D01*
X144911971Y-158511736D01*
X144870934Y-158395135D01*
X144873086Y-158268008D01*
X144875083Y-158257738D01*
X144901645Y-158166227D01*
X144946258Y-158071680D01*
X145012139Y-157970043D01*
X145102507Y-157857261D01*
X145220579Y-157729278D01*
X145369572Y-157582039D01*
X145552705Y-157411489D01*
X145580190Y-157386282D01*
X145733344Y-157238159D01*
X145855583Y-157102052D01*
X145954073Y-156967066D01*
X146035981Y-156822306D01*
X146108473Y-156656879D01*
X146178718Y-156459890D01*
X146243719Y-156247424D01*
X146289296Y-156057650D01*
X146318942Y-155873143D01*
X146336172Y-155676426D01*
X146343043Y-155571972D01*
X146350796Y-155499146D01*
X146361221Y-155455303D01*
X146376473Y-155431582D01*
X146398705Y-155419124D01*
X146401637Y-155418084D01*
X146477469Y-155415132D01*
X146559219Y-155450093D01*
G37*
G36*
X149040655Y-156075755D02*
G01*
X149106515Y-156105587D01*
X149170097Y-156162318D01*
X149215452Y-156232198D01*
X149235144Y-156303384D01*
X149221731Y-156364033D01*
X149208634Y-156377005D01*
X149157631Y-156404718D01*
X149087978Y-156428277D01*
X149080377Y-156430221D01*
X149007158Y-156451612D01*
X148964116Y-156476498D01*
X148937361Y-156517499D01*
X148913000Y-156587237D01*
X148887984Y-156654403D01*
X148849425Y-156743970D01*
X148806009Y-156835565D01*
X148801785Y-156844083D01*
X148764535Y-156925567D01*
X148738172Y-156994502D01*
X148728168Y-157036742D01*
X148728815Y-157041159D01*
X148753416Y-157080886D01*
X148812125Y-157146436D01*
X148902867Y-157235637D01*
X149023571Y-157346314D01*
X149073296Y-157390951D01*
X149227255Y-157532379D01*
X149350525Y-157652010D01*
X149447734Y-157754950D01*
X149523507Y-157846303D01*
X149582469Y-157931173D01*
X149629246Y-158014664D01*
X149657390Y-158077296D01*
X149696902Y-158224255D01*
X149694557Y-158357816D01*
X149651296Y-158474747D01*
X149568056Y-158571817D01*
X149445779Y-158645795D01*
X149411766Y-158657363D01*
X149307307Y-158674140D01*
X149167778Y-158678838D01*
X148999826Y-158671394D01*
X148810099Y-158651746D01*
X148716839Y-158638875D01*
X148649851Y-158625727D01*
X148607175Y-158608935D01*
X148577524Y-158583925D01*
X148549616Y-158546119D01*
X148514817Y-158473897D01*
X148498047Y-158390780D01*
X148503147Y-158316348D01*
X148531140Y-158266088D01*
X148548075Y-158256934D01*
X148585742Y-158250176D01*
X148647558Y-158249429D01*
X148740779Y-158254689D01*
X148872662Y-158265953D01*
X149035137Y-158277892D01*
X149174572Y-158279559D01*
X149278563Y-158268771D01*
X149352043Y-158244983D01*
X149399945Y-158207649D01*
X149409022Y-158183315D01*
X149392613Y-158125322D01*
X149338648Y-158046068D01*
X149248385Y-157947266D01*
X149123082Y-157830631D01*
X149093402Y-157804564D01*
X148985773Y-157709832D01*
X148870431Y-157608077D01*
X148767729Y-157517248D01*
X148731203Y-157484982D01*
X148659462Y-157423868D01*
X148605951Y-157385388D01*
X148559176Y-157363524D01*
X148507644Y-157352259D01*
X148439862Y-157345574D01*
X148333580Y-157344092D01*
X148156949Y-157367731D01*
X147987006Y-157419459D01*
X147841464Y-157494855D01*
X147805084Y-157518744D01*
X147747220Y-157550769D01*
X147706471Y-157559856D01*
X147669901Y-157550176D01*
X147653769Y-157540689D01*
X147603332Y-157486570D01*
X147560767Y-157409874D01*
X147534557Y-157328569D01*
X147533184Y-157260621D01*
X147544952Y-157232011D01*
X147601034Y-157168720D01*
X147692385Y-157107828D01*
X147811446Y-157052543D01*
X147950657Y-157006074D01*
X148102461Y-156971630D01*
X148259298Y-156952418D01*
X148450319Y-156939597D01*
X148450319Y-156872655D01*
X148450371Y-156868799D01*
X148460803Y-156799065D01*
X148483869Y-156725418D01*
X148489976Y-156710493D01*
X148506913Y-156663897D01*
X148510009Y-156645122D01*
X148500479Y-156648643D01*
X148455292Y-156667675D01*
X148379669Y-156700424D01*
X148280918Y-156743713D01*
X148166350Y-156794368D01*
X148134940Y-156808198D01*
X147988679Y-156870315D01*
X147835012Y-156932521D01*
X147690402Y-156988268D01*
X147571309Y-157031009D01*
X147312517Y-157118404D01*
X147227316Y-157072784D01*
X147205680Y-157059601D01*
X147144387Y-157004159D01*
X147097673Y-156936746D01*
X147073170Y-156870422D01*
X147078512Y-156818241D01*
X147106856Y-156797228D01*
X147170202Y-156766327D01*
X147258973Y-156729938D01*
X147363708Y-156692239D01*
X147451013Y-156661514D01*
X147602436Y-156604311D01*
X147757857Y-156541846D01*
X147894622Y-156483047D01*
X148086670Y-156397619D01*
X148341504Y-156288453D01*
X148557150Y-156201800D01*
X148734248Y-156137431D01*
X148873439Y-156095119D01*
X148975361Y-156074636D01*
X149040655Y-156075755D01*
G37*
G36*
X147902520Y-153783397D02*
G01*
X147926310Y-153845238D01*
X147938301Y-153875777D01*
X147935789Y-153885338D01*
X147906646Y-153881588D01*
X147893676Y-153878103D01*
X147826270Y-153874941D01*
X147723556Y-153882455D01*
X147592580Y-153899332D01*
X147440393Y-153924258D01*
X147274040Y-153955919D01*
X147100572Y-153993002D01*
X146927035Y-154034194D01*
X146760478Y-154078180D01*
X146607949Y-154123646D01*
X146485103Y-154165057D01*
X146446679Y-154179215D01*
X146383841Y-154202369D01*
X146321003Y-154225523D01*
X146286360Y-154238288D01*
X146260107Y-154248677D01*
X146072243Y-154323020D01*
X145857647Y-154413124D01*
X145657467Y-154502473D01*
X145486600Y-154584940D01*
X145446393Y-154605267D01*
X145311526Y-154670650D01*
X145215612Y-154711836D01*
X145158313Y-154728959D01*
X145139289Y-154722154D01*
X145138825Y-154716883D01*
X145117875Y-154700861D01*
X145073570Y-154711590D01*
X145016683Y-154746897D01*
X145015146Y-154748097D01*
X144969301Y-154774416D01*
X144943108Y-154770660D01*
X144945954Y-154756440D01*
X144978965Y-154719251D01*
X145040026Y-154667667D01*
X145121917Y-154606952D01*
X145217420Y-154542367D01*
X145319319Y-154479177D01*
X145420393Y-154422643D01*
X145450966Y-154406203D01*
X145528384Y-154360355D01*
X145585350Y-154320439D01*
X145611269Y-154293617D01*
X145613769Y-154286474D01*
X145610152Y-154267112D01*
X145573282Y-154273016D01*
X145558673Y-154277883D01*
X145486858Y-154306873D01*
X145388927Y-154351008D01*
X145276052Y-154404777D01*
X145159402Y-154462668D01*
X145050149Y-154519169D01*
X144959461Y-154568769D01*
X144898510Y-154605957D01*
X144852658Y-154635278D01*
X144808890Y-154657144D01*
X144791979Y-154656536D01*
X144794201Y-154648283D01*
X144824958Y-154610551D01*
X144886063Y-154557538D01*
X144970080Y-154494905D01*
X145069570Y-154428313D01*
X145177097Y-154363422D01*
X145218932Y-154339303D01*
X145286728Y-154298716D01*
X145329907Y-154270702D01*
X145340557Y-154260254D01*
X145327531Y-154262857D01*
X145274939Y-154284652D01*
X145196072Y-154324692D01*
X145099561Y-154378265D01*
X144994039Y-154440660D01*
X144888139Y-154507166D01*
X144830253Y-154543640D01*
X144762652Y-154582707D01*
X144718330Y-154603716D01*
X144704832Y-154602732D01*
X144716273Y-154585110D01*
X144765154Y-154541329D01*
X144844409Y-154485064D01*
X144946663Y-154420851D01*
X145064538Y-154353225D01*
X145190658Y-154286724D01*
X145270071Y-154248677D01*
X145370830Y-154248677D01*
X145382407Y-154260254D01*
X145393984Y-154248677D01*
X145382407Y-154237100D01*
X145370830Y-154248677D01*
X145270071Y-154248677D01*
X145317647Y-154225883D01*
X145318443Y-154225523D01*
X145417138Y-154225523D01*
X145428715Y-154237100D01*
X145440292Y-154225523D01*
X145428715Y-154213946D01*
X145417138Y-154225523D01*
X145318443Y-154225523D01*
X145369655Y-154202369D01*
X145463446Y-154202369D01*
X145475023Y-154213946D01*
X145486600Y-154202369D01*
X145475023Y-154190792D01*
X145463446Y-154202369D01*
X145369655Y-154202369D01*
X145420868Y-154179215D01*
X145509754Y-154179215D01*
X145521331Y-154190792D01*
X145532908Y-154179215D01*
X145521331Y-154167638D01*
X145509754Y-154179215D01*
X145420868Y-154179215D01*
X145590793Y-154102389D01*
X145605556Y-153896527D01*
X145628412Y-153682190D01*
X145672365Y-153467796D01*
X145736974Y-153285929D01*
X145824347Y-153130856D01*
X145936594Y-152996848D01*
X146017164Y-152924750D01*
X146196380Y-152810254D01*
X146406837Y-152728624D01*
X146649225Y-152679626D01*
X146924236Y-152663027D01*
X147094865Y-152669828D01*
X147358835Y-152712589D01*
X147599206Y-152794896D01*
X147816776Y-152917055D01*
X148012347Y-153079372D01*
X148020017Y-153086977D01*
X148081844Y-153151464D01*
X148138153Y-153217851D01*
X148193250Y-153292756D01*
X148251441Y-153382798D01*
X148317032Y-153494596D01*
X148394330Y-153634769D01*
X148487640Y-153809935D01*
X148512603Y-153857241D01*
X148564794Y-153954657D01*
X148602521Y-154019687D01*
X148630929Y-154058533D01*
X148655164Y-154077397D01*
X148680372Y-154082481D01*
X148711699Y-154079988D01*
X148767003Y-154080452D01*
X148818600Y-154107121D01*
X148836512Y-154135944D01*
X148871459Y-154200519D01*
X148919591Y-154293626D01*
X148977816Y-154408912D01*
X149043041Y-154540022D01*
X149112176Y-154680604D01*
X149182127Y-154824301D01*
X149249803Y-154964762D01*
X149312113Y-155095632D01*
X149365964Y-155210557D01*
X149408264Y-155303183D01*
X149435922Y-155367156D01*
X149445845Y-155396122D01*
X149432284Y-155425032D01*
X149390276Y-155454007D01*
X149334608Y-155475842D01*
X149508365Y-155832011D01*
X149512895Y-155841301D01*
X149575774Y-155971849D01*
X149619950Y-156068206D01*
X149647800Y-156136935D01*
X149661698Y-156184601D01*
X149664021Y-156217767D01*
X149657145Y-156242995D01*
X149642597Y-156266507D01*
X149592349Y-156295325D01*
X149525843Y-156286521D01*
X149450486Y-156240195D01*
X149442420Y-156232143D01*
X149411241Y-156189313D01*
X149365900Y-156114607D01*
X149305495Y-156006342D01*
X149229125Y-155862836D01*
X149135889Y-155682407D01*
X149024884Y-155463373D01*
X148895211Y-155204051D01*
X148788853Y-154990526D01*
X148636294Y-154685517D01*
X148501462Y-154417949D01*
X148382890Y-154185210D01*
X148279110Y-153984687D01*
X148188655Y-153813769D01*
X148110057Y-153669843D01*
X148041848Y-153550296D01*
X147982561Y-153452516D01*
X147930729Y-153373890D01*
X147884882Y-153311807D01*
X147843554Y-153263653D01*
X147805277Y-153226817D01*
X147768584Y-153198686D01*
X147717029Y-153167752D01*
X147632213Y-153123836D01*
X147542565Y-153082918D01*
X147490454Y-153061904D01*
X147434047Y-153043564D01*
X147374970Y-153031780D01*
X147302318Y-153025128D01*
X147205182Y-153022181D01*
X147072653Y-153021515D01*
X147038850Y-153021556D01*
X146908776Y-153023139D01*
X146810884Y-153027957D01*
X146733605Y-153037299D01*
X146665366Y-153052451D01*
X146594598Y-153074701D01*
X146553234Y-153089748D01*
X146364833Y-153182319D01*
X146212530Y-153302843D01*
X146094867Y-153453094D01*
X146010390Y-153634843D01*
X145957640Y-153849864D01*
X145943573Y-153937285D01*
X146362080Y-153731123D01*
X146378490Y-153723060D01*
X146561222Y-153636355D01*
X146721112Y-153566258D01*
X146841234Y-153519521D01*
X147417541Y-153519521D01*
X147427031Y-153591952D01*
X147454049Y-153669519D01*
X147492313Y-153730902D01*
X147506047Y-153743571D01*
X147559701Y-153768951D01*
X147615019Y-153771633D01*
X147652433Y-153749363D01*
X147660494Y-153713264D01*
X147652140Y-153646682D01*
X147627561Y-153572992D01*
X147591330Y-153510096D01*
X147557378Y-153477425D01*
X147501851Y-153452569D01*
X147451959Y-153456540D01*
X147421633Y-153490913D01*
X147417541Y-153519521D01*
X146841234Y-153519521D01*
X146852512Y-153515133D01*
X146949774Y-153485341D01*
X147094462Y-153451465D01*
X147258542Y-153413074D01*
X147386285Y-153383229D01*
X147482761Y-153360752D01*
X147553038Y-153344466D01*
X147602186Y-153333193D01*
X147635274Y-153325756D01*
X147657370Y-153320977D01*
X147667916Y-153319331D01*
X147691519Y-153322734D01*
X147714376Y-153341302D01*
X147739743Y-153380729D01*
X147770878Y-153446704D01*
X147811039Y-153544920D01*
X147863483Y-153681066D01*
X147871541Y-153702253D01*
X147875745Y-153713264D01*
X147902520Y-153783397D01*
G37*
%TO.C,R_LATCH_G1*%
D11*
X145620000Y-123153641D02*
X145620000Y-122846359D01*
X146380000Y-123153641D02*
X146380000Y-122846359D01*
%TO.C,R_FB2*%
X122145000Y-115096359D02*
X122145000Y-115403641D01*
X122905000Y-115096359D02*
X122905000Y-115403641D01*
%TO.C,R_VSET1*%
X125663641Y-122120000D02*
X125356359Y-122120000D01*
X125663641Y-122880000D02*
X125356359Y-122880000D01*
%TO.C,R_STAT1*%
X128563641Y-119620000D02*
X128256359Y-119620000D01*
X128563641Y-120380000D02*
X128256359Y-120380000D01*
%TO.C,R_ISET1*%
X125683641Y-120620000D02*
X125376359Y-120620000D01*
X125683641Y-121380000D02*
X125376359Y-121380000D01*
%TO.C,R_FB1*%
X122145000Y-113403641D02*
X122145000Y-113096359D01*
X122905000Y-113403641D02*
X122905000Y-113096359D01*
%TO.C,U_BUCK1*%
X129915000Y-107952500D02*
X129915000Y-109772500D01*
X129915000Y-109772500D02*
X129965000Y-109772500D01*
X129965000Y-107952500D02*
X129915000Y-107952500D01*
X131865000Y-107952500D02*
X131085000Y-107952500D01*
X132985000Y-109772500D02*
X133035000Y-109772500D01*
X133035000Y-107952500D02*
X132985000Y-107952500D01*
X133035000Y-109772500D02*
X133035000Y-107952500D01*
X132985000Y-110312500D02*
X133315000Y-110552500D01*
X133315000Y-110072500D01*
X132985000Y-110312500D01*
G36*
X133315000Y-110552500D02*
G01*
X132985000Y-110312500D01*
X133315000Y-110072500D01*
X133315000Y-110552500D01*
G37*
%TO.C,L_BUCK1*%
X124140000Y-107890000D02*
X124140000Y-108915000D01*
X124140000Y-107890000D02*
X125165000Y-107890000D01*
X124140000Y-112110000D02*
X124140000Y-111085000D01*
X124140000Y-112110000D02*
X125165000Y-112110000D01*
X128910000Y-107890000D02*
X127885000Y-107890000D01*
X128910000Y-107890000D02*
X128910000Y-108915000D01*
X128910000Y-112110000D02*
X127885000Y-112110000D01*
X128910000Y-112110000D02*
X128910000Y-111085000D01*
%TO.C,R_TS1*%
X125663641Y-123620000D02*
X125356359Y-123620000D01*
X125663641Y-124380000D02*
X125356359Y-124380000D01*
%TD*%
M02*
