%TF.GenerationSoftware,KiCad,Pcbnew,10.0.5*%
%TF.CreationDate,2026-08-28T22:32:12-07:00*%
%TF.ProjectId,snips_controller,736e6970-735f-4636-9f6e-74726f6c6c65,rev?*%
%TF.SameCoordinates,Original*%
%TF.FileFunction,Copper,L4,Bot*%
%TF.FilePolarity,Positive*%
%FSLAX46Y46*%
G04 Gerber Fmt 4.6, Leading zero omitted, Abs format (unit mm)*
G04 Created by KiCad (PCBNEW 10.0.5) date 2026-08-28 22:32:12*
%MOMM*%
%LPD*%
G01*
G04 APERTURE LIST*
G04 Aperture macros list*
%AMRoundRect*
0 Rectangle with rounded corners*
0 $1 Rounding radius*
0 $2 $3 $4 $5 $6 $7 $8 $9 X,Y pos of 4 corners*
0 Add a 4 corners polygon primitive as box body*
4,1,4,$2,$3,$4,$5,$6,$7,$8,$9,$2,$3,0*
0 Add four circle primitives for the rounded corners*
1,1,$1+$1,$2,$3*
1,1,$1+$1,$4,$5*
1,1,$1+$1,$6,$7*
1,1,$1+$1,$8,$9*
0 Add four rect primitives between the rounded corners*
20,1,$1+$1,$2,$3,$4,$5,0*
20,1,$1+$1,$4,$5,$6,$7,0*
20,1,$1+$1,$6,$7,$8,$9,0*
20,1,$1+$1,$8,$9,$2,$3,0*%
%AMFreePoly0*
4,1,153,0.406581,0.754743,0.408810,0.754000,0.410000,0.754000,0.411581,0.753743,0.413810,0.753000,0.415000,0.753000,0.416581,0.752743,0.419581,0.751743,0.420236,0.751472,0.421920,0.750630,0.424581,0.749743,0.426536,0.748536,0.427964,0.747108,0.429236,0.746472,0.430536,0.745536,0.431964,0.744108,0.433236,0.743472,0.434536,0.742536,0.442536,0.734536,0.443472,0.733236,
0.444108,0.731964,0.445536,0.730536,0.446472,0.729236,0.447108,0.727964,0.448536,0.726536,0.449743,0.724581,0.450630,0.721920,0.451472,0.720236,0.451743,0.719581,0.452743,0.716581,0.453000,0.715000,0.453000,0.713810,0.453743,0.711581,0.454000,0.710000,0.454000,0.708810,0.454743,0.706581,0.455000,0.705000,0.455000,-0.705000,0.454743,-0.706581,0.454000,-0.708810,
0.454000,-0.710000,0.453743,-0.711581,0.453000,-0.713810,0.453000,-0.715000,0.452743,-0.716581,0.451743,-0.719581,0.451472,-0.720236,0.450630,-0.721920,0.449743,-0.724581,0.448536,-0.726536,0.447108,-0.727964,0.446472,-0.729236,0.445536,-0.730536,0.444108,-0.731964,0.443472,-0.733236,0.442536,-0.734536,0.434536,-0.742536,0.433236,-0.743472,0.431964,-0.744108,0.430536,-0.745536,
0.429236,-0.746472,0.427964,-0.747108,0.426536,-0.748536,0.424581,-0.749743,0.421920,-0.750630,0.420236,-0.751472,0.419581,-0.751743,0.416581,-0.752743,0.415000,-0.753000,0.413810,-0.753000,0.411581,-0.753743,0.410000,-0.754000,0.408810,-0.754000,0.406581,-0.754743,0.405000,-0.755000,-0.405000,-0.755000,-0.406581,-0.754743,-0.408810,-0.754000,-0.410000,-0.754000,-0.411581,-0.753743,
-0.413810,-0.753000,-0.415000,-0.753000,-0.416581,-0.752743,-0.419581,-0.751743,-0.420236,-0.751472,-0.421920,-0.750630,-0.424581,-0.749743,-0.426536,-0.748536,-0.427964,-0.747108,-0.429236,-0.746472,-0.430536,-0.745536,-0.431964,-0.744108,-0.433236,-0.743472,-0.434536,-0.742536,-0.442536,-0.734536,-0.443472,-0.733236,-0.444108,-0.731964,-0.445536,-0.730536,-0.446472,-0.729236,-0.447108,-0.727964,
-0.448536,-0.726536,-0.449743,-0.724581,-0.450630,-0.721920,-0.451472,-0.720236,-0.451743,-0.719581,-0.452743,-0.716581,-0.453000,-0.715000,-0.453000,-0.713810,-0.453743,-0.711581,-0.454000,-0.710000,-0.454000,-0.708810,-0.454743,-0.706581,-0.455000,-0.705000,-0.455000,0.705000,-0.454743,0.706581,-0.454000,0.708810,-0.454000,0.710000,-0.453743,0.711581,-0.453000,0.713810,-0.453000,0.715000,
-0.452743,0.716581,-0.451743,0.719581,-0.451472,0.720236,-0.450630,0.721920,-0.449743,0.724581,-0.448536,0.726536,-0.447108,0.727964,-0.446472,0.729236,-0.445536,0.730536,-0.444108,0.731964,-0.443472,0.733236,-0.442536,0.734536,-0.434536,0.742536,-0.433236,0.743472,-0.431964,0.744108,-0.430536,0.745536,-0.429236,0.746472,-0.427964,0.747108,-0.426536,0.748536,-0.424581,0.749743,
-0.421920,0.750630,-0.420236,0.751472,-0.419581,0.751743,-0.416581,0.752743,-0.415000,0.753000,-0.413810,0.753000,-0.411581,0.753743,-0.410000,0.754000,-0.408810,0.754000,-0.406581,0.754743,-0.405000,0.755000,0.405000,0.755000,0.406581,0.754743,0.406581,0.754743,$1*%
G04 Aperture macros list end*
%TA.AperFunction,ComponentPad*%
%ADD10C,1.431000*%
%TD*%
%TA.AperFunction,ComponentPad*%
%ADD11O,1.000000X2.100000*%
%TD*%
%TA.AperFunction,ComponentPad*%
%ADD12O,1.000000X1.600000*%
%TD*%
%TA.AperFunction,ComponentPad*%
%ADD13C,2.550000*%
%TD*%
%TA.AperFunction,ComponentPad*%
%ADD14C,2.050000*%
%TD*%
%TA.AperFunction,ComponentPad*%
%ADD15C,2.250000*%
%TD*%
%TA.AperFunction,SMDPad,CuDef*%
%ADD16RoundRect,0.135000X-0.135000X-0.185000X0.135000X-0.185000X0.135000X0.185000X-0.135000X0.185000X0*%
%TD*%
%TA.AperFunction,SMDPad,CuDef*%
%ADD17RoundRect,0.250000X-0.250000X-0.475000X0.250000X-0.475000X0.250000X0.475000X-0.250000X0.475000X0*%
%TD*%
%TA.AperFunction,SMDPad,CuDef*%
%ADD18RoundRect,0.150000X-0.587500X-0.150000X0.587500X-0.150000X0.587500X0.150000X-0.587500X0.150000X0*%
%TD*%
%TA.AperFunction,SMDPad,CuDef*%
%ADD19RoundRect,0.112500X-0.112500X0.187500X-0.112500X-0.187500X0.112500X-0.187500X0.112500X0.187500X0*%
%TD*%
%TA.AperFunction,ComponentPad*%
%ADD20RoundRect,0.250000X0.350000X0.625000X-0.350000X0.625000X-0.350000X-0.625000X0.350000X-0.625000X0*%
%TD*%
%TA.AperFunction,ComponentPad*%
%ADD21O,1.200000X1.750000*%
%TD*%
%TA.AperFunction,SMDPad,CuDef*%
%ADD22RoundRect,0.140000X-0.170000X0.140000X-0.170000X-0.140000X0.170000X-0.140000X0.170000X0.140000X0*%
%TD*%
%TA.AperFunction,SMDPad,CuDef*%
%ADD23RoundRect,0.250000X0.250000X0.475000X-0.250000X0.475000X-0.250000X-0.475000X0.250000X-0.475000X0*%
%TD*%
%TA.AperFunction,SMDPad,CuDef*%
%ADD24RoundRect,0.250000X-0.475000X0.250000X-0.475000X-0.250000X0.475000X-0.250000X0.475000X0.250000X0*%
%TD*%
%TA.AperFunction,SMDPad,CuDef*%
%ADD25RoundRect,0.135000X0.135000X0.185000X-0.135000X0.185000X-0.135000X-0.185000X0.135000X-0.185000X0*%
%TD*%
%TA.AperFunction,SMDPad,CuDef*%
%ADD26RoundRect,0.225000X-0.375000X0.225000X-0.375000X-0.225000X0.375000X-0.225000X0.375000X0.225000X0*%
%TD*%
%TA.AperFunction,SMDPad,CuDef*%
%ADD27RoundRect,0.140000X0.140000X0.170000X-0.140000X0.170000X-0.140000X-0.170000X0.140000X-0.170000X0*%
%TD*%
%TA.AperFunction,SMDPad,CuDef*%
%ADD28C,1.000000*%
%TD*%
%TA.AperFunction,SMDPad,CuDef*%
%ADD29RoundRect,0.052000X0.198000X0.048000X-0.198000X0.048000X-0.198000X-0.048000X0.198000X-0.048000X0*%
%TD*%
%TA.AperFunction,SMDPad,CuDef*%
%ADD30FreePoly0,180.000000*%
%TD*%
%TA.AperFunction,ComponentPad*%
%ADD31C,0.300000*%
%TD*%
%TA.AperFunction,ComponentPad*%
%ADD32R,1.050000X1.500000*%
%TD*%
%TA.AperFunction,ComponentPad*%
%ADD33O,1.050000X1.500000*%
%TD*%
%TA.AperFunction,SMDPad,CuDef*%
%ADD34RoundRect,0.225000X0.375000X-0.225000X0.375000X0.225000X-0.375000X0.225000X-0.375000X-0.225000X0*%
%TD*%
%TA.AperFunction,SMDPad,CuDef*%
%ADD35RoundRect,0.135000X0.185000X-0.135000X0.185000X0.135000X-0.185000X0.135000X-0.185000X-0.135000X0*%
%TD*%
%TA.AperFunction,SMDPad,CuDef*%
%ADD36RoundRect,0.135000X-0.185000X0.135000X-0.185000X-0.135000X0.185000X-0.135000X0.185000X0.135000X0*%
%TD*%
%TA.AperFunction,SMDPad,CuDef*%
%ADD37RoundRect,0.150000X0.150000X-0.512500X0.150000X0.512500X-0.150000X0.512500X-0.150000X-0.512500X0*%
%TD*%
%TA.AperFunction,SMDPad,CuDef*%
%ADD38R,1.500000X3.600000*%
%TD*%
%TA.AperFunction,ViaPad*%
%ADD39C,0.600000*%
%TD*%
%TA.AperFunction,Conductor*%
%ADD40C,0.300000*%
%TD*%
%TA.AperFunction,Conductor*%
%ADD41C,0.550000*%
%TD*%
%TA.AperFunction,Conductor*%
%ADD42C,0.200000*%
%TD*%
%TA.AperFunction,Conductor*%
%ADD43C,0.800000*%
%TD*%
G04 APERTURE END LIST*
D10*
%TO.P,U_XBEE1,1,VCC_1*%
%TO.N,3V3*%
X142000000Y-127500000D03*
%TO.P,U_XBEE1,2,DOUT/DIO13_2*%
%TO.N,unconnected-(U_XBEE1-DOUT{slash}DIO13-Pad2)*%
X140000000Y-127500000D03*
%TO.P,U_XBEE1,3,DIN/~{CONFIG}/DIO14_3*%
%TO.N,unconnected-(U_XBEE1-DIN{slash}~{CONFIG}{slash}DIO14-Pad3)*%
X138000000Y-127500000D03*
%TO.P,U_XBEE1,4,SPI_MISO_4*%
%TO.N,/MCU_Core/SPI_MISO*%
X136000000Y-127500000D03*
%TO.P,U_XBEE1,5,RESET_5*%
%TO.N,/XBee/XBEE_RESET*%
X134000000Y-127500000D03*
%TO.P,U_XBEE1,6,RSSI_PWM/DIO10_6*%
%TO.N,unconnected-(U_XBEE1-RSSI_PWM{slash}DIO10-Pad6)*%
X132000000Y-127500000D03*
%TO.P,U_XBEE1,7,PWM1/DIO11_7*%
%TO.N,unconnected-(U_XBEE1-PWM1{slash}DIO11-Pad7)*%
X130000000Y-127500000D03*
%TO.P,U_XBEE1,8,[RESERVED]_1_8*%
%TO.N,unconnected-(U_XBEE1-[RESERVED]_1-Pad8)*%
X128000000Y-127500000D03*
%TO.P,U_XBEE1,9,DTR_9*%
%TO.N,GND*%
X126000000Y-127500000D03*
%TO.P,U_XBEE1,10,GND_10*%
X124000000Y-127500000D03*
%TO.P,U_XBEE1,11,SPI_MOSI_11*%
%TO.N,/MCU_Core/SPI_MOSI*%
X124000000Y-149500000D03*
%TO.P,U_XBEE1,12,~{CTS}/DIO7_12*%
%TO.N,unconnected-(U_XBEE1-~{CTS}{slash}DIO7-Pad12)*%
X126000000Y-149500000D03*
%TO.P,U_XBEE1,13,ON_SLEEP_13*%
%TO.N,/MCU_Core/XBEE_ON_SLEEP*%
X128000000Y-149500000D03*
%TO.P,U_XBEE1,14,[RESERVED]_2_14*%
%TO.N,unconnected-(U_XBEE1-[RESERVED]_2-Pad14)*%
X130000000Y-149500000D03*
%TO.P,U_XBEE1,15,ASSOCIATE/DIO5_15*%
%TO.N,unconnected-(U_XBEE1-ASSOCIATE{slash}DIO5-Pad15)*%
X132000000Y-149500000D03*
%TO.P,U_XBEE1,16,~{RTS}/DIO6_16*%
%TO.N,unconnected-(U_XBEE1-~{RTS}{slash}DIO6-Pad16)*%
X134000000Y-149500000D03*
%TO.P,U_XBEE1,17,SPI_SSEL_17*%
%TO.N,/MCU_Core/XBee_CS*%
X136000000Y-149500000D03*
%TO.P,U_XBEE1,18,SPI_CLK_18*%
%TO.N,/MCU_Core/SPI_SCK*%
X138000000Y-149500000D03*
%TO.P,U_XBEE1,19,SPI_ATTN_19*%
%TO.N,/XBee/XBEE_SPI_ATTN*%
X140000000Y-149500000D03*
%TO.P,U_XBEE1,20,AD0_/DIO0_20*%
%TO.N,unconnected-(U_XBEE1-AD0_{slash}DIO0-Pad20)*%
X142000000Y-149500000D03*
%TD*%
D11*
%TO.P,J_USB1,SH,SHIELD_SH*%
%TO.N,GND*%
X133180000Y-153970000D03*
D12*
X133180000Y-158150000D03*
D11*
X141820000Y-153970000D03*
D12*
X141820000Y-158150000D03*
%TD*%
D13*
%TO.P,J_STICK1,*%
%TO.N,*%
X131175000Y-90250000D03*
X131175000Y-100250000D03*
X143825000Y-90250000D03*
X143825000Y-100250000D03*
D14*
%TO.P,J_STICK1,1,X_LO_1*%
%TO.N,GND*%
X140000000Y-86520000D03*
%TO.P,J_STICK1,1',Y_LO_1'*%
X146230000Y-97750000D03*
%TO.P,J_STICK1,2,X_OUT_2*%
%TO.N,/MCU_Core/STICK_X*%
X137500000Y-86520000D03*
%TO.P,J_STICK1,2',Y_OUT_2'*%
%TO.N,/MCU_Core/STICK_Y*%
X146230000Y-95250000D03*
%TO.P,J_STICK1,3,X_HI_3*%
%TO.N,3V3*%
X135000000Y-86520000D03*
%TO.P,J_STICK1,3',Y_HI_3'*%
X146230000Y-92750000D03*
D15*
%TO.P,J_STICK1,a,SW_A_a*%
%TO.N,/MCU_Core/BTN_STICK*%
X134250000Y-101000000D03*
%TO.P,J_STICK1,b*%
%TO.N,N/C*%
X140750000Y-101000000D03*
%TO.P,J_STICK1,c,SW_C_c*%
%TO.N,GND*%
X134250000Y-105500000D03*
%TO.P,J_STICK1,d*%
%TO.N,N/C*%
X140750000Y-105500000D03*
%TD*%
D16*
%TO.P,R_BTN_PU1,1*%
%TO.N,VSYS*%
X147490000Y-135000000D03*
%TO.P,R_BTN_PU1,2*%
%TO.N,/MCU_Core/PWR_BTN_SENSE*%
X148510000Y-135000000D03*
%TD*%
D17*
%TO.P,C_SYS_1,1*%
%TO.N,VSYS*%
X138000000Y-117000000D03*
%TO.P,C_SYS_1,2*%
%TO.N,GND*%
X139900000Y-117000000D03*
%TD*%
D18*
%TO.P,Q_PWR1,1,G_1*%
%TO.N,/Power_Control/PWR_GATE*%
X148625000Y-117950000D03*
%TO.P,Q_PWR1,2,S_2*%
%TO.N,VSYS*%
X148625000Y-116050000D03*
%TO.P,Q_PWR1,3,D_3*%
%TO.N,/Power_Buck/PWR_EN*%
X150500000Y-117000000D03*
%TD*%
D19*
%TO.P,D_VBUS_TVS1,1,A1_1*%
%TO.N,VBUS*%
X137400000Y-155150000D03*
%TO.P,D_VBUS_TVS1,2,A2_2*%
%TO.N,GND*%
X137400000Y-157250000D03*
%TD*%
D20*
%TO.P,BT1,1,Pin_1_1*%
%TO.N,VBAT*%
X152500000Y-68900000D03*
D21*
%TO.P,BT1,2,Pin_2_2*%
%TO.N,GND*%
X150500000Y-68900000D03*
%TD*%
D22*
%TO.P,C_VIN_2,1*%
%TO.N,VBUS*%
X130000000Y-118040000D03*
%TO.P,C_VIN_2,2*%
%TO.N,GND*%
X130000000Y-119000000D03*
%TD*%
D23*
%TO.P,C_VIN_1,1*%
%TO.N,VBUS*%
X128000000Y-118000000D03*
%TO.P,C_VIN_1,2*%
%TO.N,GND*%
X126100000Y-118000000D03*
%TD*%
D24*
%TO.P,C_BUCK_OUT1,1*%
%TO.N,3V3*%
X122025000Y-109050000D03*
%TO.P,C_BUCK_OUT1,2*%
%TO.N,GND*%
X122025000Y-110950000D03*
%TD*%
D25*
%TO.P,R_PWR_SENSE1,1*%
%TO.N,/MCU_Core/PWR_BTN_SENSE*%
X148520000Y-133000000D03*
%TO.P,R_PWR_SENSE1,2*%
%TO.N,GND*%
X147500000Y-133000000D03*
%TD*%
D26*
%TO.P,D_OR1,1,K_1*%
%TO.N,/Power_Control/PWR_LATCH_G*%
X147000000Y-125850000D03*
%TO.P,D_OR1,2,A_2*%
%TO.N,/MCU_Core/PWR_BTN_SENSE*%
X147000000Y-129150000D03*
%TD*%
D23*
%TO.P,C_BUCK_IN1,1*%
%TO.N,VSYS*%
X131450000Y-105500000D03*
%TO.P,C_BUCK_IN1,2*%
%TO.N,GND*%
X129550000Y-105500000D03*
%TD*%
D27*
%TO.P,C_HALL1,1*%
%TO.N,3V3*%
X152000000Y-66000000D03*
%TO.P,C_HALL1,2*%
%TO.N,GND*%
X151040000Y-66000000D03*
%TD*%
D25*
%TO.P,R_GATE1,1*%
%TO.N,VSYS*%
X148520000Y-114500000D03*
%TO.P,R_GATE1,2*%
%TO.N,/Power_Control/PWR_GATE*%
X147500000Y-114500000D03*
%TD*%
D18*
%TO.P,Q_LATCH1,1,G_1*%
%TO.N,/Power_Control/PWR_LATCH_G*%
X148500000Y-121900000D03*
%TO.P,Q_LATCH1,2,S_2*%
%TO.N,GND*%
X148500000Y-120000000D03*
%TO.P,Q_LATCH1,3,D_3*%
%TO.N,/Power_Control/PWR_GATE*%
X150375000Y-120950000D03*
%TD*%
D22*
%TO.P,C_SYS_2,1*%
%TO.N,VSYS*%
X135500000Y-117000000D03*
%TO.P,C_SYS_2,2*%
%TO.N,GND*%
X135500000Y-117960000D03*
%TD*%
D28*
%TO.P,REF\u002A\u002A,*%
%TO.N,*%
X150400000Y-105200000D03*
%TD*%
D17*
%TO.P,C_BAT1,1*%
%TO.N,VBAT*%
X136500000Y-120500000D03*
%TO.P,C_BAT1,2*%
%TO.N,GND*%
X138400000Y-120500000D03*
%TD*%
D29*
%TO.P,U_CHG1,1,SYS_1*%
%TO.N,VSYS*%
X134050000Y-118200000D03*
%TO.P,U_CHG1,2,BAT_2*%
%TO.N,VBAT*%
X134050000Y-118600000D03*
%TO.P,U_CHG1,3,STAT2_3*%
%TO.N,/MCU_Core/STAT2*%
X134050000Y-119000000D03*
%TO.P,U_CHG1,4,~{CE}_4*%
%TO.N,GND*%
X134050000Y-119400000D03*
%TO.P,U_CHG1,5,GND_5*%
X134050000Y-119800000D03*
%TO.P,U_CHG1,6,TS/MR_6*%
%TO.N,/Power_Charger/CHG_TS*%
X131950000Y-119800000D03*
%TO.P,U_CHG1,7,ILIM/VSET_7*%
%TO.N,/Power_Charger/CHG_VSET*%
X131950000Y-119400000D03*
%TO.P,U_CHG1,8,ISET_8*%
%TO.N,/Power_Charger/CHG_ISET*%
X131950000Y-119000000D03*
%TO.P,U_CHG1,9,STAT1_9*%
%TO.N,/MCU_Core/STAT1*%
X131950000Y-118600000D03*
%TO.P,U_CHG1,10,IN_10*%
%TO.N,VBUS*%
X131950000Y-118200000D03*
D30*
%TO.P,U_CHG1,11,THERMAL_PAD_11*%
%TO.N,GND*%
X133000000Y-119000000D03*
D31*
%TO.P,U_CHG1,12*%
%TO.N,N/C*%
X133000000Y-118500000D03*
%TO.P,U_CHG1,13*%
X133000000Y-119500000D03*
%TD*%
D16*
%TO.P,R_STAT2,1*%
%TO.N,/MCU_Core/STAT2*%
X137090000Y-122800000D03*
%TO.P,R_STAT2,2*%
%TO.N,3V3*%
X138110000Y-122800000D03*
%TD*%
D28*
%TO.P,REF\u002A\u002A,*%
%TO.N,*%
X125900000Y-95300000D03*
%TD*%
D32*
%TO.P,U_HALL1,1,VCC_1*%
%TO.N,3V3*%
X152700000Y-63000000D03*
D33*
%TO.P,U_HALL1,2,GND_2*%
%TO.N,GND*%
X151430000Y-63000000D03*
%TO.P,U_HALL1,3,OUT_3*%
%TO.N,/Hall_Trigger/TRIG_ANALOG*%
X150160000Y-63000000D03*
%TD*%
D34*
%TO.P,D_OR2,1,K_1*%
%TO.N,/Power_Control/PWR_LATCH_G*%
X144000000Y-121650000D03*
%TO.P,D_OR2,2,A_2*%
%TO.N,/MCU_Core/PWR_HOLD*%
X144000000Y-118350000D03*
%TD*%
D35*
%TO.P,R_LATCH_G1,1*%
%TO.N,GND*%
X146000000Y-123510000D03*
%TO.P,R_LATCH_G1,2*%
%TO.N,/Power_Control/PWR_LATCH_G*%
X146000000Y-122490000D03*
%TD*%
D36*
%TO.P,R_FB2,1*%
%TO.N,/Power_Buck/BUCK_FB*%
X122525000Y-114740000D03*
%TO.P,R_FB2,2*%
%TO.N,GND*%
X122525000Y-115760000D03*
%TD*%
D25*
%TO.P,R_VSET1,1*%
%TO.N,/Power_Charger/CHG_VSET*%
X126020000Y-122500000D03*
%TO.P,R_VSET1,2*%
%TO.N,GND*%
X125000000Y-122500000D03*
%TD*%
%TO.P,R_STAT1,1*%
%TO.N,/MCU_Core/STAT1*%
X128920000Y-120000000D03*
%TO.P,R_STAT1,2*%
%TO.N,3V3*%
X127900000Y-120000000D03*
%TD*%
%TO.P,R_ISET1,1*%
%TO.N,/Power_Charger/CHG_ISET*%
X126040000Y-121000000D03*
%TO.P,R_ISET1,2*%
%TO.N,GND*%
X125020000Y-121000000D03*
%TD*%
D28*
%TO.P,REF\u002A\u002A,*%
%TO.N,*%
X122800000Y-75700000D03*
%TD*%
D35*
%TO.P,R_FB1,1*%
%TO.N,/Power_Buck/BUCK_FB*%
X122525000Y-113760000D03*
%TO.P,R_FB1,2*%
%TO.N,3V3*%
X122525000Y-112740000D03*
%TD*%
D37*
%TO.P,U_BUCK1,1,EN_1*%
%TO.N,/Power_Buck/PWR_EN*%
X132425000Y-110000000D03*
%TO.P,U_BUCK1,2,GND_2*%
%TO.N,GND*%
X131475000Y-110000000D03*
%TO.P,U_BUCK1,3,SW_3*%
%TO.N,/Power_Buck/BUCK_SW*%
X130525000Y-110000000D03*
%TO.P,U_BUCK1,4,VIN_4*%
%TO.N,VSYS*%
X130525000Y-107725000D03*
%TO.P,U_BUCK1,5,FB_5*%
%TO.N,/Power_Buck/BUCK_FB*%
X132425000Y-107725000D03*
%TD*%
D38*
%TO.P,L_BUCK1,1,1_1*%
%TO.N,/Power_Buck/BUCK_SW*%
X128050000Y-110000000D03*
%TO.P,L_BUCK1,2,2_2*%
%TO.N,3V3*%
X125000000Y-110000000D03*
%TD*%
D25*
%TO.P,R_TS1,1*%
%TO.N,/Power_Charger/CHG_TS*%
X126020000Y-124000000D03*
%TO.P,R_TS1,2*%
%TO.N,GND*%
X125000000Y-124000000D03*
%TD*%
D39*
%TO.N,3V3*%
X121500000Y-67000000D03*
X139342332Y-122557668D03*
X122500000Y-107500000D03*
X127110000Y-120400000D03*
X151500000Y-153000000D03*
X135500000Y-88000000D03*
X148000000Y-91500000D03*
X138600000Y-146500000D03*
X130750000Y-65000000D03*
X126000000Y-77000000D03*
X147500000Y-83000000D03*
%TO.N,GND*%
X142500000Y-121250000D03*
X133020634Y-117700000D03*
X147500000Y-119000000D03*
X135900000Y-157200000D03*
X124500000Y-100500000D03*
X142250000Y-112500000D03*
X147500000Y-96500000D03*
X126000000Y-153000000D03*
X125000000Y-118000000D03*
X130750000Y-63750000D03*
X121500000Y-112000000D03*
X124000000Y-129000000D03*
X128750000Y-121250000D03*
X147500000Y-134000000D03*
X152750000Y-112500000D03*
X133020634Y-120500000D03*
X131500000Y-111500000D03*
X135000000Y-104000000D03*
X124088235Y-90338235D03*
X128000000Y-105500000D03*
X139500000Y-118500000D03*
X149800000Y-150800000D03*
X134700000Y-119750000D03*
X139500000Y-88000000D03*
X145000000Y-123500000D03*
X145250000Y-65100000D03*
X123500000Y-124000000D03*
X123500000Y-115500000D03*
X121600000Y-82400000D03*
X152500000Y-121250000D03*
X145800000Y-153300000D03*
X150500000Y-90500000D03*
X139250000Y-73750000D03*
X129000000Y-119000000D03*
X150500000Y-100500000D03*
X139500000Y-120000000D03*
X137000000Y-119000000D03*
%TO.N,/MCU_Core/XBEE_ON_SLEEP*%
X128000000Y-140200000D03*
X139668067Y-123731933D03*
%TO.N,/MCU_Core/XBee_CS*%
X134700000Y-145500000D03*
X136600000Y-125800000D03*
%TO.N,/XBee/XBEE_SPI_ATTN*%
X123184500Y-132484500D03*
X130500000Y-74000000D03*
X136550000Y-146050000D03*
X129000000Y-103000000D03*
%TO.N,/Buttons_Direct/BTN_MACRO2*%
X143500000Y-84500000D03*
X135816422Y-93425941D03*
%TO.N,/Buttons_Direct/BTN_MACRO5*%
X144000000Y-87000000D03*
X133500000Y-116400000D03*
X141500000Y-115387868D03*
X145000000Y-78500000D03*
%TO.N,/Buttons_Direct/BTN_MACRO6*%
X148500000Y-90302943D03*
X145000000Y-77000000D03*
%TO.N,/Buttons_Direct/BTN_MACRO3*%
X145500000Y-80500000D03*
X145000000Y-109500000D03*
%TO.N,/Buttons_Direct/BTN_TRIG_DIG*%
X126758949Y-76747017D03*
X122000000Y-63000000D03*
%TO.N,/Hall_Trigger/TRIG_ANALOG*%
X130800000Y-67800000D03*
%TO.N,/MCU_Core/STICK_X*%
X138500000Y-80200000D03*
%TO.N,/MCU_Core/STICK_Y*%
X136241051Y-80752983D03*
%TO.N,/MCU_Core/VSYS_SENSE*%
X123900000Y-71100000D03*
X127500000Y-71300000D03*
%TO.N,/Buttons_Direct/BTN_THR_UP*%
X125250000Y-90500000D03*
X128000000Y-75500000D03*
%TO.N,/Buttons_Direct/BTN_THR_DN*%
X125340812Y-100424593D03*
X128000000Y-76500000D03*
%TO.N,/MCU_Core/I2C_SCL*%
X124500000Y-72000000D03*
X130500000Y-76500000D03*
%TO.N,/MCU_Core/BTN_STICK*%
X141300000Y-98800000D03*
%TO.N,/Buttons_Direct/BTN_MACRO1*%
X133300000Y-94400000D03*
X142000000Y-84500000D03*
X136446917Y-91946917D03*
X128450000Y-99880297D03*
%TO.N,/MCU_Core/MCU_BOOT*%
X153800000Y-124700000D03*
X153175000Y-82230000D03*
%TO.N,/Buttons_Direct/BTN_MACRO4*%
X144934313Y-79934313D03*
X129000000Y-116500000D03*
%TO.N,/Buttons_Direct/BTN_VOL_DN*%
X150300000Y-77500000D03*
X150900000Y-82830000D03*
%TO.N,/MCU_Core/STAT2*%
X136300000Y-89400000D03*
X136999999Y-122096015D03*
X142500000Y-72600000D03*
%TO.N,/MCU_Core/PWR_HOLD*%
X144100000Y-116800000D03*
X140400000Y-89700000D03*
X144800000Y-70100000D03*
%TO.N,/MCU_Core/RGB_DIN*%
X151500000Y-85000000D03*
X151500000Y-78000000D03*
%TO.N,/MCU_Core/PWR_BTN_SENSE*%
X125000000Y-154500000D03*
X154100000Y-81100000D03*
%TO.N,/MCU_Core/STAT1*%
X131500000Y-69000000D03*
X128100000Y-103700000D03*
X126624265Y-119724265D03*
%TO.N,VBUS*%
X135470098Y-154243783D03*
X139556798Y-154232791D03*
%TO.N,VSYS*%
X142200000Y-119500000D03*
X121800000Y-85700000D03*
X136200000Y-116100000D03*
X136275000Y-108200000D03*
X139000000Y-119124499D03*
%TO.N,/Power_Buck/PWR_EN*%
X149000000Y-112000000D03*
X133588870Y-113975000D03*
X143000000Y-114500000D03*
X133850000Y-111000000D03*
%TD*%
%TO.N,3V3*%
D40*
X127510000Y-120000000D02*
X127110000Y-120400000D01*
D41*
X122025000Y-109050000D02*
X122025000Y-107975000D01*
X125000000Y-110000000D02*
X123500000Y-110000000D01*
D42*
X138110000Y-122800000D02*
X139100000Y-122800000D01*
X152000000Y-66000000D02*
X152700000Y-65300000D01*
X139100000Y-122800000D02*
X139342332Y-122557668D01*
X152700000Y-65300000D02*
X152700000Y-63000000D01*
D40*
X127510000Y-120000000D02*
X127900000Y-120000000D01*
D42*
X152750000Y-63641726D02*
X152750000Y-63000000D01*
D41*
X123500000Y-110000000D02*
X123500000Y-111765000D01*
X123500000Y-110000000D02*
X122975000Y-110000000D01*
X122975000Y-110000000D02*
X122025000Y-109050000D01*
X122025000Y-107975000D02*
X122500000Y-107500000D01*
X123500000Y-111765000D02*
X122525000Y-112740000D01*
%TO.N,GND*%
D42*
X125000000Y-122500000D02*
X125000000Y-124000000D01*
X151430000Y-63000000D02*
X151430000Y-65610000D01*
X134700000Y-119750000D02*
X134650000Y-119800000D01*
D40*
X123240000Y-115760000D02*
X123500000Y-115500000D01*
D42*
X133000000Y-119000000D02*
X133136397Y-119000000D01*
D40*
X137000000Y-119000000D02*
X135970000Y-117970000D01*
D42*
X134700000Y-119450000D02*
X134650000Y-119400000D01*
D40*
X129550000Y-105500000D02*
X128000000Y-105500000D01*
X122025000Y-111475000D02*
X121500000Y-112000000D01*
D42*
X125000000Y-122500000D02*
X125000000Y-121020000D01*
D40*
X138400000Y-120500000D02*
X139000000Y-120500000D01*
D42*
X147500000Y-133000000D02*
X147500000Y-134000000D01*
X133136397Y-119000000D02*
X133450000Y-119313603D01*
X134700000Y-119750000D02*
X134700000Y-119450000D01*
X133136397Y-119000000D02*
X133450000Y-118686397D01*
X148500000Y-120000000D02*
X147500000Y-119000000D01*
D40*
X122525000Y-115760000D02*
X123240000Y-115760000D01*
D42*
X133450000Y-119313603D02*
X133450000Y-120070634D01*
X133450000Y-118129366D02*
X133020634Y-117700000D01*
X125000000Y-124000000D02*
X123500000Y-124000000D01*
D40*
X139900000Y-117000000D02*
X139900000Y-118100000D01*
D42*
X126100000Y-118000000D02*
X125000000Y-118000000D01*
D40*
X122025000Y-110950000D02*
X122025000Y-111475000D01*
X139000000Y-120500000D02*
X139500000Y-120000000D01*
X139900000Y-118100000D02*
X139500000Y-118500000D01*
X129000000Y-119000000D02*
X130000000Y-119000000D01*
D42*
X133450000Y-118686397D02*
X133450000Y-118129366D01*
D40*
X135970000Y-117970000D02*
X135500000Y-117970000D01*
D42*
X133450000Y-120070634D02*
X133020634Y-120500000D01*
X131475000Y-111475000D02*
X131500000Y-111500000D01*
X146000000Y-123510000D02*
X145010000Y-123510000D01*
X135900000Y-157200000D02*
X137350000Y-157200000D01*
D40*
X131475000Y-110000000D02*
X131475000Y-111475000D01*
D42*
X137350000Y-157200000D02*
X137400000Y-157250000D01*
X145010000Y-123510000D02*
X145000000Y-123500000D01*
X134650000Y-119400000D02*
X134050000Y-119400000D01*
X125000000Y-121020000D02*
X125020000Y-121000000D01*
X134650000Y-119800000D02*
X134050000Y-119800000D01*
X151430000Y-65610000D02*
X151040000Y-66000000D01*
%TO.N,/MCU_Core/XBEE_ON_SLEEP*%
X122984500Y-127079366D02*
X125443866Y-124620000D01*
X138780000Y-124620000D02*
X139668067Y-123731933D01*
X128000000Y-140200000D02*
X128000000Y-135800000D01*
X128000000Y-135800000D02*
X122984500Y-130784500D01*
X125443866Y-124620000D02*
X138780000Y-124620000D01*
X122984500Y-130784500D02*
X122984500Y-127079366D01*
%TO.N,/MCU_Core/XBee_CS*%
X143015500Y-127079366D02*
X141736134Y-125800000D01*
X134700000Y-145500000D02*
X134700000Y-145300000D01*
X143015500Y-136984500D02*
X143015500Y-127079366D01*
X134700000Y-145300000D02*
X143015500Y-136984500D01*
X141736134Y-125800000D02*
X136600000Y-125800000D01*
%TO.N,/XBee/XBEE_SPI_ATTN*%
X131100000Y-74600000D02*
X131100000Y-76748529D01*
X123284500Y-132484500D02*
X123184500Y-132484500D01*
X130500000Y-74000000D02*
X131100000Y-74600000D01*
X127400000Y-146100000D02*
X127400000Y-136600000D01*
X128400000Y-97931091D02*
X126300000Y-100031091D01*
X128400000Y-79448529D02*
X128400000Y-97931091D01*
X136550000Y-146050000D02*
X136500000Y-146100000D01*
X126300000Y-100300000D02*
X129000000Y-103000000D01*
X131100000Y-76748529D02*
X128400000Y-79448529D01*
X127400000Y-136600000D02*
X123284500Y-132484500D01*
X126300000Y-100031091D02*
X126300000Y-100300000D01*
X136500000Y-146100000D02*
X127400000Y-146100000D01*
%TO.N,/Buttons_Direct/BTN_MACRO2*%
X143500000Y-84500000D02*
X143500000Y-85742362D01*
X143500000Y-85742362D02*
X135816422Y-93425941D01*
%TO.N,/Buttons_Direct/BTN_MACRO5*%
X134375000Y-115075000D02*
X140947794Y-115075000D01*
X144500000Y-79000000D02*
X144500000Y-79520097D01*
X145000000Y-78500000D02*
X144500000Y-79000000D01*
X133500000Y-116400000D02*
X133500000Y-115950000D01*
X141260662Y-115387868D02*
X141500000Y-115387868D01*
X144900000Y-80748529D02*
X144900000Y-86100000D01*
X133500000Y-115950000D02*
X134375000Y-115075000D01*
X144334313Y-80182842D02*
X144900000Y-80748529D01*
X140947794Y-115075000D02*
X141260662Y-115387868D01*
X144900000Y-86100000D02*
X144000000Y-87000000D01*
X144334313Y-79685784D02*
X144334313Y-80182842D01*
X144500000Y-79520097D02*
X144334313Y-79685784D01*
%TO.N,/Buttons_Direct/BTN_MACRO6*%
X145000000Y-77000000D02*
X146500000Y-78500000D01*
X146500000Y-88302943D02*
X148500000Y-90302943D01*
X146500000Y-78500000D02*
X146500000Y-88302943D01*
%TO.N,/Buttons_Direct/BTN_MACRO3*%
X145500000Y-90146167D02*
X148100000Y-92746167D01*
X145500000Y-80500000D02*
X145500000Y-90146167D01*
X148100000Y-106400000D02*
X145000000Y-109500000D01*
X148100000Y-92746167D02*
X148100000Y-106400000D01*
%TO.N,/Buttons_Direct/BTN_TRIG_DIG*%
X122500000Y-63500000D02*
X122000000Y-63000000D01*
X126747017Y-76747017D02*
X122500000Y-72500000D01*
X122500000Y-72500000D02*
X122500000Y-63500000D01*
X126758949Y-76747017D02*
X126747017Y-76747017D01*
%TO.N,/Hall_Trigger/TRIG_ANALOG*%
X149900000Y-63000000D02*
X148400000Y-64500000D01*
X150160000Y-63000000D02*
X149900000Y-63000000D01*
X133210000Y-65390000D02*
X130800000Y-67800000D01*
X148400000Y-64500000D02*
X133210000Y-64500000D01*
X133210000Y-64500000D02*
X133210000Y-65390000D01*
%TO.N,/MCU_Core/STICK_X*%
X138500000Y-80200000D02*
X138300000Y-80200000D01*
X138300000Y-80200000D02*
X137500000Y-81000000D01*
X137500000Y-81000000D02*
X137500000Y-86520000D01*
%TO.N,/MCU_Core/STICK_Y*%
X133150000Y-92650000D02*
X133998529Y-92650000D01*
X134350000Y-93284314D02*
X134400000Y-93334315D01*
X137500000Y-97000000D02*
X144480000Y-97000000D01*
X134400000Y-93900000D02*
X137500000Y-97000000D01*
X134350000Y-93001471D02*
X134350000Y-93284314D01*
X134400000Y-93334315D02*
X134400000Y-93900000D01*
X133998529Y-92650000D02*
X134350000Y-93001471D01*
X136241051Y-80752983D02*
X133150000Y-83844034D01*
X133150000Y-83844034D02*
X133150000Y-92650000D01*
X144480000Y-97000000D02*
X146230000Y-95250000D01*
%TO.N,/MCU_Core/VSYS_SENSE*%
X127300000Y-71100000D02*
X127500000Y-71300000D01*
X123900000Y-71100000D02*
X127300000Y-71100000D01*
%TO.N,/Buttons_Direct/BTN_THR_UP*%
X127358949Y-76141051D02*
X127358949Y-76995546D01*
X128000000Y-75500000D02*
X127358949Y-76141051D01*
X125150000Y-90400000D02*
X125250000Y-90500000D01*
X127358949Y-76995546D02*
X125150000Y-79204495D01*
X125150000Y-79204495D02*
X125150000Y-90400000D01*
%TO.N,/Buttons_Direct/BTN_THR_DN*%
X128000000Y-76500000D02*
X128000000Y-97765405D01*
X128000000Y-97765405D02*
X125340812Y-100424593D01*
%TO.N,/MCU_Core/I2C_SCL*%
X130500000Y-76500000D02*
X127000000Y-73000000D01*
X127000000Y-73000000D02*
X124500000Y-73000000D01*
X124500000Y-73000000D02*
X124500000Y-72000000D01*
%TO.N,/MCU_Core/BTN_STICK*%
X136450000Y-98800000D02*
X134250000Y-101000000D01*
X141300000Y-98800000D02*
X136450000Y-98800000D01*
%TO.N,/Buttons_Direct/BTN_MACRO1*%
X128450000Y-99250000D02*
X133300000Y-94400000D01*
X142000000Y-86393834D02*
X136446917Y-91946917D01*
X128450000Y-99880297D02*
X128450000Y-99250000D01*
X142000000Y-84500000D02*
X142000000Y-86393834D01*
%TO.N,/MCU_Core/MCU_BOOT*%
X153800000Y-124700000D02*
X154000000Y-124500000D01*
X154000000Y-83055000D02*
X153175000Y-82230000D01*
X154000000Y-124500000D02*
X154000000Y-83055000D01*
%TO.N,/Buttons_Direct/BTN_MACRO4*%
X129660000Y-117000000D02*
X129080000Y-116420000D01*
X146100000Y-88751471D02*
X148600000Y-91251471D01*
X134334314Y-116165686D02*
X134100000Y-116400000D01*
X134100000Y-116648529D02*
X133748529Y-117000000D01*
X140782108Y-115475000D02*
X134540686Y-115475000D01*
X145748529Y-79900000D02*
X146100000Y-80251471D01*
X141251471Y-115987868D02*
X140900000Y-115636397D01*
X148600000Y-91251471D02*
X148600000Y-109900000D01*
X148600000Y-109900000D02*
X142500000Y-116000000D01*
X134540686Y-115475000D02*
X134334314Y-115681372D01*
X133748529Y-117000000D02*
X129660000Y-117000000D01*
X141500000Y-116000000D02*
X141487868Y-115987868D01*
X144968626Y-79900000D02*
X145748529Y-79900000D01*
X140900000Y-115592892D02*
X140782108Y-115475000D01*
X146100000Y-80251471D02*
X146100000Y-88751471D01*
X142500000Y-116000000D02*
X141500000Y-116000000D01*
X140900000Y-115636397D02*
X140900000Y-115592892D01*
X134334314Y-115681372D02*
X134334314Y-116165686D01*
X134100000Y-116400000D02*
X134100000Y-116648529D01*
X141487868Y-115987868D02*
X141251471Y-115987868D01*
X144934313Y-79934313D02*
X144968626Y-79900000D01*
%TO.N,/Buttons_Direct/BTN_VOL_DN*%
X150900000Y-82830000D02*
X150500000Y-82430000D01*
X150500000Y-82430000D02*
X150500000Y-78500000D01*
X150500000Y-78500000D02*
X150300000Y-78300000D01*
X150300000Y-78300000D02*
X150300000Y-77500000D01*
%TO.N,/MCU_Core/STAT2*%
X136300000Y-89400000D02*
X136006167Y-89400000D01*
X137051167Y-82595000D02*
X137051167Y-78048833D01*
X137051167Y-78048833D02*
X142500000Y-72600000D01*
X137090000Y-122800000D02*
X137090000Y-122186016D01*
X134050000Y-119000000D02*
X134815686Y-119000000D01*
X136006167Y-89400000D02*
X133675000Y-87068833D01*
X135700000Y-121410000D02*
X137090000Y-122800000D01*
X134815686Y-119000000D02*
X135700000Y-119884314D01*
X133675000Y-85971167D02*
X137051167Y-82595000D01*
X133675000Y-87068833D02*
X133675000Y-85971167D01*
X137090000Y-122186016D02*
X136999999Y-122096015D01*
X135700000Y-119884314D02*
X135700000Y-121410000D01*
%TO.N,/MCU_Core/PWR_HOLD*%
D40*
X144000000Y-118350000D02*
X144000000Y-116900000D01*
X144000000Y-116900000D02*
X144100000Y-116800000D01*
X143600000Y-71300000D02*
X144800000Y-70100000D01*
X143600000Y-80084925D02*
X143600000Y-71300000D01*
X144150000Y-80634925D02*
X143600000Y-80084925D01*
X140400000Y-89680761D02*
X144150000Y-85930761D01*
X140400000Y-89700000D02*
X140400000Y-89680761D01*
X144150000Y-85930761D02*
X144150000Y-80634925D01*
%TO.N,/MCU_Core/RGB_DIN*%
D42*
X151500000Y-85000000D02*
X151500000Y-78000000D01*
%TO.N,/MCU_Core/PWR_BTN_SENSE*%
X145980000Y-137500000D02*
X136480000Y-147000000D01*
X154400000Y-129200000D02*
X154400000Y-81400000D01*
X122984500Y-152484500D02*
X125000000Y-154500000D01*
X148520000Y-134960000D02*
X145980000Y-137500000D01*
X147000000Y-129150000D02*
X154350000Y-129150000D01*
X154350000Y-129150000D02*
X154400000Y-129200000D01*
X154400000Y-81400000D02*
X154100000Y-81100000D01*
X147000000Y-129150000D02*
X147000000Y-131480000D01*
X125063866Y-147000000D02*
X122984500Y-149079366D01*
X122984500Y-149079366D02*
X122984500Y-152484500D01*
X148520000Y-133000000D02*
X148520000Y-134960000D01*
X147000000Y-131480000D02*
X148520000Y-133000000D01*
X136480000Y-147000000D02*
X125063866Y-147000000D01*
%TO.N,/MCU_Core/STAT1*%
X133900000Y-94151471D02*
X133900000Y-98447613D01*
X127075735Y-119724265D02*
X127575000Y-119225000D01*
X130600000Y-119273385D02*
X130600000Y-119420000D01*
X129952387Y-103700000D02*
X128100000Y-103700000D01*
X128920000Y-120000000D02*
X128145000Y-119225000D01*
X127575000Y-119225000D02*
X128145000Y-119225000D01*
X132750000Y-70250000D02*
X132750000Y-93001471D01*
X132750000Y-93001471D02*
X133900000Y-94151471D01*
X126624265Y-119724265D02*
X127075735Y-119724265D01*
X132750000Y-99597613D02*
X132750000Y-100902387D01*
X131950000Y-118600000D02*
X131273386Y-118600000D01*
X131273386Y-118600000D02*
X130600000Y-119273385D01*
X132750000Y-100902387D02*
X129952387Y-103700000D01*
X130600000Y-119420000D02*
X130020000Y-120000000D01*
X128920000Y-120000000D02*
X130020000Y-120000000D01*
X131500000Y-69000000D02*
X132750000Y-70250000D01*
X133900000Y-98447613D02*
X132750000Y-99597613D01*
%TO.N,VBUS*%
X126975000Y-119025000D02*
X128000000Y-118000000D01*
X122584500Y-152933029D02*
X122584500Y-122496576D01*
X122584500Y-122496576D02*
X126056076Y-119025000D01*
X133100000Y-151000000D02*
X133065500Y-150965500D01*
X128040000Y-118040000D02*
X128000000Y-118000000D01*
X138150000Y-155150000D02*
X137400000Y-155150000D01*
X136750000Y-154500000D02*
X137400000Y-155150000D01*
X131950000Y-118200000D02*
X130160000Y-118200000D01*
X135470098Y-154243783D02*
X135726315Y-154500000D01*
X138200000Y-153700000D02*
X135500000Y-151000000D01*
X126056076Y-119025000D02*
X126975000Y-119025000D01*
X135726315Y-154500000D02*
X136750000Y-154500000D01*
X137400000Y-155150000D02*
X138200000Y-154350000D01*
X139556798Y-154232791D02*
X139067209Y-154232791D01*
X139067209Y-154232791D02*
X138150000Y-155150000D01*
X124751471Y-155100000D02*
X122584500Y-152933029D01*
X138200000Y-154350000D02*
X138200000Y-153700000D01*
D40*
X130000000Y-118040000D02*
X128040000Y-118040000D01*
D42*
X128931000Y-155100000D02*
X124751471Y-155100000D01*
X133065500Y-150965500D02*
X128931000Y-155100000D01*
X135500000Y-151000000D02*
X133100000Y-151000000D01*
X130160000Y-118200000D02*
X130000000Y-118040000D01*
%TO.N,VSYS*%
X130425000Y-104475000D02*
X131450000Y-105500000D01*
X147181076Y-113880000D02*
X147900000Y-113880000D01*
X138000000Y-118124499D02*
X138000000Y-117000000D01*
X123488235Y-87388235D02*
X123488235Y-100336764D01*
X121800000Y-85700000D02*
X123488235Y-87388235D01*
X146300000Y-133810000D02*
X146300000Y-129798696D01*
X147490000Y-135000000D02*
X146300000Y-133810000D01*
X131700000Y-105500000D02*
X131450000Y-105500000D01*
X143500652Y-120800652D02*
X146930000Y-117371304D01*
X134600000Y-117000000D02*
X135500000Y-117000000D01*
X143100000Y-126598696D02*
X143100000Y-121201304D01*
D40*
X130525000Y-107725000D02*
X130525000Y-106425000D01*
D41*
X148625000Y-114605000D02*
X148520000Y-114500000D01*
D42*
X134050000Y-117550000D02*
X134600000Y-117000000D01*
X148625000Y-116050000D02*
X148625000Y-114605000D01*
X137100000Y-116100000D02*
X136200000Y-116100000D01*
X139000000Y-119124499D02*
X138000000Y-118124499D01*
X143100000Y-121201304D02*
X143500652Y-120800652D01*
X127626471Y-104475000D02*
X130425000Y-104475000D01*
X146930000Y-114131076D02*
X147181076Y-113880000D01*
X146930000Y-117371304D02*
X146930000Y-114131076D01*
X143500652Y-120800652D02*
X142200000Y-119500000D01*
X135500000Y-117000000D02*
X138000000Y-117000000D01*
X147900000Y-113880000D02*
X148520000Y-114500000D01*
X123488235Y-100336764D02*
X127626471Y-104475000D01*
D40*
X130525000Y-106425000D02*
X131450000Y-105500000D01*
D42*
X138000000Y-117000000D02*
X137100000Y-116100000D01*
X134400000Y-108200000D02*
X131700000Y-105500000D01*
X134050000Y-118200000D02*
X134050000Y-117550000D01*
X146300000Y-129798696D02*
X143100000Y-126598696D01*
X136275000Y-108200000D02*
X134400000Y-108200000D01*
%TO.N,/Power_Control/PWR_GATE*%
X147500000Y-116825000D02*
X148625000Y-117950000D01*
X150375000Y-119700000D02*
X150375000Y-120950000D01*
X148625000Y-117950000D02*
X150375000Y-119700000D01*
X147500000Y-114500000D02*
X147500000Y-116825000D01*
%TO.N,/Power_Buck/PWR_EN*%
D41*
X143000000Y-114500000D02*
X134113870Y-114500000D01*
X150500000Y-113500000D02*
X149000000Y-112000000D01*
X150500000Y-117000000D02*
X150500000Y-113500000D01*
X133425000Y-111000000D02*
X132425000Y-110000000D01*
X133850000Y-111000000D02*
X133425000Y-111000000D01*
X134113870Y-114500000D02*
X133588870Y-113975000D01*
%TO.N,VBAT*%
X152500000Y-71000000D02*
X152400000Y-71100000D01*
X139821016Y-120775000D02*
X139608884Y-120775000D01*
X152400000Y-98978858D02*
X152400000Y-102071142D01*
D40*
X136500000Y-120500000D02*
X136500000Y-119775000D01*
D41*
X152400000Y-102071142D02*
X152225000Y-102246142D01*
X152400000Y-97821142D02*
X152225000Y-97996142D01*
X140275000Y-120321016D02*
X139821016Y-120775000D01*
X137700000Y-121700000D02*
X136500000Y-120500000D01*
X152225000Y-92221142D02*
X152225000Y-93028858D01*
X152225000Y-87971142D02*
X152225000Y-88778858D01*
D40*
X136500000Y-119775000D02*
X135325000Y-118600000D01*
D41*
X139375000Y-121008884D02*
X139375000Y-121282232D01*
X152225000Y-98803858D02*
X152400000Y-98978858D01*
X140453984Y-119500000D02*
X140275000Y-119678984D01*
X140275000Y-119678984D02*
X140275000Y-120321016D01*
X152225000Y-103053858D02*
X152400000Y-103228858D01*
X152400000Y-71100000D02*
X152400000Y-87796142D01*
X152225000Y-88778858D02*
X152400000Y-88953858D01*
X152225000Y-102246142D02*
X152225000Y-103053858D01*
X138957232Y-121700000D02*
X137700000Y-121700000D01*
X141000000Y-119500000D02*
X140453984Y-119500000D01*
X141000000Y-118500000D02*
X141000000Y-119500000D01*
X152400000Y-87796142D02*
X152225000Y-87971142D01*
X152225000Y-97996142D02*
X152225000Y-98803858D01*
X152400000Y-93203858D02*
X152400000Y-97821142D01*
X152400000Y-103228858D02*
X152400000Y-107100000D01*
X152225000Y-93028858D02*
X152400000Y-93203858D01*
X152400000Y-88953858D02*
X152400000Y-92046142D01*
X139608884Y-120775000D02*
X139375000Y-121008884D01*
X152500000Y-68900000D02*
X152500000Y-71000000D01*
X152400000Y-92046142D02*
X152225000Y-92221142D01*
D42*
X135325000Y-118600000D02*
X134050000Y-118600000D01*
D41*
X139375000Y-121282232D02*
X138957232Y-121700000D01*
X152400000Y-107100000D02*
X141000000Y-118500000D01*
%TO.N,/Power_Control/PWR_LATCH_G*%
D42*
X147000000Y-122950000D02*
X146460000Y-122950000D01*
X147000000Y-125850000D02*
X147000000Y-123400000D01*
X147450000Y-122950000D02*
X148500000Y-121900000D01*
X147000000Y-123400000D02*
X147450000Y-122950000D01*
X147000000Y-122500000D02*
X146150000Y-121650000D01*
X147000000Y-122950000D02*
X147000000Y-122500000D01*
X147450000Y-122950000D02*
X147000000Y-122950000D01*
X146150000Y-121650000D02*
X144000000Y-121650000D01*
X146460000Y-122950000D02*
X146000000Y-122490000D01*
%TO.N,/Power_Charger/CHG_TS*%
X126020000Y-124000000D02*
X126520000Y-123500000D01*
X129000000Y-123500000D02*
X131950000Y-120550000D01*
X126520000Y-123500000D02*
X129000000Y-123500000D01*
X131950000Y-120550000D02*
X131950000Y-119800000D01*
%TO.N,/Power_Charger/CHG_VSET*%
X131000000Y-120934314D02*
X131000000Y-120895244D01*
X130434314Y-121500000D02*
X131000000Y-120934314D01*
X126520000Y-122000000D02*
X129500000Y-122000000D01*
X131604756Y-119400000D02*
X131950000Y-119400000D01*
X130000000Y-121500000D02*
X130434314Y-121500000D01*
X129500000Y-122000000D02*
X130000000Y-121500000D01*
X131500000Y-120395244D02*
X131500000Y-120095244D01*
X131500000Y-120095244D02*
X131400000Y-119995244D01*
X131400000Y-119604756D02*
X131604756Y-119400000D01*
X131000000Y-120895244D02*
X131500000Y-120395244D01*
X126020000Y-122500000D02*
X126520000Y-122000000D01*
X131400000Y-119995244D02*
X131400000Y-119604756D01*
%TO.N,/Power_Charger/CHG_ISET*%
X130368628Y-121000000D02*
X130600000Y-120768628D01*
X126040000Y-121000000D02*
X128151471Y-121000000D01*
X131000000Y-119439070D02*
X131439071Y-119000000D01*
X130600000Y-120768628D02*
X130600000Y-120729558D01*
X129348529Y-121000000D02*
X130368628Y-121000000D01*
X128151471Y-121000000D02*
X128501471Y-120650000D01*
X128998529Y-120650000D02*
X129348529Y-121000000D01*
X130600000Y-120729558D02*
X131000000Y-120329558D01*
X128501471Y-120650000D02*
X128998529Y-120650000D01*
X131000000Y-120329558D02*
X131000000Y-119439070D01*
X131439071Y-119000000D02*
X131950000Y-119000000D01*
%TO.N,/Power_Buck/BUCK_FB*%
D40*
X134500000Y-109800000D02*
X134500000Y-112000000D01*
X132425000Y-107725000D02*
X134500000Y-109800000D01*
X122525000Y-114740000D02*
X122525000Y-113760000D01*
X132740000Y-113760000D02*
X122525000Y-113760000D01*
X134500000Y-112000000D02*
X132740000Y-113760000D01*
%TO.N,/Power_Buck/BUCK_SW*%
D43*
X130525000Y-110000000D02*
X128050000Y-110000000D01*
%TD*%
M02*
