%TF.GenerationSoftware,KiCad,Pcbnew,10.0.5*%
%TF.CreationDate,2026-08-24T15:52:47-07:00*%
%TF.ProjectId,snips_controller,736e6970-735f-4636-9f6e-74726f6c6c65,rev?*%
%TF.SameCoordinates,Original*%
%TF.FileFunction,Paste,Top*%
%TF.FilePolarity,Positive*%
%FSLAX46Y46*%
G04 Gerber Fmt 4.6, Leading zero omitted, Abs format (unit mm)*
G04 Created by KiCad (PCBNEW 10.0.5) date 2026-08-24 15:52:47*
%MOMM*%
%LPD*%
G01*
G04 APERTURE LIST*
G04 Aperture macros list*
%AMRoundRect*
0 Rectangle with rounded corners*
0 $1 Rounding radius*
0 $2 $3 $4 $5 $6 $7 $8 $9 X,Y pos of 4 corners*
0 Add a 4 corners polygon primitive as box body*
4,1,4,$2,$3,$4,$5,$6,$7,$8,$9,$2,$3,0*
0 Add four circle primitives for the rounded corners*
1,1,$1+$1,$2,$3*
1,1,$1+$1,$4,$5*
1,1,$1+$1,$6,$7*
1,1,$1+$1,$8,$9*
0 Add four rect primitives between the rounded corners*
20,1,$1+$1,$2,$3,$4,$5,0*
20,1,$1+$1,$4,$5,$6,$7,0*
20,1,$1+$1,$6,$7,$8,$9,0*
20,1,$1+$1,$8,$9,$2,$3,0*%
G04 Aperture macros list end*
%ADD10RoundRect,0.500000X-0.500000X-0.500000X0.500000X-0.500000X0.500000X0.500000X-0.500000X0.500000X0*%
%ADD11RoundRect,0.135000X0.135000X0.185000X-0.135000X0.185000X-0.135000X-0.185000X0.135000X-0.185000X0*%
%ADD12R,1.500000X1.000000*%
%ADD13RoundRect,0.140000X0.140000X0.170000X-0.140000X0.170000X-0.140000X-0.170000X0.140000X-0.170000X0*%
%ADD14RoundRect,0.140000X0.170000X-0.140000X0.170000X0.140000X-0.170000X0.140000X-0.170000X-0.140000X0*%
%ADD15RoundRect,0.140000X-0.170000X0.140000X-0.170000X-0.140000X0.170000X-0.140000X0.170000X0.140000X0*%
%ADD16RoundRect,0.135000X0.185000X-0.135000X0.185000X0.135000X-0.185000X0.135000X-0.185000X-0.135000X0*%
%ADD17RoundRect,0.187500X0.187500X0.712500X-0.187500X0.712500X-0.187500X-0.712500X0.187500X-0.712500X0*%
%ADD18RoundRect,0.150000X0.150000X0.750000X-0.150000X0.750000X-0.150000X-0.750000X0.150000X-0.750000X0*%
%ADD19RoundRect,0.225000X0.425000X0.225000X-0.425000X0.225000X-0.425000X-0.225000X0.425000X-0.225000X0*%
%ADD20RoundRect,0.135000X-0.185000X0.135000X-0.185000X-0.135000X0.185000X-0.135000X0.185000X0.135000X0*%
%ADD21R,1.500000X0.900000*%
%ADD22R,0.900000X1.500000*%
%ADD23R,0.900000X0.900000*%
%ADD24RoundRect,0.187500X-0.712500X0.187500X-0.712500X-0.187500X0.712500X-0.187500X0.712500X0.187500X0*%
%ADD25RoundRect,0.150000X-0.750000X0.150000X-0.750000X-0.150000X0.750000X-0.150000X0.750000X0.150000X0*%
%ADD26RoundRect,0.225000X-0.225000X0.425000X-0.225000X-0.425000X0.225000X-0.425000X0.225000X0.425000X0*%
%ADD27RoundRect,0.150000X-0.150000X-0.625000X0.150000X-0.625000X0.150000X0.625000X-0.150000X0.625000X0*%
%ADD28RoundRect,0.250000X-0.350000X-0.650000X0.350000X-0.650000X0.350000X0.650000X-0.350000X0.650000X0*%
%ADD29RoundRect,0.135000X-0.135000X-0.185000X0.135000X-0.185000X0.135000X0.185000X-0.135000X0.185000X0*%
%ADD30RoundRect,0.225000X-0.250000X0.225000X-0.250000X-0.225000X0.250000X-0.225000X0.250000X0.225000X0*%
%ADD31RoundRect,0.140000X-0.140000X-0.170000X0.140000X-0.170000X0.140000X0.170000X-0.140000X0.170000X0*%
%ADD32RoundRect,0.250000X0.250000X-0.475000X0.250000X0.475000X-0.250000X0.475000X-0.250000X-0.475000X0*%
%ADD33RoundRect,0.187500X0.712500X-0.187500X0.712500X0.187500X-0.712500X0.187500X-0.712500X-0.187500X0*%
%ADD34RoundRect,0.150000X0.750000X-0.150000X0.750000X0.150000X-0.750000X0.150000X-0.750000X-0.150000X0*%
%ADD35RoundRect,0.225000X0.225000X-0.425000X0.225000X0.425000X-0.225000X0.425000X-0.225000X-0.425000X0*%
%ADD36RoundRect,0.150000X-0.150000X-0.575000X0.150000X-0.575000X0.150000X0.575000X-0.150000X0.575000X0*%
%ADD37RoundRect,0.075000X-0.075000X-0.650000X0.075000X-0.650000X0.075000X0.650000X-0.075000X0.650000X0*%
%ADD38RoundRect,0.225000X0.250000X-0.225000X0.250000X0.225000X-0.250000X0.225000X-0.250000X-0.225000X0*%
%ADD39RoundRect,0.250000X-0.250000X-0.475000X0.250000X-0.475000X0.250000X0.475000X-0.250000X0.475000X0*%
%ADD40RoundRect,0.187500X-0.187500X-0.712500X0.187500X-0.712500X0.187500X0.712500X-0.187500X0.712500X0*%
%ADD41RoundRect,0.150000X-0.150000X-0.750000X0.150000X-0.750000X0.150000X0.750000X-0.150000X0.750000X0*%
%ADD42RoundRect,0.225000X-0.425000X-0.225000X0.425000X-0.225000X0.425000X0.225000X-0.425000X0.225000X0*%
G04 APERTURE END LIST*
D10*
%TO.C,SW_MACRO2*%
X134500000Y-112500000D03*
X140500000Y-112500000D03*
%TD*%
%TO.C,SW_MACRO5*%
X134500000Y-121250000D03*
X140500000Y-121250000D03*
%TD*%
D11*
%TO.C,R_XBEE_RST1*%
X137760000Y-130000000D03*
X136740000Y-130000000D03*
%TD*%
D12*
%TO.C,D_RGB1*%
X144100000Y-155050000D03*
X144100000Y-158250000D03*
X149000000Y-158250000D03*
X149000000Y-155050000D03*
%TD*%
D13*
%TO.C,C_XBEE_RC1*%
X135210000Y-131250000D03*
X134250000Y-131250000D03*
%TD*%
D10*
%TO.C,SW_MACRO6*%
X144750000Y-121250000D03*
X150750000Y-121250000D03*
%TD*%
D14*
%TO.C,C_RGB1*%
X150500000Y-153230000D03*
X150500000Y-152270000D03*
%TD*%
D10*
%TO.C,SW_MACRO3*%
X144750000Y-112500000D03*
X150750000Y-112500000D03*
%TD*%
D15*
%TO.C,C_XBEE_VCC1*%
X141000000Y-129020000D03*
X141000000Y-129980000D03*
%TD*%
D11*
%TO.C,R_XBEE_RC1*%
X135260000Y-130000000D03*
X134240000Y-130000000D03*
%TD*%
D16*
%TO.C,R_USB_DM1*%
X127750000Y-154270000D03*
X127750000Y-153250000D03*
%TD*%
D17*
%TO.C,SW_TRIG_DIG1*%
X125950000Y-62650000D03*
X123500000Y-62650000D03*
D18*
X124725000Y-62650000D03*
D19*
X126575000Y-60700000D03*
X122875000Y-60700000D03*
%TD*%
D20*
%TO.C,R_EN_PU1*%
X126000000Y-74990000D03*
X126000000Y-76010000D03*
%TD*%
D21*
%TO.C,U_MCU1*%
X129250000Y-64650000D03*
X129250000Y-65920000D03*
X129250000Y-67190000D03*
X129250000Y-68460000D03*
X129250000Y-69730000D03*
X129250000Y-71000000D03*
X129250000Y-72270000D03*
X129250000Y-73540000D03*
X129250000Y-74810000D03*
X129250000Y-76080000D03*
X129250000Y-77350000D03*
X129250000Y-78620000D03*
X129250000Y-79890000D03*
X129250000Y-81160000D03*
D22*
X131015000Y-82410000D03*
X132285000Y-82410000D03*
X133555000Y-82410000D03*
X134825000Y-82410000D03*
X136095000Y-82410000D03*
X137365000Y-82410000D03*
X138635000Y-82410000D03*
X139905000Y-82410000D03*
X141175000Y-82410000D03*
X142445000Y-82410000D03*
X143715000Y-82410000D03*
X144985000Y-82410000D03*
D21*
X146750000Y-81160000D03*
X146750000Y-79890000D03*
X146750000Y-78620000D03*
X146750000Y-77350000D03*
X146750000Y-76080000D03*
X146750000Y-74810000D03*
X146750000Y-73540000D03*
X146750000Y-72270000D03*
X146750000Y-71000000D03*
X146750000Y-69730000D03*
X146750000Y-68460000D03*
X146750000Y-67190000D03*
X146750000Y-65920000D03*
X146750000Y-64650000D03*
D23*
X135100000Y-70970000D03*
X135100000Y-72370000D03*
X135100000Y-73770000D03*
X135100000Y-73770000D03*
X136500000Y-70970000D03*
X136500000Y-70970000D03*
X136500000Y-72370000D03*
X136500000Y-73770000D03*
X137900000Y-70970000D03*
X137900000Y-72370000D03*
X137900000Y-73770000D03*
%TD*%
D24*
%TO.C,SW_THR_UP1*%
X122650000Y-89275000D03*
X122650000Y-91725000D03*
D25*
X122650000Y-90500000D03*
D26*
X120700000Y-88650000D03*
X120700000Y-92350000D03*
%TD*%
D27*
%TO.C,U_OLED1*%
X122500000Y-69000000D03*
X123500000Y-69000000D03*
X124500000Y-69000000D03*
X125500000Y-69000000D03*
D28*
X121200000Y-72875000D03*
X126800000Y-72875000D03*
%TD*%
D29*
%TO.C,R_CC2*%
X143740000Y-152750000D03*
X144760000Y-152750000D03*
%TD*%
D30*
%TO.C,C_XBEE_VCC4*%
X142500000Y-133000000D03*
X142500000Y-134550000D03*
%TD*%
D31*
%TO.C,C_OLED_2*%
X122520000Y-67000000D03*
X123480000Y-67000000D03*
%TD*%
D32*
%TO.C,SW_BOOT1*%
X151650000Y-150675000D03*
X151650000Y-145525000D03*
X153350000Y-150675000D03*
X153350000Y-145525000D03*
%TD*%
D33*
%TO.C,SW_VOL_DN1*%
X152300000Y-101750000D03*
X152300000Y-99300000D03*
D34*
X152300000Y-100525000D03*
D35*
X154250000Y-102375000D03*
X154250000Y-98675000D03*
%TD*%
D10*
%TO.C,SW_MACRO4*%
X124250000Y-121250000D03*
X130250000Y-121250000D03*
%TD*%
D36*
%TO.C,J_USB1*%
X134250000Y-153055000D03*
X135050000Y-153055000D03*
D37*
X136250000Y-153055000D03*
X137250000Y-153055000D03*
X137750000Y-153055000D03*
X138750000Y-153055000D03*
D36*
X139950000Y-153055000D03*
X140750000Y-153055000D03*
X140750000Y-153055000D03*
X139950000Y-153055000D03*
D37*
X139250000Y-153055000D03*
X138250000Y-153055000D03*
X136750000Y-153055000D03*
X135750000Y-153055000D03*
D36*
X135050000Y-153055000D03*
X134250000Y-153055000D03*
%TD*%
D30*
%TO.C,C_XBEE_VCC2*%
X143750000Y-129225000D03*
X143750000Y-130775000D03*
%TD*%
D14*
%TO.C,C_DBNC1*%
X126500000Y-154480000D03*
X126500000Y-153520000D03*
%TD*%
D16*
%TO.C,R_RGB1*%
X148250000Y-153260000D03*
X148250000Y-152240000D03*
%TD*%
D20*
%TO.C,R_CC1*%
X130250000Y-153250000D03*
X130250000Y-154270000D03*
%TD*%
D14*
%TO.C,C_3V3_2*%
X127500000Y-65550000D03*
X127500000Y-64590000D03*
%TD*%
D38*
%TO.C,C_3V3_1*%
X126000000Y-66275000D03*
X126000000Y-64725000D03*
%TD*%
D29*
%TO.C,R_VSYS1*%
X121780000Y-84600000D03*
X122800000Y-84600000D03*
%TD*%
D16*
%TO.C,R_USB_DP1*%
X129000000Y-154270000D03*
X129000000Y-153250000D03*
%TD*%
D24*
%TO.C,SW_THR_DN1*%
X122650000Y-99300000D03*
X122650000Y-101750000D03*
D25*
X122650000Y-100525000D03*
D26*
X120700000Y-98675000D03*
X120700000Y-102375000D03*
%TD*%
D15*
%TO.C,C_XBEE_VCC3*%
X142250000Y-129020000D03*
X142250000Y-129980000D03*
%TD*%
D33*
%TO.C,SW_VOL_UP1*%
X152300000Y-91725000D03*
X152300000Y-89275000D03*
D34*
X152300000Y-90500000D03*
D35*
X154250000Y-92350000D03*
X154250000Y-88650000D03*
%TD*%
D39*
%TO.C,C_OLED_1*%
X121550000Y-65500000D03*
X123450000Y-65500000D03*
%TD*%
D10*
%TO.C,SW_MACRO1*%
X124250000Y-112500000D03*
X130250000Y-112500000D03*
%TD*%
D11*
%TO.C,R_VSYS2*%
X122790000Y-83400000D03*
X121770000Y-83400000D03*
%TD*%
D15*
%TO.C,C_STICK1*%
X148500000Y-92520000D03*
X148500000Y-93480000D03*
%TD*%
D40*
%TO.C,SW_PWR1*%
X127775000Y-157050000D03*
X130225000Y-157050000D03*
D41*
X129000000Y-157050000D03*
D42*
X127150000Y-159000000D03*
X130850000Y-159000000D03*
%TD*%
D15*
%TO.C,C_3V3_3*%
X127300000Y-66700000D03*
X127300000Y-67660000D03*
%TD*%
D20*
%TO.C,R_BOOT_PU1*%
X148500000Y-82230000D03*
X148500000Y-83250000D03*
%TD*%
M02*
