%TF.GenerationSoftware,KiCad,Pcbnew,10.0.5*%
%TF.CreationDate,2026-09-23T21:51:55-07:00*%
%TF.ProjectId,snips_controller,736e6970-735f-4636-9f6e-74726f6c6c65,rev?*%
%TF.SameCoordinates,Original*%
%TF.FileFunction,Legend,Top*%
%TF.FilePolarity,Positive*%
%FSLAX46Y46*%
G04 Gerber Fmt 4.6, Leading zero omitted, Abs format (unit mm)*
G04 Created by KiCad (PCBNEW 10.0.5) date 2026-09-23 21:51:55*
%MOMM*%
%LPD*%
G01*
G04 APERTURE LIST*
%ADD10C,0.100000*%
%ADD11C,0.150000*%
%ADD12C,0.120000*%
%ADD13C,0.200000*%
G04 APERTURE END LIST*
D10*
X149856265Y-61946895D02*
X149856265Y-61146895D01*
X149856265Y-61146895D02*
X150046741Y-61146895D01*
X150046741Y-61146895D02*
X150161027Y-61184990D01*
X150161027Y-61184990D02*
X150237217Y-61261180D01*
X150237217Y-61261180D02*
X150275312Y-61337371D01*
X150275312Y-61337371D02*
X150313408Y-61489752D01*
X150313408Y-61489752D02*
X150313408Y-61604038D01*
X150313408Y-61604038D02*
X150275312Y-61756419D01*
X150275312Y-61756419D02*
X150237217Y-61832609D01*
X150237217Y-61832609D02*
X150161027Y-61908800D01*
X150161027Y-61908800D02*
X150046741Y-61946895D01*
X150046741Y-61946895D02*
X149856265Y-61946895D01*
X151684836Y-61184990D02*
X151608646Y-61146895D01*
X151608646Y-61146895D02*
X151494360Y-61146895D01*
X151494360Y-61146895D02*
X151380074Y-61184990D01*
X151380074Y-61184990D02*
X151303884Y-61261180D01*
X151303884Y-61261180D02*
X151265789Y-61337371D01*
X151265789Y-61337371D02*
X151227693Y-61489752D01*
X151227693Y-61489752D02*
X151227693Y-61604038D01*
X151227693Y-61604038D02*
X151265789Y-61756419D01*
X151265789Y-61756419D02*
X151303884Y-61832609D01*
X151303884Y-61832609D02*
X151380074Y-61908800D01*
X151380074Y-61908800D02*
X151494360Y-61946895D01*
X151494360Y-61946895D02*
X151570551Y-61946895D01*
X151570551Y-61946895D02*
X151684836Y-61908800D01*
X151684836Y-61908800D02*
X151722932Y-61870704D01*
X151722932Y-61870704D02*
X151722932Y-61604038D01*
X151722932Y-61604038D02*
X151570551Y-61604038D01*
X152561027Y-61146895D02*
X152827694Y-61946895D01*
X152827694Y-61946895D02*
X153094360Y-61146895D01*
X125605132Y-74768169D02*
X125567036Y-74882455D01*
X125567036Y-74882455D02*
X125567036Y-75072931D01*
X125567036Y-75072931D02*
X125605132Y-75149122D01*
X125605132Y-75149122D02*
X125643227Y-75187217D01*
X125643227Y-75187217D02*
X125719417Y-75225312D01*
X125719417Y-75225312D02*
X125795608Y-75225312D01*
X125795608Y-75225312D02*
X125871798Y-75187217D01*
X125871798Y-75187217D02*
X125909893Y-75149122D01*
X125909893Y-75149122D02*
X125947989Y-75072931D01*
X125947989Y-75072931D02*
X125986084Y-74920550D01*
X125986084Y-74920550D02*
X126024179Y-74844360D01*
X126024179Y-74844360D02*
X126062274Y-74806265D01*
X126062274Y-74806265D02*
X126138465Y-74768169D01*
X126138465Y-74768169D02*
X126214655Y-74768169D01*
X126214655Y-74768169D02*
X126290846Y-74806265D01*
X126290846Y-74806265D02*
X126328941Y-74844360D01*
X126328941Y-74844360D02*
X126367036Y-74920550D01*
X126367036Y-74920550D02*
X126367036Y-75111027D01*
X126367036Y-75111027D02*
X126328941Y-75225312D01*
X125643227Y-76025313D02*
X125605132Y-75987217D01*
X125605132Y-75987217D02*
X125567036Y-75872932D01*
X125567036Y-75872932D02*
X125567036Y-75796741D01*
X125567036Y-75796741D02*
X125605132Y-75682455D01*
X125605132Y-75682455D02*
X125681322Y-75606265D01*
X125681322Y-75606265D02*
X125757512Y-75568170D01*
X125757512Y-75568170D02*
X125909893Y-75530074D01*
X125909893Y-75530074D02*
X126024179Y-75530074D01*
X126024179Y-75530074D02*
X126176560Y-75568170D01*
X126176560Y-75568170D02*
X126252751Y-75606265D01*
X126252751Y-75606265D02*
X126328941Y-75682455D01*
X126328941Y-75682455D02*
X126367036Y-75796741D01*
X126367036Y-75796741D02*
X126367036Y-75872932D01*
X126367036Y-75872932D02*
X126328941Y-75987217D01*
X126328941Y-75987217D02*
X126290846Y-76025313D01*
X125567036Y-76749122D02*
X125567036Y-76368170D01*
X125567036Y-76368170D02*
X126367036Y-76368170D01*
X124317177Y-74768169D02*
X124279081Y-74882455D01*
X124279081Y-74882455D02*
X124279081Y-75072931D01*
X124279081Y-75072931D02*
X124317177Y-75149122D01*
X124317177Y-75149122D02*
X124355272Y-75187217D01*
X124355272Y-75187217D02*
X124431462Y-75225312D01*
X124431462Y-75225312D02*
X124507653Y-75225312D01*
X124507653Y-75225312D02*
X124583843Y-75187217D01*
X124583843Y-75187217D02*
X124621938Y-75149122D01*
X124621938Y-75149122D02*
X124660034Y-75072931D01*
X124660034Y-75072931D02*
X124698129Y-74920550D01*
X124698129Y-74920550D02*
X124736224Y-74844360D01*
X124736224Y-74844360D02*
X124774319Y-74806265D01*
X124774319Y-74806265D02*
X124850510Y-74768169D01*
X124850510Y-74768169D02*
X124926700Y-74768169D01*
X124926700Y-74768169D02*
X125002891Y-74806265D01*
X125002891Y-74806265D02*
X125040986Y-74844360D01*
X125040986Y-74844360D02*
X125079081Y-74920550D01*
X125079081Y-74920550D02*
X125079081Y-75111027D01*
X125079081Y-75111027D02*
X125040986Y-75225312D01*
X124279081Y-75568170D02*
X125079081Y-75568170D01*
X125079081Y-75568170D02*
X125079081Y-75758646D01*
X125079081Y-75758646D02*
X125040986Y-75872932D01*
X125040986Y-75872932D02*
X124964796Y-75949122D01*
X124964796Y-75949122D02*
X124888605Y-75987217D01*
X124888605Y-75987217D02*
X124736224Y-76025313D01*
X124736224Y-76025313D02*
X124621938Y-76025313D01*
X124621938Y-76025313D02*
X124469557Y-75987217D01*
X124469557Y-75987217D02*
X124393367Y-75949122D01*
X124393367Y-75949122D02*
X124317177Y-75872932D01*
X124317177Y-75872932D02*
X124279081Y-75758646D01*
X124279081Y-75758646D02*
X124279081Y-75568170D01*
X124507653Y-76330074D02*
X124507653Y-76711027D01*
X124279081Y-76253884D02*
X125079081Y-76520551D01*
X125079081Y-76520551D02*
X124279081Y-76787217D01*
X123791126Y-74730074D02*
X123791126Y-75225312D01*
X123791126Y-75225312D02*
X123486364Y-74958646D01*
X123486364Y-74958646D02*
X123486364Y-75072931D01*
X123486364Y-75072931D02*
X123448269Y-75149122D01*
X123448269Y-75149122D02*
X123410174Y-75187217D01*
X123410174Y-75187217D02*
X123333983Y-75225312D01*
X123333983Y-75225312D02*
X123143507Y-75225312D01*
X123143507Y-75225312D02*
X123067317Y-75187217D01*
X123067317Y-75187217D02*
X123029222Y-75149122D01*
X123029222Y-75149122D02*
X122991126Y-75072931D01*
X122991126Y-75072931D02*
X122991126Y-74844360D01*
X122991126Y-74844360D02*
X123029222Y-74768169D01*
X123029222Y-74768169D02*
X123067317Y-74730074D01*
X123791126Y-75453884D02*
X122991126Y-75720551D01*
X122991126Y-75720551D02*
X123791126Y-75987217D01*
X123791126Y-76177693D02*
X123791126Y-76672931D01*
X123791126Y-76672931D02*
X123486364Y-76406265D01*
X123486364Y-76406265D02*
X123486364Y-76520550D01*
X123486364Y-76520550D02*
X123448269Y-76596741D01*
X123448269Y-76596741D02*
X123410174Y-76634836D01*
X123410174Y-76634836D02*
X123333983Y-76672931D01*
X123333983Y-76672931D02*
X123143507Y-76672931D01*
X123143507Y-76672931D02*
X123067317Y-76634836D01*
X123067317Y-76634836D02*
X123029222Y-76596741D01*
X123029222Y-76596741D02*
X122991126Y-76520550D01*
X122991126Y-76520550D02*
X122991126Y-76291979D01*
X122991126Y-76291979D02*
X123029222Y-76215788D01*
X123029222Y-76215788D02*
X123067317Y-76177693D01*
X122465076Y-75225312D02*
X122503171Y-75149122D01*
X122503171Y-75149122D02*
X122503171Y-75034836D01*
X122503171Y-75034836D02*
X122465076Y-74920550D01*
X122465076Y-74920550D02*
X122388886Y-74844360D01*
X122388886Y-74844360D02*
X122312695Y-74806265D01*
X122312695Y-74806265D02*
X122160314Y-74768169D01*
X122160314Y-74768169D02*
X122046028Y-74768169D01*
X122046028Y-74768169D02*
X121893647Y-74806265D01*
X121893647Y-74806265D02*
X121817457Y-74844360D01*
X121817457Y-74844360D02*
X121741267Y-74920550D01*
X121741267Y-74920550D02*
X121703171Y-75034836D01*
X121703171Y-75034836D02*
X121703171Y-75111027D01*
X121703171Y-75111027D02*
X121741267Y-75225312D01*
X121741267Y-75225312D02*
X121779362Y-75263408D01*
X121779362Y-75263408D02*
X122046028Y-75263408D01*
X122046028Y-75263408D02*
X122046028Y-75111027D01*
X121703171Y-75606265D02*
X122503171Y-75606265D01*
X122503171Y-75606265D02*
X121703171Y-76063408D01*
X121703171Y-76063408D02*
X122503171Y-76063408D01*
X121703171Y-76444360D02*
X122503171Y-76444360D01*
X122503171Y-76444360D02*
X122503171Y-76634836D01*
X122503171Y-76634836D02*
X122465076Y-76749122D01*
X122465076Y-76749122D02*
X122388886Y-76825312D01*
X122388886Y-76825312D02*
X122312695Y-76863407D01*
X122312695Y-76863407D02*
X122160314Y-76901503D01*
X122160314Y-76901503D02*
X122046028Y-76901503D01*
X122046028Y-76901503D02*
X121893647Y-76863407D01*
X121893647Y-76863407D02*
X121817457Y-76825312D01*
X121817457Y-76825312D02*
X121741267Y-76749122D01*
X121741267Y-76749122D02*
X121703171Y-76634836D01*
X121703171Y-76634836D02*
X121703171Y-76444360D01*
D11*
X134785713Y-108367009D02*
X134928570Y-108414628D01*
X134928570Y-108414628D02*
X134976189Y-108462247D01*
X134976189Y-108462247D02*
X135023808Y-108557485D01*
X135023808Y-108557485D02*
X135023808Y-108700342D01*
X135023808Y-108700342D02*
X134976189Y-108795580D01*
X134976189Y-108795580D02*
X134928570Y-108843200D01*
X134928570Y-108843200D02*
X134833332Y-108890819D01*
X134833332Y-108890819D02*
X134452380Y-108890819D01*
X134452380Y-108890819D02*
X134452380Y-107890819D01*
X134452380Y-107890819D02*
X134785713Y-107890819D01*
X134785713Y-107890819D02*
X134880951Y-107938438D01*
X134880951Y-107938438D02*
X134928570Y-107986057D01*
X134928570Y-107986057D02*
X134976189Y-108081295D01*
X134976189Y-108081295D02*
X134976189Y-108176533D01*
X134976189Y-108176533D02*
X134928570Y-108271771D01*
X134928570Y-108271771D02*
X134880951Y-108319390D01*
X134880951Y-108319390D02*
X134785713Y-108367009D01*
X134785713Y-108367009D02*
X134452380Y-108367009D01*
X135880951Y-108224152D02*
X135880951Y-108890819D01*
X135452380Y-108224152D02*
X135452380Y-108747961D01*
X135452380Y-108747961D02*
X135499999Y-108843200D01*
X135499999Y-108843200D02*
X135595237Y-108890819D01*
X135595237Y-108890819D02*
X135738094Y-108890819D01*
X135738094Y-108890819D02*
X135833332Y-108843200D01*
X135833332Y-108843200D02*
X135880951Y-108795580D01*
X136214285Y-108224152D02*
X136595237Y-108224152D01*
X136357142Y-107890819D02*
X136357142Y-108747961D01*
X136357142Y-108747961D02*
X136404761Y-108843200D01*
X136404761Y-108843200D02*
X136499999Y-108890819D01*
X136499999Y-108890819D02*
X136595237Y-108890819D01*
X136785714Y-108224152D02*
X137166666Y-108224152D01*
X136928571Y-107890819D02*
X136928571Y-108747961D01*
X136928571Y-108747961D02*
X136976190Y-108843200D01*
X136976190Y-108843200D02*
X137071428Y-108890819D01*
X137071428Y-108890819D02*
X137166666Y-108890819D01*
X137642857Y-108890819D02*
X137547619Y-108843200D01*
X137547619Y-108843200D02*
X137500000Y-108795580D01*
X137500000Y-108795580D02*
X137452381Y-108700342D01*
X137452381Y-108700342D02*
X137452381Y-108414628D01*
X137452381Y-108414628D02*
X137500000Y-108319390D01*
X137500000Y-108319390D02*
X137547619Y-108271771D01*
X137547619Y-108271771D02*
X137642857Y-108224152D01*
X137642857Y-108224152D02*
X137785714Y-108224152D01*
X137785714Y-108224152D02*
X137880952Y-108271771D01*
X137880952Y-108271771D02*
X137928571Y-108319390D01*
X137928571Y-108319390D02*
X137976190Y-108414628D01*
X137976190Y-108414628D02*
X137976190Y-108700342D01*
X137976190Y-108700342D02*
X137928571Y-108795580D01*
X137928571Y-108795580D02*
X137880952Y-108843200D01*
X137880952Y-108843200D02*
X137785714Y-108890819D01*
X137785714Y-108890819D02*
X137642857Y-108890819D01*
X138404762Y-108224152D02*
X138404762Y-108890819D01*
X138404762Y-108319390D02*
X138452381Y-108271771D01*
X138452381Y-108271771D02*
X138547619Y-108224152D01*
X138547619Y-108224152D02*
X138690476Y-108224152D01*
X138690476Y-108224152D02*
X138785714Y-108271771D01*
X138785714Y-108271771D02*
X138833333Y-108367009D01*
X138833333Y-108367009D02*
X138833333Y-108890819D01*
X140023810Y-107986057D02*
X140071429Y-107938438D01*
X140071429Y-107938438D02*
X140166667Y-107890819D01*
X140166667Y-107890819D02*
X140404762Y-107890819D01*
X140404762Y-107890819D02*
X140500000Y-107938438D01*
X140500000Y-107938438D02*
X140547619Y-107986057D01*
X140547619Y-107986057D02*
X140595238Y-108081295D01*
X140595238Y-108081295D02*
X140595238Y-108176533D01*
X140595238Y-108176533D02*
X140547619Y-108319390D01*
X140547619Y-108319390D02*
X139976191Y-108890819D01*
X139976191Y-108890819D02*
X140595238Y-108890819D01*
X134785713Y-117131009D02*
X134928570Y-117178628D01*
X134928570Y-117178628D02*
X134976189Y-117226247D01*
X134976189Y-117226247D02*
X135023808Y-117321485D01*
X135023808Y-117321485D02*
X135023808Y-117464342D01*
X135023808Y-117464342D02*
X134976189Y-117559580D01*
X134976189Y-117559580D02*
X134928570Y-117607200D01*
X134928570Y-117607200D02*
X134833332Y-117654819D01*
X134833332Y-117654819D02*
X134452380Y-117654819D01*
X134452380Y-117654819D02*
X134452380Y-116654819D01*
X134452380Y-116654819D02*
X134785713Y-116654819D01*
X134785713Y-116654819D02*
X134880951Y-116702438D01*
X134880951Y-116702438D02*
X134928570Y-116750057D01*
X134928570Y-116750057D02*
X134976189Y-116845295D01*
X134976189Y-116845295D02*
X134976189Y-116940533D01*
X134976189Y-116940533D02*
X134928570Y-117035771D01*
X134928570Y-117035771D02*
X134880951Y-117083390D01*
X134880951Y-117083390D02*
X134785713Y-117131009D01*
X134785713Y-117131009D02*
X134452380Y-117131009D01*
X135880951Y-116988152D02*
X135880951Y-117654819D01*
X135452380Y-116988152D02*
X135452380Y-117511961D01*
X135452380Y-117511961D02*
X135499999Y-117607200D01*
X135499999Y-117607200D02*
X135595237Y-117654819D01*
X135595237Y-117654819D02*
X135738094Y-117654819D01*
X135738094Y-117654819D02*
X135833332Y-117607200D01*
X135833332Y-117607200D02*
X135880951Y-117559580D01*
X136214285Y-116988152D02*
X136595237Y-116988152D01*
X136357142Y-116654819D02*
X136357142Y-117511961D01*
X136357142Y-117511961D02*
X136404761Y-117607200D01*
X136404761Y-117607200D02*
X136499999Y-117654819D01*
X136499999Y-117654819D02*
X136595237Y-117654819D01*
X136785714Y-116988152D02*
X137166666Y-116988152D01*
X136928571Y-116654819D02*
X136928571Y-117511961D01*
X136928571Y-117511961D02*
X136976190Y-117607200D01*
X136976190Y-117607200D02*
X137071428Y-117654819D01*
X137071428Y-117654819D02*
X137166666Y-117654819D01*
X137642857Y-117654819D02*
X137547619Y-117607200D01*
X137547619Y-117607200D02*
X137500000Y-117559580D01*
X137500000Y-117559580D02*
X137452381Y-117464342D01*
X137452381Y-117464342D02*
X137452381Y-117178628D01*
X137452381Y-117178628D02*
X137500000Y-117083390D01*
X137500000Y-117083390D02*
X137547619Y-117035771D01*
X137547619Y-117035771D02*
X137642857Y-116988152D01*
X137642857Y-116988152D02*
X137785714Y-116988152D01*
X137785714Y-116988152D02*
X137880952Y-117035771D01*
X137880952Y-117035771D02*
X137928571Y-117083390D01*
X137928571Y-117083390D02*
X137976190Y-117178628D01*
X137976190Y-117178628D02*
X137976190Y-117464342D01*
X137976190Y-117464342D02*
X137928571Y-117559580D01*
X137928571Y-117559580D02*
X137880952Y-117607200D01*
X137880952Y-117607200D02*
X137785714Y-117654819D01*
X137785714Y-117654819D02*
X137642857Y-117654819D01*
X138404762Y-116988152D02*
X138404762Y-117654819D01*
X138404762Y-117083390D02*
X138452381Y-117035771D01*
X138452381Y-117035771D02*
X138547619Y-116988152D01*
X138547619Y-116988152D02*
X138690476Y-116988152D01*
X138690476Y-116988152D02*
X138785714Y-117035771D01*
X138785714Y-117035771D02*
X138833333Y-117131009D01*
X138833333Y-117131009D02*
X138833333Y-117654819D01*
X140547619Y-116654819D02*
X140071429Y-116654819D01*
X140071429Y-116654819D02*
X140023810Y-117131009D01*
X140023810Y-117131009D02*
X140071429Y-117083390D01*
X140071429Y-117083390D02*
X140166667Y-117035771D01*
X140166667Y-117035771D02*
X140404762Y-117035771D01*
X140404762Y-117035771D02*
X140500000Y-117083390D01*
X140500000Y-117083390D02*
X140547619Y-117131009D01*
X140547619Y-117131009D02*
X140595238Y-117226247D01*
X140595238Y-117226247D02*
X140595238Y-117464342D01*
X140595238Y-117464342D02*
X140547619Y-117559580D01*
X140547619Y-117559580D02*
X140500000Y-117607200D01*
X140500000Y-117607200D02*
X140404762Y-117654819D01*
X140404762Y-117654819D02*
X140166667Y-117654819D01*
X140166667Y-117654819D02*
X140071429Y-117607200D01*
X140071429Y-117607200D02*
X140023810Y-117559580D01*
X145035713Y-117117009D02*
X145178570Y-117164628D01*
X145178570Y-117164628D02*
X145226189Y-117212247D01*
X145226189Y-117212247D02*
X145273808Y-117307485D01*
X145273808Y-117307485D02*
X145273808Y-117450342D01*
X145273808Y-117450342D02*
X145226189Y-117545580D01*
X145226189Y-117545580D02*
X145178570Y-117593200D01*
X145178570Y-117593200D02*
X145083332Y-117640819D01*
X145083332Y-117640819D02*
X144702380Y-117640819D01*
X144702380Y-117640819D02*
X144702380Y-116640819D01*
X144702380Y-116640819D02*
X145035713Y-116640819D01*
X145035713Y-116640819D02*
X145130951Y-116688438D01*
X145130951Y-116688438D02*
X145178570Y-116736057D01*
X145178570Y-116736057D02*
X145226189Y-116831295D01*
X145226189Y-116831295D02*
X145226189Y-116926533D01*
X145226189Y-116926533D02*
X145178570Y-117021771D01*
X145178570Y-117021771D02*
X145130951Y-117069390D01*
X145130951Y-117069390D02*
X145035713Y-117117009D01*
X145035713Y-117117009D02*
X144702380Y-117117009D01*
X146130951Y-116974152D02*
X146130951Y-117640819D01*
X145702380Y-116974152D02*
X145702380Y-117497961D01*
X145702380Y-117497961D02*
X145749999Y-117593200D01*
X145749999Y-117593200D02*
X145845237Y-117640819D01*
X145845237Y-117640819D02*
X145988094Y-117640819D01*
X145988094Y-117640819D02*
X146083332Y-117593200D01*
X146083332Y-117593200D02*
X146130951Y-117545580D01*
X146464285Y-116974152D02*
X146845237Y-116974152D01*
X146607142Y-116640819D02*
X146607142Y-117497961D01*
X146607142Y-117497961D02*
X146654761Y-117593200D01*
X146654761Y-117593200D02*
X146749999Y-117640819D01*
X146749999Y-117640819D02*
X146845237Y-117640819D01*
X147035714Y-116974152D02*
X147416666Y-116974152D01*
X147178571Y-116640819D02*
X147178571Y-117497961D01*
X147178571Y-117497961D02*
X147226190Y-117593200D01*
X147226190Y-117593200D02*
X147321428Y-117640819D01*
X147321428Y-117640819D02*
X147416666Y-117640819D01*
X147892857Y-117640819D02*
X147797619Y-117593200D01*
X147797619Y-117593200D02*
X147750000Y-117545580D01*
X147750000Y-117545580D02*
X147702381Y-117450342D01*
X147702381Y-117450342D02*
X147702381Y-117164628D01*
X147702381Y-117164628D02*
X147750000Y-117069390D01*
X147750000Y-117069390D02*
X147797619Y-117021771D01*
X147797619Y-117021771D02*
X147892857Y-116974152D01*
X147892857Y-116974152D02*
X148035714Y-116974152D01*
X148035714Y-116974152D02*
X148130952Y-117021771D01*
X148130952Y-117021771D02*
X148178571Y-117069390D01*
X148178571Y-117069390D02*
X148226190Y-117164628D01*
X148226190Y-117164628D02*
X148226190Y-117450342D01*
X148226190Y-117450342D02*
X148178571Y-117545580D01*
X148178571Y-117545580D02*
X148130952Y-117593200D01*
X148130952Y-117593200D02*
X148035714Y-117640819D01*
X148035714Y-117640819D02*
X147892857Y-117640819D01*
X148654762Y-116974152D02*
X148654762Y-117640819D01*
X148654762Y-117069390D02*
X148702381Y-117021771D01*
X148702381Y-117021771D02*
X148797619Y-116974152D01*
X148797619Y-116974152D02*
X148940476Y-116974152D01*
X148940476Y-116974152D02*
X149035714Y-117021771D01*
X149035714Y-117021771D02*
X149083333Y-117117009D01*
X149083333Y-117117009D02*
X149083333Y-117640819D01*
X150750000Y-116640819D02*
X150559524Y-116640819D01*
X150559524Y-116640819D02*
X150464286Y-116688438D01*
X150464286Y-116688438D02*
X150416667Y-116736057D01*
X150416667Y-116736057D02*
X150321429Y-116878914D01*
X150321429Y-116878914D02*
X150273810Y-117069390D01*
X150273810Y-117069390D02*
X150273810Y-117450342D01*
X150273810Y-117450342D02*
X150321429Y-117545580D01*
X150321429Y-117545580D02*
X150369048Y-117593200D01*
X150369048Y-117593200D02*
X150464286Y-117640819D01*
X150464286Y-117640819D02*
X150654762Y-117640819D01*
X150654762Y-117640819D02*
X150750000Y-117593200D01*
X150750000Y-117593200D02*
X150797619Y-117545580D01*
X150797619Y-117545580D02*
X150845238Y-117450342D01*
X150845238Y-117450342D02*
X150845238Y-117212247D01*
X150845238Y-117212247D02*
X150797619Y-117117009D01*
X150797619Y-117117009D02*
X150750000Y-117069390D01*
X150750000Y-117069390D02*
X150654762Y-117021771D01*
X150654762Y-117021771D02*
X150464286Y-117021771D01*
X150464286Y-117021771D02*
X150369048Y-117069390D01*
X150369048Y-117069390D02*
X150321429Y-117117009D01*
X150321429Y-117117009D02*
X150273810Y-117212247D01*
X145035713Y-108367009D02*
X145178570Y-108414628D01*
X145178570Y-108414628D02*
X145226189Y-108462247D01*
X145226189Y-108462247D02*
X145273808Y-108557485D01*
X145273808Y-108557485D02*
X145273808Y-108700342D01*
X145273808Y-108700342D02*
X145226189Y-108795580D01*
X145226189Y-108795580D02*
X145178570Y-108843200D01*
X145178570Y-108843200D02*
X145083332Y-108890819D01*
X145083332Y-108890819D02*
X144702380Y-108890819D01*
X144702380Y-108890819D02*
X144702380Y-107890819D01*
X144702380Y-107890819D02*
X145035713Y-107890819D01*
X145035713Y-107890819D02*
X145130951Y-107938438D01*
X145130951Y-107938438D02*
X145178570Y-107986057D01*
X145178570Y-107986057D02*
X145226189Y-108081295D01*
X145226189Y-108081295D02*
X145226189Y-108176533D01*
X145226189Y-108176533D02*
X145178570Y-108271771D01*
X145178570Y-108271771D02*
X145130951Y-108319390D01*
X145130951Y-108319390D02*
X145035713Y-108367009D01*
X145035713Y-108367009D02*
X144702380Y-108367009D01*
X146130951Y-108224152D02*
X146130951Y-108890819D01*
X145702380Y-108224152D02*
X145702380Y-108747961D01*
X145702380Y-108747961D02*
X145749999Y-108843200D01*
X145749999Y-108843200D02*
X145845237Y-108890819D01*
X145845237Y-108890819D02*
X145988094Y-108890819D01*
X145988094Y-108890819D02*
X146083332Y-108843200D01*
X146083332Y-108843200D02*
X146130951Y-108795580D01*
X146464285Y-108224152D02*
X146845237Y-108224152D01*
X146607142Y-107890819D02*
X146607142Y-108747961D01*
X146607142Y-108747961D02*
X146654761Y-108843200D01*
X146654761Y-108843200D02*
X146749999Y-108890819D01*
X146749999Y-108890819D02*
X146845237Y-108890819D01*
X147035714Y-108224152D02*
X147416666Y-108224152D01*
X147178571Y-107890819D02*
X147178571Y-108747961D01*
X147178571Y-108747961D02*
X147226190Y-108843200D01*
X147226190Y-108843200D02*
X147321428Y-108890819D01*
X147321428Y-108890819D02*
X147416666Y-108890819D01*
X147892857Y-108890819D02*
X147797619Y-108843200D01*
X147797619Y-108843200D02*
X147750000Y-108795580D01*
X147750000Y-108795580D02*
X147702381Y-108700342D01*
X147702381Y-108700342D02*
X147702381Y-108414628D01*
X147702381Y-108414628D02*
X147750000Y-108319390D01*
X147750000Y-108319390D02*
X147797619Y-108271771D01*
X147797619Y-108271771D02*
X147892857Y-108224152D01*
X147892857Y-108224152D02*
X148035714Y-108224152D01*
X148035714Y-108224152D02*
X148130952Y-108271771D01*
X148130952Y-108271771D02*
X148178571Y-108319390D01*
X148178571Y-108319390D02*
X148226190Y-108414628D01*
X148226190Y-108414628D02*
X148226190Y-108700342D01*
X148226190Y-108700342D02*
X148178571Y-108795580D01*
X148178571Y-108795580D02*
X148130952Y-108843200D01*
X148130952Y-108843200D02*
X148035714Y-108890819D01*
X148035714Y-108890819D02*
X147892857Y-108890819D01*
X148654762Y-108224152D02*
X148654762Y-108890819D01*
X148654762Y-108319390D02*
X148702381Y-108271771D01*
X148702381Y-108271771D02*
X148797619Y-108224152D01*
X148797619Y-108224152D02*
X148940476Y-108224152D01*
X148940476Y-108224152D02*
X149035714Y-108271771D01*
X149035714Y-108271771D02*
X149083333Y-108367009D01*
X149083333Y-108367009D02*
X149083333Y-108890819D01*
X150226191Y-107890819D02*
X150845238Y-107890819D01*
X150845238Y-107890819D02*
X150511905Y-108271771D01*
X150511905Y-108271771D02*
X150654762Y-108271771D01*
X150654762Y-108271771D02*
X150750000Y-108319390D01*
X150750000Y-108319390D02*
X150797619Y-108367009D01*
X150797619Y-108367009D02*
X150845238Y-108462247D01*
X150845238Y-108462247D02*
X150845238Y-108700342D01*
X150845238Y-108700342D02*
X150797619Y-108795580D01*
X150797619Y-108795580D02*
X150750000Y-108843200D01*
X150750000Y-108843200D02*
X150654762Y-108890819D01*
X150654762Y-108890819D02*
X150369048Y-108890819D01*
X150369048Y-108890819D02*
X150273810Y-108843200D01*
X150273810Y-108843200D02*
X150226191Y-108795580D01*
X133238094Y-61619104D02*
X133714284Y-61619104D01*
X133142856Y-61904819D02*
X133476189Y-60904819D01*
X133476189Y-60904819D02*
X133809522Y-61904819D01*
X134142856Y-61238152D02*
X134142856Y-61904819D01*
X134142856Y-61333390D02*
X134190475Y-61285771D01*
X134190475Y-61285771D02*
X134285713Y-61238152D01*
X134285713Y-61238152D02*
X134428570Y-61238152D01*
X134428570Y-61238152D02*
X134523808Y-61285771D01*
X134523808Y-61285771D02*
X134571427Y-61381009D01*
X134571427Y-61381009D02*
X134571427Y-61904819D01*
X134904761Y-61238152D02*
X135285713Y-61238152D01*
X135047618Y-60904819D02*
X135047618Y-61761961D01*
X135047618Y-61761961D02*
X135095237Y-61857200D01*
X135095237Y-61857200D02*
X135190475Y-61904819D01*
X135190475Y-61904819D02*
X135285713Y-61904819D01*
X135999999Y-61857200D02*
X135904761Y-61904819D01*
X135904761Y-61904819D02*
X135714285Y-61904819D01*
X135714285Y-61904819D02*
X135619047Y-61857200D01*
X135619047Y-61857200D02*
X135571428Y-61761961D01*
X135571428Y-61761961D02*
X135571428Y-61381009D01*
X135571428Y-61381009D02*
X135619047Y-61285771D01*
X135619047Y-61285771D02*
X135714285Y-61238152D01*
X135714285Y-61238152D02*
X135904761Y-61238152D01*
X135904761Y-61238152D02*
X135999999Y-61285771D01*
X135999999Y-61285771D02*
X136047618Y-61381009D01*
X136047618Y-61381009D02*
X136047618Y-61476247D01*
X136047618Y-61476247D02*
X135571428Y-61571485D01*
X136476190Y-61238152D02*
X136476190Y-61904819D01*
X136476190Y-61333390D02*
X136523809Y-61285771D01*
X136523809Y-61285771D02*
X136619047Y-61238152D01*
X136619047Y-61238152D02*
X136761904Y-61238152D01*
X136761904Y-61238152D02*
X136857142Y-61285771D01*
X136857142Y-61285771D02*
X136904761Y-61381009D01*
X136904761Y-61381009D02*
X136904761Y-61904819D01*
X137380952Y-61238152D02*
X137380952Y-61904819D01*
X137380952Y-61333390D02*
X137428571Y-61285771D01*
X137428571Y-61285771D02*
X137523809Y-61238152D01*
X137523809Y-61238152D02*
X137666666Y-61238152D01*
X137666666Y-61238152D02*
X137761904Y-61285771D01*
X137761904Y-61285771D02*
X137809523Y-61381009D01*
X137809523Y-61381009D02*
X137809523Y-61904819D01*
X138714285Y-61904819D02*
X138714285Y-61381009D01*
X138714285Y-61381009D02*
X138666666Y-61285771D01*
X138666666Y-61285771D02*
X138571428Y-61238152D01*
X138571428Y-61238152D02*
X138380952Y-61238152D01*
X138380952Y-61238152D02*
X138285714Y-61285771D01*
X138714285Y-61857200D02*
X138619047Y-61904819D01*
X138619047Y-61904819D02*
X138380952Y-61904819D01*
X138380952Y-61904819D02*
X138285714Y-61857200D01*
X138285714Y-61857200D02*
X138238095Y-61761961D01*
X138238095Y-61761961D02*
X138238095Y-61666723D01*
X138238095Y-61666723D02*
X138285714Y-61571485D01*
X138285714Y-61571485D02*
X138380952Y-61523866D01*
X138380952Y-61523866D02*
X138619047Y-61523866D01*
X138619047Y-61523866D02*
X138714285Y-61476247D01*
X139904762Y-61619104D02*
X140380952Y-61619104D01*
X139809524Y-61904819D02*
X140142857Y-60904819D01*
X140142857Y-60904819D02*
X140476190Y-61904819D01*
X140809524Y-61904819D02*
X140809524Y-61238152D01*
X140809524Y-61428628D02*
X140857143Y-61333390D01*
X140857143Y-61333390D02*
X140904762Y-61285771D01*
X140904762Y-61285771D02*
X141000000Y-61238152D01*
X141000000Y-61238152D02*
X141095238Y-61238152D01*
X141809524Y-61857200D02*
X141714286Y-61904819D01*
X141714286Y-61904819D02*
X141523810Y-61904819D01*
X141523810Y-61904819D02*
X141428572Y-61857200D01*
X141428572Y-61857200D02*
X141380953Y-61761961D01*
X141380953Y-61761961D02*
X141380953Y-61381009D01*
X141380953Y-61381009D02*
X141428572Y-61285771D01*
X141428572Y-61285771D02*
X141523810Y-61238152D01*
X141523810Y-61238152D02*
X141714286Y-61238152D01*
X141714286Y-61238152D02*
X141809524Y-61285771D01*
X141809524Y-61285771D02*
X141857143Y-61381009D01*
X141857143Y-61381009D02*
X141857143Y-61476247D01*
X141857143Y-61476247D02*
X141380953Y-61571485D01*
X142714286Y-61904819D02*
X142714286Y-61381009D01*
X142714286Y-61381009D02*
X142666667Y-61285771D01*
X142666667Y-61285771D02*
X142571429Y-61238152D01*
X142571429Y-61238152D02*
X142380953Y-61238152D01*
X142380953Y-61238152D02*
X142285715Y-61285771D01*
X142714286Y-61857200D02*
X142619048Y-61904819D01*
X142619048Y-61904819D02*
X142380953Y-61904819D01*
X142380953Y-61904819D02*
X142285715Y-61857200D01*
X142285715Y-61857200D02*
X142238096Y-61761961D01*
X142238096Y-61761961D02*
X142238096Y-61666723D01*
X142238096Y-61666723D02*
X142285715Y-61571485D01*
X142285715Y-61571485D02*
X142380953Y-61523866D01*
X142380953Y-61523866D02*
X142619048Y-61523866D01*
X142619048Y-61523866D02*
X142714286Y-61476247D01*
X124485713Y-117131009D02*
X124628570Y-117178628D01*
X124628570Y-117178628D02*
X124676189Y-117226247D01*
X124676189Y-117226247D02*
X124723808Y-117321485D01*
X124723808Y-117321485D02*
X124723808Y-117464342D01*
X124723808Y-117464342D02*
X124676189Y-117559580D01*
X124676189Y-117559580D02*
X124628570Y-117607200D01*
X124628570Y-117607200D02*
X124533332Y-117654819D01*
X124533332Y-117654819D02*
X124152380Y-117654819D01*
X124152380Y-117654819D02*
X124152380Y-116654819D01*
X124152380Y-116654819D02*
X124485713Y-116654819D01*
X124485713Y-116654819D02*
X124580951Y-116702438D01*
X124580951Y-116702438D02*
X124628570Y-116750057D01*
X124628570Y-116750057D02*
X124676189Y-116845295D01*
X124676189Y-116845295D02*
X124676189Y-116940533D01*
X124676189Y-116940533D02*
X124628570Y-117035771D01*
X124628570Y-117035771D02*
X124580951Y-117083390D01*
X124580951Y-117083390D02*
X124485713Y-117131009D01*
X124485713Y-117131009D02*
X124152380Y-117131009D01*
X125580951Y-116988152D02*
X125580951Y-117654819D01*
X125152380Y-116988152D02*
X125152380Y-117511961D01*
X125152380Y-117511961D02*
X125199999Y-117607200D01*
X125199999Y-117607200D02*
X125295237Y-117654819D01*
X125295237Y-117654819D02*
X125438094Y-117654819D01*
X125438094Y-117654819D02*
X125533332Y-117607200D01*
X125533332Y-117607200D02*
X125580951Y-117559580D01*
X125914285Y-116988152D02*
X126295237Y-116988152D01*
X126057142Y-116654819D02*
X126057142Y-117511961D01*
X126057142Y-117511961D02*
X126104761Y-117607200D01*
X126104761Y-117607200D02*
X126199999Y-117654819D01*
X126199999Y-117654819D02*
X126295237Y-117654819D01*
X126485714Y-116988152D02*
X126866666Y-116988152D01*
X126628571Y-116654819D02*
X126628571Y-117511961D01*
X126628571Y-117511961D02*
X126676190Y-117607200D01*
X126676190Y-117607200D02*
X126771428Y-117654819D01*
X126771428Y-117654819D02*
X126866666Y-117654819D01*
X127342857Y-117654819D02*
X127247619Y-117607200D01*
X127247619Y-117607200D02*
X127200000Y-117559580D01*
X127200000Y-117559580D02*
X127152381Y-117464342D01*
X127152381Y-117464342D02*
X127152381Y-117178628D01*
X127152381Y-117178628D02*
X127200000Y-117083390D01*
X127200000Y-117083390D02*
X127247619Y-117035771D01*
X127247619Y-117035771D02*
X127342857Y-116988152D01*
X127342857Y-116988152D02*
X127485714Y-116988152D01*
X127485714Y-116988152D02*
X127580952Y-117035771D01*
X127580952Y-117035771D02*
X127628571Y-117083390D01*
X127628571Y-117083390D02*
X127676190Y-117178628D01*
X127676190Y-117178628D02*
X127676190Y-117464342D01*
X127676190Y-117464342D02*
X127628571Y-117559580D01*
X127628571Y-117559580D02*
X127580952Y-117607200D01*
X127580952Y-117607200D02*
X127485714Y-117654819D01*
X127485714Y-117654819D02*
X127342857Y-117654819D01*
X128104762Y-116988152D02*
X128104762Y-117654819D01*
X128104762Y-117083390D02*
X128152381Y-117035771D01*
X128152381Y-117035771D02*
X128247619Y-116988152D01*
X128247619Y-116988152D02*
X128390476Y-116988152D01*
X128390476Y-116988152D02*
X128485714Y-117035771D01*
X128485714Y-117035771D02*
X128533333Y-117131009D01*
X128533333Y-117131009D02*
X128533333Y-117654819D01*
X130200000Y-116988152D02*
X130200000Y-117654819D01*
X129961905Y-116607200D02*
X129723810Y-117321485D01*
X129723810Y-117321485D02*
X130342857Y-117321485D01*
X124535713Y-108367009D02*
X124678570Y-108414628D01*
X124678570Y-108414628D02*
X124726189Y-108462247D01*
X124726189Y-108462247D02*
X124773808Y-108557485D01*
X124773808Y-108557485D02*
X124773808Y-108700342D01*
X124773808Y-108700342D02*
X124726189Y-108795580D01*
X124726189Y-108795580D02*
X124678570Y-108843200D01*
X124678570Y-108843200D02*
X124583332Y-108890819D01*
X124583332Y-108890819D02*
X124202380Y-108890819D01*
X124202380Y-108890819D02*
X124202380Y-107890819D01*
X124202380Y-107890819D02*
X124535713Y-107890819D01*
X124535713Y-107890819D02*
X124630951Y-107938438D01*
X124630951Y-107938438D02*
X124678570Y-107986057D01*
X124678570Y-107986057D02*
X124726189Y-108081295D01*
X124726189Y-108081295D02*
X124726189Y-108176533D01*
X124726189Y-108176533D02*
X124678570Y-108271771D01*
X124678570Y-108271771D02*
X124630951Y-108319390D01*
X124630951Y-108319390D02*
X124535713Y-108367009D01*
X124535713Y-108367009D02*
X124202380Y-108367009D01*
X125630951Y-108224152D02*
X125630951Y-108890819D01*
X125202380Y-108224152D02*
X125202380Y-108747961D01*
X125202380Y-108747961D02*
X125249999Y-108843200D01*
X125249999Y-108843200D02*
X125345237Y-108890819D01*
X125345237Y-108890819D02*
X125488094Y-108890819D01*
X125488094Y-108890819D02*
X125583332Y-108843200D01*
X125583332Y-108843200D02*
X125630951Y-108795580D01*
X125964285Y-108224152D02*
X126345237Y-108224152D01*
X126107142Y-107890819D02*
X126107142Y-108747961D01*
X126107142Y-108747961D02*
X126154761Y-108843200D01*
X126154761Y-108843200D02*
X126249999Y-108890819D01*
X126249999Y-108890819D02*
X126345237Y-108890819D01*
X126535714Y-108224152D02*
X126916666Y-108224152D01*
X126678571Y-107890819D02*
X126678571Y-108747961D01*
X126678571Y-108747961D02*
X126726190Y-108843200D01*
X126726190Y-108843200D02*
X126821428Y-108890819D01*
X126821428Y-108890819D02*
X126916666Y-108890819D01*
X127392857Y-108890819D02*
X127297619Y-108843200D01*
X127297619Y-108843200D02*
X127250000Y-108795580D01*
X127250000Y-108795580D02*
X127202381Y-108700342D01*
X127202381Y-108700342D02*
X127202381Y-108414628D01*
X127202381Y-108414628D02*
X127250000Y-108319390D01*
X127250000Y-108319390D02*
X127297619Y-108271771D01*
X127297619Y-108271771D02*
X127392857Y-108224152D01*
X127392857Y-108224152D02*
X127535714Y-108224152D01*
X127535714Y-108224152D02*
X127630952Y-108271771D01*
X127630952Y-108271771D02*
X127678571Y-108319390D01*
X127678571Y-108319390D02*
X127726190Y-108414628D01*
X127726190Y-108414628D02*
X127726190Y-108700342D01*
X127726190Y-108700342D02*
X127678571Y-108795580D01*
X127678571Y-108795580D02*
X127630952Y-108843200D01*
X127630952Y-108843200D02*
X127535714Y-108890819D01*
X127535714Y-108890819D02*
X127392857Y-108890819D01*
X128154762Y-108224152D02*
X128154762Y-108890819D01*
X128154762Y-108319390D02*
X128202381Y-108271771D01*
X128202381Y-108271771D02*
X128297619Y-108224152D01*
X128297619Y-108224152D02*
X128440476Y-108224152D01*
X128440476Y-108224152D02*
X128535714Y-108271771D01*
X128535714Y-108271771D02*
X128583333Y-108367009D01*
X128583333Y-108367009D02*
X128583333Y-108890819D01*
X130345238Y-108890819D02*
X129773810Y-108890819D01*
X130059524Y-108890819D02*
X130059524Y-107890819D01*
X130059524Y-107890819D02*
X129964286Y-108033676D01*
X129964286Y-108033676D02*
X129869048Y-108128914D01*
X129869048Y-108128914D02*
X129773810Y-108176533D01*
%TO.C,U_XBEE1*%
D10*
X122086000Y-126310000D02*
X122086000Y-150690000D01*
X122086000Y-150690000D02*
X143190000Y-150690000D01*
X142000000Y-125900000D02*
X142000000Y-125900000D01*
X142000000Y-126000000D02*
X142000000Y-126000000D01*
X143190000Y-126310000D02*
X122086000Y-126310000D01*
X143190000Y-150690000D02*
X149720000Y-143000000D01*
X149720000Y-134000000D02*
X143190000Y-126310000D01*
X149720000Y-143000000D02*
X149720000Y-134000000D01*
X142000000Y-125900000D02*
G75*
G02*
X142000000Y-126000000I0J-50000D01*
G01*
X142000000Y-126000000D02*
G75*
G02*
X142000000Y-125900000I0J50000D01*
G01*
%TO.C,SW_MACRO2*%
D12*
X134350000Y-110519000D02*
X135500000Y-109350000D01*
X134350000Y-111200000D02*
X134350000Y-110519000D01*
X134350000Y-113800000D02*
X134350000Y-114500000D01*
X134350000Y-114500000D02*
X135500000Y-115650000D01*
X135500000Y-109350000D02*
X139500000Y-109350000D01*
X135500000Y-115650000D02*
X139500000Y-115650000D01*
X139500000Y-109350000D02*
X140650000Y-110500000D01*
X139500000Y-115650000D02*
X140650000Y-114500000D01*
X140650000Y-110500000D02*
X140650000Y-111200000D01*
X140650000Y-114500000D02*
X140650000Y-113800000D01*
%TO.C,SW_MACRO5*%
X134350000Y-119269000D02*
X135500000Y-118100000D01*
X134350000Y-119950000D02*
X134350000Y-119269000D01*
X134350000Y-122550000D02*
X134350000Y-123250000D01*
X134350000Y-123250000D02*
X135500000Y-124400000D01*
X135500000Y-118100000D02*
X139500000Y-118100000D01*
X135500000Y-124400000D02*
X139500000Y-124400000D01*
X139500000Y-118100000D02*
X140650000Y-119250000D01*
X139500000Y-124400000D02*
X140650000Y-123250000D01*
X140650000Y-119250000D02*
X140650000Y-119950000D01*
X140650000Y-123250000D02*
X140650000Y-122550000D01*
%TO.C,R_XBEE_RST1*%
X137403641Y-129620000D02*
X137096359Y-129620000D01*
X137403641Y-130380000D02*
X137096359Y-130380000D01*
%TO.C,D_RGB1*%
X144950000Y-155250000D02*
X144950000Y-155950000D01*
X144950000Y-155250000D02*
X145650000Y-155250000D01*
X144950000Y-157350000D02*
X144950000Y-158050000D01*
X144950000Y-158050000D02*
X145650000Y-158050000D01*
X147450000Y-155250000D02*
X148150000Y-155250000D01*
X147450000Y-158050000D02*
X148150000Y-158050000D01*
X148150000Y-155250000D02*
X148150000Y-155950000D01*
X148150000Y-157350000D02*
X148150000Y-158050000D01*
X144280000Y-157480000D02*
X144430000Y-157680000D01*
X144130000Y-157680000D01*
X144280000Y-157480000D01*
G36*
X144430000Y-157680000D02*
G01*
X144130000Y-157680000D01*
X144280000Y-157480000D01*
X144430000Y-157680000D01*
G37*
%TO.C,C_XBEE_RC1*%
X134837836Y-130890000D02*
X134622164Y-130890000D01*
X134837836Y-131610000D02*
X134622164Y-131610000D01*
%TO.C,SW_MACRO6*%
X144600000Y-119269000D02*
X145750000Y-118100000D01*
X144600000Y-119950000D02*
X144600000Y-119269000D01*
X144600000Y-122550000D02*
X144600000Y-123250000D01*
X144600000Y-123250000D02*
X145750000Y-124400000D01*
X145750000Y-118100000D02*
X149750000Y-118100000D01*
X145750000Y-124400000D02*
X149750000Y-124400000D01*
X149750000Y-118100000D02*
X150900000Y-119250000D01*
X149750000Y-124400000D02*
X150900000Y-123250000D01*
X150900000Y-119250000D02*
X150900000Y-119950000D01*
X150900000Y-123250000D02*
X150900000Y-122550000D01*
%TO.C,C_RGB1*%
X150140000Y-152857836D02*
X150140000Y-152642164D01*
X150860000Y-152857836D02*
X150860000Y-152642164D01*
%TO.C,SW_MACRO3*%
X144600000Y-110519000D02*
X145750000Y-109350000D01*
X144600000Y-111200000D02*
X144600000Y-110519000D01*
X144600000Y-113800000D02*
X144600000Y-114500000D01*
X144600000Y-114500000D02*
X145750000Y-115650000D01*
X145750000Y-109350000D02*
X149750000Y-109350000D01*
X145750000Y-115650000D02*
X149750000Y-115650000D01*
X149750000Y-109350000D02*
X150900000Y-110500000D01*
X149750000Y-115650000D02*
X150900000Y-114500000D01*
X150900000Y-110500000D02*
X150900000Y-111200000D01*
X150900000Y-114500000D02*
X150900000Y-113800000D01*
%TO.C,C_XBEE_VCC1*%
X140640000Y-129392164D02*
X140640000Y-129607836D01*
X141360000Y-129392164D02*
X141360000Y-129607836D01*
%TO.C,R_XBEE_RC1*%
X134903641Y-129620000D02*
X134596359Y-129620000D01*
X134903641Y-130380000D02*
X134596359Y-130380000D01*
%TO.C,R_USB_DM1*%
X127370000Y-153913641D02*
X127370000Y-153606359D01*
X128130000Y-153913641D02*
X128130000Y-153606359D01*
%TO.C,SW_TRIG_DIG1*%
X122325000Y-63250000D02*
X122325000Y-62250000D01*
X122925000Y-63250000D02*
X122325000Y-63250000D01*
X125725000Y-60450000D02*
X123725000Y-60450000D01*
X126525000Y-63250000D02*
X127125000Y-63250000D01*
X127125000Y-63250000D02*
X127125000Y-62250000D01*
%TO.C,R_EN_PU1*%
X125670000Y-78406359D02*
X125670000Y-78713641D01*
X126430000Y-78406359D02*
X126430000Y-78713641D01*
%TO.C,U_MCU1*%
X129000000Y-57160000D02*
X129000000Y-63910000D01*
X129000000Y-57160000D02*
X147000000Y-57160000D01*
X129000000Y-81910000D02*
X129000000Y-82660000D01*
X129000000Y-82660000D02*
X130000000Y-82660000D01*
X147000000Y-57160000D02*
X147000000Y-63910000D01*
X147000000Y-63100000D02*
X129000000Y-63100000D01*
X147000000Y-81910000D02*
X147000000Y-82660000D01*
X147000000Y-82660000D02*
X146000000Y-82660000D01*
%TO.C,SW_THR_UP1*%
X120450000Y-89500000D02*
X120450000Y-91500000D01*
X123250000Y-88100000D02*
X122250000Y-88100000D01*
X123250000Y-88700000D02*
X123250000Y-88100000D01*
X123250000Y-92300000D02*
X123250000Y-92900000D01*
X123250000Y-92900000D02*
X122250000Y-92900000D01*
%TO.C,U_OLED1*%
X120890000Y-69215000D02*
X121940000Y-69215000D01*
X120890000Y-71715000D02*
X120890000Y-69215000D01*
X121940000Y-69215000D02*
X121940000Y-68225000D01*
X122060000Y-73685000D02*
X125940000Y-73685000D01*
X127110000Y-69215000D02*
X126060000Y-69215000D01*
X127110000Y-71715000D02*
X127110000Y-69215000D01*
%TO.C,R_CC2*%
X144096359Y-152370000D02*
X144403641Y-152370000D01*
X144096359Y-153130000D02*
X144403641Y-153130000D01*
%TO.C,C_XBEE_VCC4*%
X141990000Y-133634420D02*
X141990000Y-133915580D01*
X143010000Y-133634420D02*
X143010000Y-133915580D01*
%TO.C,C_OLED_2*%
X123107836Y-66640000D02*
X122892164Y-66640000D01*
X123107836Y-67360000D02*
X122892164Y-67360000D01*
%TO.C,SW_BOOT1*%
X150640000Y-145640000D02*
X150640000Y-150560000D01*
X150640000Y-145640000D02*
X150890000Y-145640000D01*
X150640000Y-150560000D02*
X150890000Y-150560000D01*
X154110000Y-145640000D02*
X154360000Y-145640000D01*
X154110000Y-150560000D02*
X154360000Y-150560000D01*
X154360000Y-150560000D02*
X154360000Y-145640000D01*
%TO.C,SW_VOL_DN1*%
X151700000Y-98125000D02*
X152700000Y-98125000D01*
X151700000Y-98725000D02*
X151700000Y-98125000D01*
X151700000Y-102325000D02*
X151700000Y-102925000D01*
X151700000Y-102925000D02*
X152700000Y-102925000D01*
X154500000Y-101525000D02*
X154500000Y-99525000D01*
%TO.C,SW_MACRO4*%
X124100000Y-119269000D02*
X125250000Y-118100000D01*
X124100000Y-119950000D02*
X124100000Y-119269000D01*
X124100000Y-122550000D02*
X124100000Y-123250000D01*
X124100000Y-123250000D02*
X125250000Y-124400000D01*
X125250000Y-118100000D02*
X129250000Y-118100000D01*
X125250000Y-124400000D02*
X129250000Y-124400000D01*
X129250000Y-118100000D02*
X130400000Y-119250000D01*
X129250000Y-124400000D02*
X130400000Y-123250000D01*
X130400000Y-119250000D02*
X130400000Y-119950000D01*
X130400000Y-123250000D02*
X130400000Y-122550000D01*
%TO.C,J_USB1*%
X132800000Y-155200000D02*
X132800000Y-157200000D01*
X132800000Y-159100000D02*
X132800000Y-161000000D01*
X132800000Y-161000000D02*
X142200000Y-161000000D01*
X142200000Y-155200000D02*
X142200000Y-157200000D01*
X142200000Y-159100000D02*
X142200000Y-161000000D01*
%TO.C,C_XBEE_VCC2*%
X143240000Y-129859420D02*
X143240000Y-130140580D01*
X144260000Y-129859420D02*
X144260000Y-130140580D01*
%TO.C,J_STICK1*%
D13*
X138500000Y-95250000D02*
G75*
G02*
X136500000Y-95250000I-1000000J0D01*
G01*
X136500000Y-95250000D02*
G75*
G02*
X138500000Y-95250000I1000000J0D01*
G01*
X132750000Y-85850000D02*
X142250000Y-85850000D01*
X142250000Y-88675000D01*
X144075000Y-88675000D01*
X144075000Y-90500000D01*
X146900000Y-90500000D01*
X146900000Y-100000000D01*
X144075000Y-100000000D01*
X144075000Y-101825000D01*
X141800000Y-101825000D01*
X141800000Y-106850000D01*
X133200000Y-106850000D01*
X133200000Y-101825000D01*
X130925000Y-101825000D01*
X130925000Y-88675000D01*
X132750000Y-88675000D01*
X132750000Y-85850000D01*
%TO.C,C_DBNC1*%
D12*
X126140000Y-154107836D02*
X126140000Y-153892164D01*
X126860000Y-154107836D02*
X126860000Y-153892164D01*
%TO.C,R_RGB1*%
X147870000Y-152903641D02*
X147870000Y-152596359D01*
X148630000Y-152903641D02*
X148630000Y-152596359D01*
%TO.C,R_CC1*%
X129870000Y-153606359D02*
X129870000Y-153913641D01*
X130630000Y-153606359D02*
X130630000Y-153913641D01*
%TO.C,C_3V3_2*%
X127140000Y-64962164D02*
X127140000Y-65177836D01*
X127860000Y-64962164D02*
X127860000Y-65177836D01*
%TO.C,C_3V3_1*%
X125490000Y-65640580D02*
X125490000Y-65359420D01*
X126510000Y-65640580D02*
X126510000Y-65359420D01*
%TO.C,R_VSYS1*%
X122136359Y-84220000D02*
X122443641Y-84220000D01*
X122136359Y-84980000D02*
X122443641Y-84980000D01*
%TO.C,R_USB_DP1*%
X128620000Y-153913641D02*
X128620000Y-153606359D01*
X129380000Y-153913641D02*
X129380000Y-153606359D01*
%TO.C,SW_THR_DN1*%
X120450000Y-99525000D02*
X120450000Y-101525000D01*
X123250000Y-98125000D02*
X122250000Y-98125000D01*
X123250000Y-98725000D02*
X123250000Y-98125000D01*
X123250000Y-102325000D02*
X123250000Y-102925000D01*
X123250000Y-102925000D02*
X122250000Y-102925000D01*
%TO.C,C_XBEE_VCC3*%
X141890000Y-129392164D02*
X141890000Y-129607836D01*
X142610000Y-129392164D02*
X142610000Y-129607836D01*
%TO.C,SW_VOL_UP1*%
X151700000Y-88100000D02*
X152700000Y-88100000D01*
X151700000Y-88700000D02*
X151700000Y-88100000D01*
X151700000Y-92300000D02*
X151700000Y-92900000D01*
X151700000Y-92900000D02*
X152700000Y-92900000D01*
X154500000Y-91500000D02*
X154500000Y-89500000D01*
%TO.C,C_OLED_1*%
X122761252Y-64765000D02*
X122238748Y-64765000D01*
X122761252Y-66235000D02*
X122238748Y-66235000D01*
%TO.C,SW_MACRO1*%
X124100000Y-110519000D02*
X125250000Y-109350000D01*
X124100000Y-111200000D02*
X124100000Y-110519000D01*
X124100000Y-113800000D02*
X124100000Y-114500000D01*
X124100000Y-114500000D02*
X125250000Y-115650000D01*
X125250000Y-109350000D02*
X129250000Y-109350000D01*
X125250000Y-115650000D02*
X129250000Y-115650000D01*
X129250000Y-109350000D02*
X130400000Y-110500000D01*
X129250000Y-115650000D02*
X130400000Y-114500000D01*
X130400000Y-110500000D02*
X130400000Y-111200000D01*
X130400000Y-114500000D02*
X130400000Y-113800000D01*
%TO.C,R_VSYS2*%
X122433641Y-83020000D02*
X122126359Y-83020000D01*
X122433641Y-83780000D02*
X122126359Y-83780000D01*
%TO.C,C_STICK1*%
X148140000Y-92892164D02*
X148140000Y-93107836D01*
X148860000Y-92892164D02*
X148860000Y-93107836D01*
%TO.C,R_XBEE_ATTN_PU1*%
X139220000Y-147136359D02*
X139220000Y-147443641D01*
X139980000Y-147136359D02*
X139980000Y-147443641D01*
%TO.C,SW_PWR1*%
X126600000Y-156450000D02*
X126600000Y-157450000D01*
X127200000Y-156450000D02*
X126600000Y-156450000D01*
X128000000Y-159250000D02*
X130000000Y-159250000D01*
X130800000Y-156450000D02*
X131400000Y-156450000D01*
X131400000Y-156450000D02*
X131400000Y-157450000D01*
%TO.C,C_3V3_3*%
X126940000Y-67287836D02*
X126940000Y-67072164D01*
X127660000Y-67287836D02*
X127660000Y-67072164D01*
%TO.C,R_BOOT_PU1*%
X148120000Y-82586359D02*
X148120000Y-82893641D01*
X148880000Y-82586359D02*
X148880000Y-82893641D01*
%TD*%
M02*
